<svg width="300" height="150" viewBox="0 0 300 150" fill="none" xmlns="http://www.w3.org/2000/svg">
<style>
@keyframes kf_mask_transform_0 {
  0% {
    animation-timing-function: cubic-bezier(0.5, 0, 0.5, 1);
    transform: translateX(-5.699px) translateY(19.505px) translate(23.226px, 85.437px) scaleX(0) scaleY(1) translate(-23.226px, -85.437px) rotate(-0.265rad) scaleX(1) scaleY(1) skewX(0rad);
  }
  20% {
    transform: translateX(-5.699px) translateY(19.505px) translate(23.226px, 85.437px) scaleX(1) scaleY(1) translate(-23.226px, -85.437px) rotate(-0.265rad) scaleX(1) scaleY(1) skewX(0rad);
  }
  100% {
    transform: translateX(-5.699px) translateY(19.505px) translate(23.226px, 85.437px) scaleX(1) scaleY(1) translate(-23.226px, -85.437px) rotate(-0.265rad) scaleX(1) scaleY(1) skewX(0rad);
  }
}
@keyframes kf_mask_opacity_0 {
  0% {
    animation-timing-function: linear;
    opacity: 1;
  }
  96% {
    animation-timing-function: cubic-bezier(0.5, 0, 0.5, 1);
    opacity: 1;
  }
  100% {
    opacity: 0;
  }
}
#mask {
  transform-origin: 0 0;
  animation:
    kf_mask_transform_0 5s linear infinite,
    kf_mask_opacity_0 5s linear infinite;
}
</style>
<g id="get-started_newbie-chart" clip-path="url(#clip0_4418_131417)">
<g id="chart" opacity="0.8" transform="translate(43 9.00024)">
<path id="Vector_56" d="M202.5 4L214 0L213 11L210 6.5L191 26L175 22L158 36L142.5 32.5L117.5 47L86.5 37.5L66 53L57.5 50.5L42 63L30 59L0 73.5V72L30 56.5L42 60.5L57 48.5L65.5 51L86 35.5L117 45L142.5 30L157.5 34L174.5 20L190.5 24L208.5 5.5L202.5 4Z" fill="#FF5400"/>
<path id="Vector_57" transform="translate(1 9)" d="M0 66L228 41.5L209 0L190.5 19L174.5 15.5L158 29.5L142 26.5L117 40.5L86 31.5L65.5 46.5L57.5 44.5L41.5 56.5L29 52.5L0 66Z" fill="url(#paint0_linear_4418_131417)"/>
<circle id="Ellipse_73" transform="translate(27 55)" cx="3" cy="3" r="3.5" fill="#FF5400" stroke="#FDFEFE"/>
<circle id="Ellipse_74" transform="translate(56 47)" cx="2.5" cy="2.5" r="3" fill="#FF5400" stroke="#FDFEFE"/>
<circle id="Ellipse_75" transform="translate(84 34)" cx="2.5" cy="2.5" r="3" fill="#FF5400" stroke="#FDFEFE"/>
<circle id="Ellipse_76" transform="translate(115 42)" cx="2.5" cy="2.5" r="3" fill="#FF5400" stroke="#FDFEFE"/>
<circle id="Ellipse_77" transform="translate(140 29)" cx="2.5" cy="2.5" r="3" fill="#FF5400" stroke="#FDFEFE"/>
<circle id="Ellipse_78" transform="translate(172 18)" cx="2.5" cy="2.5" r="3" fill="#FF5400" stroke="#FDFEFE"/>
<circle id="Ellipse_79" transform="translate(188 22)" cx="2.5" cy="2.5" r="3" fill="#FF5400" stroke="#FDFEFE"/>
</g>
<mask id="mask0_4418_131417" style="mask-type:alpha" maskUnits="userSpaceOnUse" x="0" y="0" width="300" height="150">
<rect id="mask" transform="translate(-5.69873 19.5051) rotate(-15.2085)" width="264.542" height="177.076" fill="#D9D9D9"/>
</mask>
<g mask="url(#mask0_4418_131417)">
<g id="chart_2" transform="translate(43 9.00024)">
<path id="Vector_56_2" d="M202.5 4L214 0L213 11L210 6.5L191 26L175 22L158 36L142.5 32.5L117.5 47L86.5 37.5L66 53L57.5 50.5L42 63L30 59L0 73.5V72L30 56.5L42 60.5L57 48.5L65.5 51L86 35.5L117 45L142.5 30L157.5 34L174.5 20L190.5 24L208.5 5.5L202.5 4Z" fill="#FF5400"/>
<path id="Vector_57_2" transform="translate(1 9)" d="M0 66L228 41.5L209 0L190.5 19L174.5 15.5L158 29.5L142 26.5L117 40.5L86 31.5L65.5 46.5L57.5 44.5L41.5 56.5L29 52.5L0 66Z" fill="url(#paint1_linear_4418_131417)"/>
<circle id="Ellipse_73_2" transform="translate(27 55)" cx="3" cy="3" r="3.5" fill="#FF5400" stroke="#FDFEFE"/>
<circle id="Ellipse_74_2" transform="translate(56 47)" cx="2.5" cy="2.5" r="3" fill="#FF5400" stroke="#FDFEFE"/>
<circle id="Ellipse_75_2" transform="translate(84 34)" cx="2.5" cy="2.5" r="3" fill="#FF5400" stroke="#FDFEFE"/>
<circle id="Ellipse_76_2" transform="translate(115 42)" cx="2.5" cy="2.5" r="3" fill="#FF5400" stroke="#FDFEFE"/>
<circle id="Ellipse_77_2" transform="translate(140 29)" cx="2.5" cy="2.5" r="3" fill="#FF5400" stroke="#FDFEFE"/>
<circle id="Ellipse_78_2" transform="translate(172 18)" cx="2.5" cy="2.5" r="3" fill="#FF5400" stroke="#FDFEFE"/>
<circle id="Ellipse_79_2" transform="translate(188 22)" cx="2.5" cy="2.5" r="3" fill="#FF5400" stroke="#FDFEFE"/>
</g>
</g>
</g>
<defs>
<linearGradient id="paint0_linear_4418_131417" x1="103.5" y1="22" x2="112" y2="63.5" gradientUnits="userSpaceOnUse">
<stop stop-color="#FF5400"/>
<stop offset="1" stop-color="#FF5400" stop-opacity="0"/>
</linearGradient>
<linearGradient id="paint1_linear_4418_131417" x1="103.5" y1="22" x2="112" y2="63.5" gradientUnits="userSpaceOnUse">
<stop stop-color="#FF5400"/>
<stop offset="1" stop-color="#FF5400" stop-opacity="0"/>
</linearGradient>
<clipPath id="clip0_4418_131417">
<rect width="300" height="150" fill="white"/>
</clipPath>
</defs>
</svg>
