<svg width="500" height="130" viewBox="0 0 500 130" fill="none" xmlns="http://www.w3.org/2000/svg">
<style>
@keyframes kf_Vector_transform_0 {
  0% {
    transform: translateX(55.624px) translateY(16.567px) translateX(-19.995px) translateY(0px);
  }
  40% {
    transform: translateX(55.624px) translateY(16.567px) translateX(0px) translateY(0px);
  }
  100% {
    transform: translateX(55.624px) translateY(16.567px) translateX(0px) translateY(0px);
  }
}
@keyframes kf_Vector_opacity_0 {
  0% {
    animation-timing-function: cubic-bezier(0.5, 0, 0.5, 1);
    opacity: 0;
  }
  40% {
    animation-timing-function: linear;
    opacity: 1;
  }
  100% {
    opacity: 1;
  }
}
#Vector {
  transform-origin: 0 0;
  animation:
    kf_Vector_transform_0 1s linear forwards,
    kf_Vector_opacity_0 1s linear forwards;
}
@keyframes kf_Vector_2_transform_0 {
  0% {
    transform: translateX(180.649px) translateY(16.567px) translateX(-19.995px) translateY(0px);
  }
  20% {
    transform: translateX(180.649px) translateY(16.567px) translateX(-19.995px) translateY(0px);
  }
  60% {
    transform: translateX(180.649px) translateY(16.567px) translateX(0px) translateY(0px);
  }
  100% {
    transform: translateX(180.649px) translateY(16.567px) translateX(0px) translateY(0px);
  }
}
@keyframes kf_Vector_2_opacity_0 {
  0% {
    animation-timing-function: linear;
    opacity: 0;
  }
  20% {
    animation-timing-function: cubic-bezier(0.5, 0, 0.5, 1);
    opacity: 0;
  }
  60% {
    animation-timing-function: linear;
    opacity: 1;
  }
  100% {
    opacity: 1;
  }
}
#Vector_2 {
  transform-origin: 0 0;
  animation:
    kf_Vector_2_transform_0 1s linear forwards,
    kf_Vector_2_opacity_0 1s linear forwards;
}
@keyframes kf_Vector_3_transform_0 {
  0% {
    transform: translateX(286.087px) translateY(16.593px) translateX(-19.995px) translateY(0px);
  }
  40% {
    transform: translateX(286.087px) translateY(16.593px) translateX(-19.995px) translateY(0px);
  }
  80% {
    transform: translateX(286.087px) translateY(16.593px) translateX(0px) translateY(0px);
  }
  100% {
    transform: translateX(286.087px) translateY(16.593px) translateX(0px) translateY(0px);
  }
}
@keyframes kf_Vector_3_opacity_0 {
  0% {
    animation-timing-function: linear;
    opacity: 0;
  }
  40% {
    animation-timing-function: cubic-bezier(0.5, 0, 0.5, 1);
    opacity: 0;
  }
  80% {
    animation-timing-function: linear;
    opacity: 1;
  }
  100% {
    opacity: 1;
  }
}
#Vector_3 {
  transform-origin: 0 0;
  animation:
    kf_Vector_3_transform_0 1s linear forwards,
    kf_Vector_3_opacity_0 1s linear forwards;
}
@keyframes kf_Vector_4_transform_0 {
  0% {
    transform: translateX(362.685px) translateY(12.868px) translateX(-19.995px) translateY(0px);
  }
  60% {
    transform: translateX(362.685px) translateY(12.868px) translateX(-19.995px) translateY(0px);
  }
  100% {
    transform: translateX(362.685px) translateY(12.868px) translateX(0px) translateY(0px);
  }
}
@keyframes kf_Vector_4_opacity_0 {
  0% {
    animation-timing-function: linear;
    opacity: 0;
  }
  60% {
    animation-timing-function: cubic-bezier(0.5, 0, 0.5, 1);
    opacity: 0;
  }
  100% {
    opacity: 1;
  }
}
#Vector_4 {
  transform-origin: 0 0;
  animation:
    kf_Vector_4_transform_0 1s linear forwards,
    kf_Vector_4_opacity_0 1s linear forwards;
}
</style>
<g id="logo" clip-path="url(#clip0_4773_109608)">
<path id="Vector" transform="translate(55.6235 16.5669)" d="M63.0928 56.134C63.0928 56.134 85.6959 4.48454 87.4484 0H121.443C121.443 6.88144 116.933 91.0825 116.959 98.0155H92.5L96.5464 29.3814C96.5464 29.3814 68.9948 93.6598 67.1649 98.0155H47.835L39.1753 29.3814C38.5052 32.5 29.3557 78.3505 24.3814 98.0155H0C2.52577 89.2526 21.1598 5.05155 22.6289 0H55.3608L63.0412 56.134H63.0928Z" fill="#FF5400"/>
<path id="Vector_2" transform="translate(180.649 16.5669)" d="M64.8454 78.1701C64.8454 78.1701 66.5722 94.1495 67.2165 98.0155H93.0928C91.6495 89.9227 77.5258 5.72165 76.4948 0H43.7371C41.8299 4.07216 4.43299 88.3763 0 98.0155H26.3144C27.7062 94.7423 34.3557 78.2216 34.3557 78.2216H64.8711L64.8454 78.1701ZM41.7268 57.9639L57.2165 21.5722L62.2423 57.9639H41.7268Z" fill="#FF5400"/>
<path id="Vector_3" transform="translate(286.087 16.5927)" d="M76.9845 9.04639C70.4897 1.54639 59.3299 0 51.0567 0H14.0206C13.866 1.08247 13.3505 4.7165 12.5773 9.97423C12.3969 11.2887 12.1907 12.7062 11.9588 14.2268C11.7526 15.7474 11.5206 17.3454 11.2629 19.0206C10.7732 22.3711 10.2577 26.0052 9.71649 29.8454C9.56185 30.9794 9.38143 32.1392 9.22679 33.299C8.99483 34.8454 8.78866 36.4175 8.5567 38.0155C8.19587 40.5928 7.80927 43.2216 7.42267 45.8505C6.88144 49.6134 6.34021 53.4278 5.79897 57.1649C5.54124 58.9691 5.2835 60.7732 5.02576 62.5515C4.79381 64.2268 4.56186 65.8505 4.3299 67.4742C4.07217 69.2783 3.81443 71.0309 3.58247 72.732C3.45361 73.5567 3.3505 74.3557 3.24741 75.1546C3.09277 76.2113 2.93813 77.2423 2.80927 78.2474C2.7835 78.4278 2.75773 78.6082 2.73195 78.7887C2.52577 80.2835 2.31959 81.7526 2.1134 83.1186C2.08763 83.3763 2.03608 83.6598 2.01031 83.9175C1.88144 84.768 1.77835 85.567 1.64948 86.366C1.64948 86.4948 1.59793 86.6495 1.59793 86.7783C1.41751 88.067 1.23711 89.2783 1.08247 90.4124C0.876284 91.8557 0.695874 93.1185 0.541235 94.201C0.463915 94.6907 0.412364 95.1546 0.335044 95.567C0.283498 95.8505 0.257722 96.1082 0.231949 96.3402C0.15463 96.8299 0.103084 97.2423 0.0515377 97.5773C0.0515377 97.7577 0 97.8866 0 98.0155H24.5876C24.8196 96.5206 25.7732 89.8711 27.0361 81.0309C27.1392 80.2577 27.268 79.4588 27.3711 78.634C27.5258 77.5258 27.6804 76.3917 27.8608 75.2062C28.0928 73.5309 28.3505 71.8299 28.5825 70.0773C28.6598 69.5361 28.7371 68.9948 28.8144 68.4536C29.0206 67.0876 29.201 65.7216 29.4072 64.3299C29.5361 63.4794 29.6392 62.6289 29.768 61.7526C29.8969 60.9021 30 60.0515 30.1289 59.2268C30.1289 59.2268 30.1289 59.1753 30.1289 59.1495C33.4278 59.201 40.2319 59.2526 44.0206 58.9691C52.7062 58.3505 52.268 58.2216 53.9175 57.9897C55.4381 57.7835 58.1443 57.3454 58.1443 57.3454C70.1546 55.1289 79.5103 50.9278 81.9072 32.2938C82.2165 29.9742 82.3969 27.7577 82.3969 25.6443C82.3969 18.7371 80.5928 13.1959 77.0103 9.04639H76.9845ZM51.7526 20.5412C52.3969 20.9794 52.9897 21.4948 53.5309 22.1134C53.7886 22.3969 54.0206 22.7062 54.2268 23.0412C54.3557 23.2474 54.4587 23.4536 54.5618 23.6598C54.6391 23.7887 54.7165 23.9175 54.7938 24.0464C54.9227 24.3299 55.0515 24.6392 55.1546 24.9485C55.1546 25.0258 55.2062 25.0773 55.232 25.1546C55.3608 25.5155 55.4639 25.9021 55.5412 26.2887C55.5412 26.2887 55.5412 26.2887 55.5412 26.3144C55.902 27.9381 55.9278 29.7938 55.6443 31.8814C55.6443 31.8814 55.6443 31.933 55.6443 32.0361C55.6443 32.0876 55.6443 32.1392 55.6443 32.1907C55.6443 32.2165 55.6443 32.268 55.6443 32.3196C55.6443 32.3969 55.6186 32.4742 55.5928 32.5773C55.5928 32.6289 55.5928 32.7062 55.567 32.7577C55.567 32.8608 55.5154 32.9639 55.4897 33.0928C55.4897 33.1701 55.4639 33.2732 55.4381 33.3505C55.4124 33.4794 55.3866 33.5825 55.3608 33.7113C55.3608 33.8144 55.3093 33.9175 55.2835 33.9948C55.2577 34.1237 55.2062 34.2526 55.1804 34.4072C55.1546 34.5103 55.1031 34.6392 55.0773 34.7423C55.0258 34.8969 55 35.0258 54.9484 35.1804C54.8969 35.3093 54.8711 35.4124 54.8196 35.5412C54.768 35.6959 54.7165 35.8505 54.6649 36.0052C54.6649 36.0309 54.6392 36.0825 54.6134 36.1083C54.6134 36.1083 54.6134 36.1598 54.5876 36.1856C53.5825 38.6598 51.5979 40.5155 49.201 41.4691C49.201 41.4691 49.1753 41.4691 49.1495 41.4691C48.2732 41.8041 47.3453 42.0361 46.3917 42.1392C45 42.268 43.2216 42.3969 41.1598 42.4485L32.6031 42.2423H32.5773C33.4021 36.4948 34.1237 31.2887 34.7165 27.2165C34.8196 26.5722 34.8969 25.9536 34.9742 25.3608C35.2062 23.8144 35.3866 22.4742 35.5412 21.4175C35.567 21.1598 35.6185 20.9021 35.6443 20.6701C35.6959 20.2835 35.7474 19.9227 35.799 19.6392C35.8247 19.3557 35.8763 19.1237 35.9021 18.9433C35.9536 18.5825 35.9794 18.4021 35.9794 18.4021H42.0103C43.0412 18.4021 44.0979 18.4278 45.1546 18.5309C46.7268 18.6598 48.299 18.9433 49.7423 19.5103C50.4639 19.7938 51.1598 20.1289 51.8041 20.567L51.7526 20.5412Z" fill="#FF5400"/>
<path id="Vector_4" transform="translate(362.685 12.8682)" d="M66.6237 47.6678C64.2526 45.8379 61.4691 44.1627 58.2732 42.7194C58.1701 42.6421 51.134 39.1627 51.134 39.1627H51.0825L50.9536 39.0596C48.6598 37.7452 43.299 34.6266 43.299 29.3689C43.299 26.7916 44.3041 24.6008 46.134 23.0544C48.3505 21.2245 51.8041 20.5287 55.4639 21.1988C60.1031 21.9204 65.4124 24.9359 71.2629 29.9617C74.0206 24.6266 79.3299 14.3947 81.2629 10.7349C74.5618 5.2194 68.0412 2.28125 58.3505 0.554447C46.366 -1.2239 34.7938 1.32764 26.6753 7.46166C19.8454 12.6936 15.5928 20.3483 14.4588 29.6266C14.2784 31.2245 14.2268 32.7194 14.2268 34.1885C14.2268 38.5441 17.6546 45.7864 18.2474 45.8379C23.2474 54.0338 39.3299 56.74 47.4227 68.0544C47.6804 68.4153 47.8351 68.8019 48.0155 69.1885C48.5052 70.2967 48.7629 71.4823 48.7629 72.7452C48.7629 73.3637 48.7113 73.9565 48.6082 74.5751C48.1959 76.7658 47.0876 78.5699 45.3093 79.8328C41.701 82.3586 36.598 81.7916 33.0413 81.173C24.6907 79.7297 18.0412 73.3895 12.6804 68.1318C9.30412 73.6215 2.24227 85.1163 0 88.8534C9.87113 97.8483 20.5155 103.338 31.8299 104.936C43.2474 106.637 54.5876 104.06 62.9897 97.874C70.3351 92.4359 74.9227 84.5493 76.3402 75.039C76.8041 72.2813 76.9845 69.7039 76.8557 67.2297C76.0309 53.5957 66.6237 47.6936 66.6237 47.6936V47.6678Z" fill="#FF5400"/>
</g>
<defs>
<clipPath id="clip0_4773_109608">
<rect width="500" height="130" fill="white"/>
</clipPath>
</defs>
</svg>
