<svg width="375" height="570" viewBox="0 0 375 570" fill="none" xmlns="http://www.w3.org/2000/svg">
<style>
@keyframes kf_Vector_transform_0 {
  0% {
    animation-timing-function: cubic-bezier(0.5, 0, 0.5, 1);
    transform: translateX(412.088px) translateY(0px) translate(533.322px, 121.53px) rotate(0rad) translate(-533.322px, -121.53px) rotate(0rad) skewX(0rad);
  }
  50% {
    transform: translateX(412.088px) translateY(0px) translate(533.322px, 121.53px) rotate(0.052rad) translate(-533.322px, -121.53px) rotate(0rad) skewX(0rad);
  }
  100% {
    transform: translateX(412.088px) translateY(0px) translate(533.322px, 121.53px) rotate(0rad) translate(-533.322px, -121.53px) rotate(0rad) skewX(0rad);
  }
}
#Vector {
  transform-origin: 0 0;
  animation: kf_Vector_transform_0 10s linear infinite;
}
@keyframes kf_Vector_2_transform_0 {
  0% {
    transform: translateY(58.32px) translate(586.042px, 79.487px) rotate(0rad) translate(-586.042px, -79.487px);
  }
  50% {
    animation-timing-function: cubic-bezier(0.5, 0, 0.5, 1);
    transform: translateY(58.32px) translate(586.042px, 79.487px) rotate(-0.07rad) translate(-586.042px, -79.487px);
  }
  100% {
    transform: translateY(58.32px) translate(586.042px, 79.487px) rotate(0rad) translate(-586.042px, -79.487px);
  }
}
#Vector_2 {
  transform-origin: 0 0;
  animation: kf_Vector_2_transform_0 10s linear infinite;
}
@keyframes kf_Vector_3_transform_0 {
  0% {
    animation-timing-function: cubic-bezier(0.5, 0, 0.5, 1);
    transform: translateX(255.502px) translateY(46.222px) translate(410.717px, 95.964px) rotate(0rad) translate(-410.717px, -95.964px);
  }
  50% {
    animation-timing-function: cubic-bezier(0.5, 0, 0.5, 1);
    transform: translateX(255.502px) translateY(46.222px) translate(410.717px, 95.964px) rotate(0.07rad) translate(-410.717px, -95.964px);
  }
  100% {
    transform: translateX(255.502px) translateY(46.222px) translate(410.717px, 95.964px) rotate(0rad) translate(-410.717px, -95.964px);
  }
}
#Vector_3 {
  transform-origin: 0 0;
  animation: kf_Vector_3_transform_0 10s linear infinite;
}
@keyframes kf_Vector_4_transform_0 {
  0% {
    animation-timing-function: ease-out;
    transform: translateX(582.969px) translateY(146.12px) translateX(0px) translateY(0px);
  }
  25% {
    transform: translateX(582.969px) translateY(146.12px) translateX(0px) translateY(-16.251px);
  }
  50% {
    transform: translateX(582.969px) translateY(146.12px) translateX(0px) translateY(8.249px);
  }
  76.99% {
    transform: translateX(582.969px) translateY(146.12px) translateX(0px) translateY(0px);
  }
  100% {
    transform: translateX(582.969px) translateY(146.12px) translateX(0px) translateY(0px);
  }
}
#Vector_4 {
  transform-origin: 0 0;
  animation: kf_Vector_4_transform_0 10s linear infinite;
}
@keyframes kf_Vector_5_transform_0 {
  0% {
    transform: translateX(447.304px) translateY(82.688px) translateX(0px) translateY(0px);
  }
  37.25% {
    transform: translateX(447.304px) translateY(82.688px) translateX(0px) translateY(10.682px);
  }
  70% {
    transform: translateX(447.304px) translateY(82.688px) translateX(4.883px) translateY(6.182px);
  }
  100% {
    transform: translateX(447.304px) translateY(82.688px) translateX(0px) translateY(0px);
  }
}
#Vector_5 {
  transform-origin: 0 0;
  animation: kf_Vector_5_transform_0 10s linear infinite;
}
@keyframes kf_Vector_7_transform_0 {
  0% {
    transform: translateX(950.404px) translateY(107.309px) translateX(0px) translateY(0px);
  }
  25% {
    animation-timing-function: ease-out;
    transform: translateX(950.404px) translateY(107.309px) translateX(5px) translateY(-10px);
  }
  50% {
    animation-timing-function: ease-in;
    transform: translateX(950.404px) translateY(107.309px) translateX(0px) translateY(-20.001px);
  }
  75% {
    transform: translateX(950.404px) translateY(107.309px) translateX(-10px) translateY(-2.501px);
  }
  100% {
    transform: translateX(950.404px) translateY(107.309px) translateX(-7.217px) translateY(14.999px);
  }
}
#Vector_7 {
  transform-origin: 0 0;
  animation: kf_Vector_7_transform_0 10s linear infinite;
}
@keyframes kf_Vector_8_transform_0 {
  0% {
    transform: translateX(502.404px) translateY(176.059px) translateX(0px) translateY(0px);
  }
  25% {
    animation-timing-function: ease-out;
    transform: translateX(502.404px) translateY(176.059px) translateX(5px) translateY(-10px);
  }
  50% {
    animation-timing-function: ease-in;
    transform: translateX(502.404px) translateY(176.059px) translateX(0px) translateY(-20.001px);
  }
  75% {
    transform: translateX(502.404px) translateY(176.059px) translateX(-10px) translateY(-2.501px);
  }
  100% {
    transform: translateX(502.404px) translateY(176.059px) translateX(0px) translateY(0px);
  }
}
#Vector_8 {
  transform-origin: 0 0;
  animation: kf_Vector_8_transform_0 10s linear infinite;
}
</style>
<g id="banner_support-m" clip-path="url(#clip0_4670_190018)">
<mask id="mask0_4670_190018" style="mask-type:alpha" maskUnits="userSpaceOnUse" x="0" y="0" width="375" height="570">
<path id="Rectangle_115" transform="translate(-70 207)" d="M0 0H255.5L183 363H0V0Z" fill="url(#paint0_linear_4670_190018)"/>
</mask>
<g mask="url(#mask0_4670_190018)">
<g id="back-line" transform="translate(-428.904 229.441)">
<path id="Vector" transform="translate(412.088 -0.000231504)" d="M912.183 25.7402C915.204 23.7046 918.354 21.8466 921.537 20.0533C924.72 18.2762 927.967 16.5959 931.263 15.0126C937.839 11.8461 944.624 9.06726 951.555 6.77311C958.486 4.47896 965.595 2.65334 972.816 1.47395C980.038 0.294565 987.373 -0.238592 994.692 0.100683C1002.01 0.439959 1009.3 1.63548 1016.29 3.86501C1023.27 6.09453 1029.94 9.32575 1036.02 13.4294C1037.54 14.4634 1039.02 15.5296 1040.48 16.6606C1041.92 17.7915 1043.34 18.9547 1044.66 20.231C1047.33 22.7675 1049.72 25.5787 1051.84 28.5837C1056.07 34.5937 1059.27 41.2823 1061.59 48.2455C1063.92 55.2087 1065.39 62.4305 1066.12 69.7168C1066.84 77.0193 1066.81 84.3864 1066.07 91.6728C1064.57 106.245 1060.12 120.56 1052.79 133.291C1049.14 139.656 1044.74 145.601 1039.75 150.965C1034.76 156.345 1029.14 161.143 1023.08 165.263C1017.02 169.399 1010.51 172.873 1003.74 175.7C1000.35 177.106 996.905 178.366 993.399 179.464C989.893 180.563 986.339 181.468 982.736 182.179C975.547 183.616 968.212 184.327 960.877 184.424C953.542 184.521 946.224 184.02 938.953 183.132C931.683 182.227 924.478 180.935 917.32 179.4C910.18 177.849 903.071 176.072 896.027 174.149C881.923 170.288 867.98 165.909 854.07 161.483C840.159 157.04 826.265 152.549 812.339 148.186C805.376 146.005 798.396 143.857 791.401 141.772C784.405 139.688 777.426 137.475 770.479 135.245C756.568 130.786 742.69 126.295 728.683 122.208C714.676 118.104 700.572 114.372 686.322 111.238C672.089 108.087 657.71 105.535 643.25 103.693C614.331 99.9931 584.992 99.3146 555.976 102.239C548.722 102.966 541.5 103.919 534.294 105.082C527.105 106.245 519.948 107.667 512.839 109.267C511.062 109.687 509.285 110.058 507.508 110.511L502.209 111.835C498.687 112.773 495.165 113.693 491.675 114.744C488.169 115.729 484.696 116.86 481.222 117.942C477.765 119.106 474.307 120.237 470.882 121.481C469.17 122.095 467.441 122.692 465.745 123.355L460.639 125.293C457.263 126.667 453.854 127.975 450.51 129.429C443.789 132.273 437.149 135.278 430.638 138.557C417.616 145.117 404.982 152.452 392.429 159.9C379.876 167.364 367.419 174.973 354.85 182.389C342.281 189.82 329.582 197.058 316.641 203.828C303.7 210.597 290.501 216.898 276.962 222.407C263.423 227.916 249.545 232.634 235.36 236.14C221.175 239.662 206.667 241.988 192.078 242.763C177.473 243.555 162.804 242.764 148.377 240.372C133.949 237.981 119.829 233.926 106.242 228.546C99.4562 225.832 92.8 222.811 86.2891 219.483C79.7944 216.155 73.4451 212.536 67.2412 208.674C54.8334 200.952 43.088 192.211 31.9081 182.825C20.7281 173.438 10.1136 163.373 0 152.839C10.146 163.325 20.7927 173.357 31.9888 182.728C43.2011 192.082 54.9626 200.774 67.3704 208.464C73.5743 212.31 79.9236 215.912 86.4183 219.224C92.913 222.536 99.5855 225.541 106.355 228.223C119.926 233.571 134.03 237.594 148.441 239.936C162.836 242.311 177.49 243.054 192.046 242.23C206.603 241.423 221.062 239.08 235.215 235.526C249.368 231.987 263.197 227.27 276.703 221.745C290.21 216.235 303.377 209.918 316.302 203.133C329.227 196.347 341.893 189.11 354.462 181.662C367.032 174.23 379.472 166.604 392.009 159.124C404.562 151.66 417.196 144.293 430.234 137.701C436.761 134.389 443.417 131.368 450.138 128.508C453.482 127.038 456.891 125.713 460.284 124.34L465.405 122.385C467.102 121.723 468.83 121.109 470.559 120.495C498.073 110.591 526.782 103.967 555.895 101.076C585.008 98.119 614.428 98.7814 643.428 102.465C657.936 104.291 672.347 106.859 686.613 109.994C700.895 113.128 715.031 116.86 729.055 120.964C743.078 125.051 756.988 129.542 770.899 133.985C777.846 136.215 784.809 138.412 791.805 140.48C798.8 142.564 805.78 144.713 812.759 146.894C826.702 151.256 840.58 155.78 854.49 160.239C868.4 164.682 882.31 169.076 896.382 172.937C903.41 174.876 910.487 176.653 917.611 178.204C924.736 179.755 931.909 181.048 939.131 181.952C946.353 182.857 953.623 183.358 960.893 183.261C968.163 183.18 975.417 182.486 982.542 181.064C986.097 180.353 989.635 179.464 993.092 178.382C996.566 177.299 999.974 176.055 1003.33 174.666C1010.04 171.887 1016.49 168.446 1022.5 164.359C1028.51 160.271 1034.06 155.537 1039.02 150.238C1043.97 144.923 1048.31 139.042 1051.95 132.757C1059.23 120.172 1063.66 105.987 1065.16 91.5436C1065.92 84.3057 1065.96 77.0032 1065.24 69.7653C1064.53 62.5274 1063.08 55.3541 1060.79 48.4717C1058.49 41.5892 1055.34 34.9491 1051.17 29.0037C1049.09 26.031 1046.73 23.2522 1044.11 20.748C1042.8 19.4879 1041.41 18.3408 1039.99 17.2099C1038.57 16.0789 1037.1 15.0127 1035.6 13.9948C1029.6 9.89122 1023 6.67617 1016.08 4.44665C1009.17 2.21712 1001.93 0.956931 994.675 0.585343C987.405 0.213756 980.103 0.698467 972.897 1.82939C965.691 2.9603 958.599 4.73743 951.668 6.99927C944.737 9.24495 937.952 11.9915 931.36 15.1096C928.064 16.6606 924.801 18.3246 921.602 20.0856C918.403 21.8466 915.253 23.6884 912.199 25.6918L912.183 25.7402Z" fill="url(#paint1_linear_4670_190018)"/>
<path id="Vector_2" transform="translate(0 58.3198)" d="M0 0C2.52033 2.13259 5.16991 4.08747 7.86796 5.96156C10.566 7.85181 13.3448 9.62896 16.1398 11.3577C21.7621 14.7989 27.5621 17.9331 33.4914 20.7927C45.3498 26.5281 57.7415 31.1487 70.4401 34.6869C83.1387 38.1927 96.1281 40.6646 109.231 41.9894C122.333 43.3304 135.549 43.5727 148.684 42.8134C161.834 42.0702 174.905 40.2446 187.813 37.6111C194.26 36.3025 200.657 34.7031 207.007 32.9744C210.173 32.1019 213.34 31.1811 216.522 30.2763C219.689 29.3878 222.872 28.4992 226.055 27.6429C251.516 20.8089 277.382 15.2674 303.619 12.2786C316.738 10.8084 329.921 9.95209 343.121 9.95209C356.32 9.93594 369.52 10.7761 382.622 12.5048C389.165 13.3772 395.676 14.4919 402.155 15.8167C408.617 17.1577 415.047 18.7248 421.396 20.5019C427.762 22.2791 434.047 24.2986 440.267 26.4959C446.487 28.7092 452.642 31.1164 458.717 33.7014C464.791 36.3025 470.769 39.0813 476.682 42.0217C482.595 44.9783 488.412 48.0479 494.292 51.0367C506.038 57.0145 517.864 62.8145 529.787 68.4368C553.617 79.6652 577.803 90.1827 602.327 99.7955C626.852 109.408 651.749 118.1 676.952 125.742C689.554 129.555 702.252 133.077 715.015 136.308C727.779 139.539 740.623 142.48 753.547 145.032C766.456 147.601 779.445 149.847 792.483 151.689C798.994 152.626 805.537 153.433 812.08 154.16C818.624 154.887 825.183 155.501 831.742 156.018C857.996 158.07 884.395 158.409 910.664 156.665C917.24 156.212 923.799 155.647 930.342 154.952C936.885 154.257 943.412 153.385 949.923 152.399C956.434 151.398 962.913 150.267 969.375 148.974C975.821 147.682 982.251 146.228 988.633 144.628C1014.16 138.214 1039.09 129.232 1062.6 117.341C1074.34 111.396 1085.71 104.707 1096.59 97.2752C1102.02 93.5432 1107.31 89.6334 1112.45 85.5137C1117.59 81.3939 1122.57 77.0802 1127.36 72.5727C1136.94 63.5415 1145.78 53.6864 1153.46 42.9911C1157.29 37.6273 1160.84 32.0697 1163.99 26.2858C1167.14 20.502 1169.9 14.4919 1172.08 8.27186C1169.94 14.5081 1167.21 20.5343 1164.09 26.3343C1160.97 32.1504 1157.45 37.7404 1153.63 43.1203C1145.99 53.8641 1137.19 63.7677 1127.62 72.8635C1122.84 77.4033 1117.86 81.7493 1112.74 85.9014C1107.61 90.0373 1102.32 93.9955 1096.89 97.7437C1086.04 105.24 1074.66 111.993 1062.9 117.971C1039.38 129.959 1014.42 139.022 988.843 145.517C982.445 147.149 976.015 148.603 969.553 149.928C963.09 151.236 956.596 152.383 950.069 153.401C943.542 154.403 937.015 155.291 930.455 156.018C923.896 156.745 917.321 157.327 910.745 157.796C884.411 159.605 857.947 159.266 831.645 157.23C825.07 156.713 818.494 156.099 811.935 155.372C805.376 154.629 798.833 153.837 792.306 152.9C779.235 151.075 766.23 148.829 753.289 146.276C740.348 143.724 727.472 140.799 714.692 137.568C701.897 134.337 689.182 130.815 676.564 127.018C651.312 119.393 626.4 110.62 601.859 100.991C577.302 91.3459 553.116 80.8123 529.27 69.5515C517.347 63.9131 505.505 58.1131 493.759 52.1192C487.878 49.1304 482.046 46.0446 476.165 43.1042C470.268 40.1638 464.307 37.4011 458.264 34.8C446.164 29.6301 433.756 25.171 421.09 21.6005C414.756 19.8234 408.375 18.2401 401.929 16.8992C395.482 15.5582 389.004 14.4596 382.477 13.5711C369.439 11.8101 356.272 10.9538 343.121 10.9538C329.954 10.9214 316.803 11.7454 303.716 13.1995C277.544 16.1237 251.694 21.6006 226.232 28.3861C223.05 29.2423 219.867 30.0986 216.7 30.9872C213.534 31.8758 210.367 32.7967 207.184 33.6529C200.819 35.3816 194.405 36.9649 187.943 38.2574C175.018 40.8585 161.899 42.6518 148.732 43.3627C135.565 44.0897 122.333 43.7989 109.214 42.4256C96.0958 41.0685 83.0902 38.5644 70.3916 35.01C57.7092 31.4234 45.3014 26.7705 33.459 20.9867C27.5298 18.0947 21.746 14.9443 16.1237 11.4708C13.3287 9.74207 10.566 7.93262 7.86796 6.04237C5.16991 4.15212 2.52033 2.18106 0.016156 0.048466L0 0Z" fill="url(#paint2_linear_4670_190018)"/>
<path id="Vector_3" transform="translate(255.502 46.2217)" d="M821.435 89.7823C820.078 91.6726 818.607 93.482 817.121 95.2592C815.619 97.0363 814.068 98.7812 812.5 100.478C809.334 103.886 806.038 107.182 802.645 110.365C795.844 116.73 788.638 122.627 781.142 128.153C766.133 139.187 749.993 148.655 733.158 156.603C732.108 157.104 731.058 157.589 729.992 158.074L726.809 159.512C724.677 160.432 722.544 161.402 720.395 162.274L717.18 163.615L713.933 164.908L712.317 165.554L710.685 166.184L707.422 167.428C698.698 170.675 689.828 173.567 680.878 176.12C662.961 181.241 644.688 185.022 626.238 187.623C617.013 188.915 607.756 189.917 598.466 190.644C597.303 190.741 596.14 190.838 594.976 190.919L591.487 191.145L587.997 191.371L584.507 191.549C579.854 191.759 575.201 191.888 570.532 191.92C561.21 191.985 551.888 191.678 542.599 191.016C533.309 190.353 524.035 189.303 514.827 187.93C505.618 186.54 496.457 184.812 487.361 182.76C478.266 180.708 469.267 178.301 460.332 175.635C451.414 172.953 442.577 169.964 433.837 166.733C425.096 163.486 416.469 159.98 407.939 156.248C390.878 148.752 374.237 140.334 358 131.222C349.874 126.666 341.861 121.933 333.912 117.07C325.979 112.207 318.111 107.231 310.259 102.239C294.572 92.238 278.933 82.1405 263.084 72.4146C255.168 67.5517 247.187 62.7695 239.125 58.1166C231.079 53.4637 222.953 48.9561 214.713 44.6263C198.266 35.9829 181.399 28.0826 164.048 21.4102C146.696 14.7539 128.86 9.30935 110.636 5.6581C92.4284 1.99069 73.8167 0.100429 55.2211 0.391237C45.9315 0.520485 36.6418 1.18291 27.4167 2.39461C18.1916 3.59015 9.03119 5.30268 0 7.5322C9.01504 5.23805 18.1593 3.46087 27.3844 2.2007C36.6095 0.940532 45.8992 0.229691 55.205 0.0519749C73.8328 -0.335769 92.4769 1.45754 110.749 5.04417C129.038 8.6308 146.939 14.0269 164.339 20.6509C181.755 27.2748 198.67 35.1427 215.182 43.7539C223.437 48.0675 231.596 52.5589 239.674 57.1795C247.752 61.8163 255.733 66.5985 263.666 71.4614C279.547 81.1873 295.186 91.2686 310.89 101.253C318.741 106.245 326.609 111.205 334.542 116.052C342.475 120.899 350.488 125.616 358.598 130.156C374.819 139.236 391.443 147.605 408.456 155.069C416.97 158.801 425.565 162.307 434.273 165.554C442.981 168.785 451.786 171.774 460.672 174.456C469.574 177.138 478.54 179.529 487.604 181.581C496.667 183.632 505.795 185.377 514.972 186.767C524.165 188.156 533.39 189.206 542.663 189.869C551.921 190.531 561.21 190.87 570.5 190.806C575.137 190.773 579.79 190.66 584.427 190.45L587.9 190.272L591.374 190.062L594.847 189.852C596.01 189.788 597.157 189.675 598.321 189.594C607.594 188.899 616.835 187.93 626.044 186.67C644.462 184.149 662.718 180.434 680.603 175.377C689.537 172.84 698.391 169.997 707.115 166.782C715.823 163.551 724.434 159.996 732.835 156.054C749.686 148.202 765.842 138.832 780.883 127.91C788.396 122.434 795.634 116.569 802.452 110.252C805.877 107.102 809.188 103.838 812.371 100.445C813.971 98.7488 815.522 97.0202 817.04 95.2592C818.543 93.4982 820.029 91.6887 821.402 89.8146L821.435 89.7823Z" fill="url(#paint3_linear_4670_190018)"/>
<path id="Vector_4" transform="translate(582.969 146.12)" d="M4.6691 9.33816C7.24776 9.33816 9.33816 7.24771 9.33816 4.66905C9.33816 2.09039 7.24776 0 4.6691 0C2.09044 0 0 2.09039 0 4.66905C0 7.24771 2.09044 9.33816 4.6691 9.33816Z" fill="#218CFF"/>
<path id="Vector_5" transform="translate(447.304 82.6875)" d="M6.4301 3.21502C6.4301 1.43787 4.99221 0 3.21505 0C1.43789 0 0 1.43787 0 3.21502C0 4.99218 1.43789 6.43005 3.21505 6.43005C4.99221 6.43005 6.4301 4.99218 6.4301 3.21502Z" fill="#FCC6E8"/>
<path id="Vector_6" transform="translate(854.294 125.824)" d="M6.43005 3.21502C6.43005 1.43787 4.99218 0 3.21502 0C1.43787 0 0 1.43787 0 3.21502C0 4.99218 1.43787 6.4301 3.21502 6.4301C4.99218 6.4301 6.43005 4.99218 6.43005 3.21502Z" fill="#218CFF"/>
<path id="Vector_7" transform="translate(950.404 107.309)" d="M6.36546 12.7309C9.88101 12.7309 12.7309 9.88101 12.7309 6.36546C12.7309 2.84992 9.88101 0 6.36546 0C2.84992 0 0 2.84992 0 6.36546C0 9.88101 2.84992 12.7309 6.36546 12.7309Z" fill="#218CFF"/>
<path id="Vector_8" opacity="0.2" transform="translate(502.404 176.059)" d="M7 3.25001C7 1.45245 5.43585 0 3.5 0C1.56415 0 0 1.45245 0 3.25001C0 5.04758 1.56415 6.5 3.5 6.5C5.43585 6.5 7 5.04758 7 3.25001Z" fill="#84FBF7"/>
</g>
</g>
</g>
<defs>
<linearGradient id="paint0_linear_4670_190018" x1="2.54938e-07" y1="181.5" x2="200" y2="193" gradientUnits="userSpaceOnUse">
<stop stop-color="#D9D9D9"/>
<stop offset="1" stop-color="#737373" stop-opacity="0"/>
</linearGradient>
<linearGradient id="paint1_linear_4670_190018" x1="1060.64" y1="159.641" x2="6.17156" y2="75.4199" gradientUnits="userSpaceOnUse">
<stop stop-color="#D4F7FF"/>
<stop offset="1" stop-color="#26FFED"/>
</linearGradient>
<linearGradient id="paint2_linear_4670_190018" x1="0" y1="79.4875" x2="1172.08" y2="79.4875" gradientUnits="userSpaceOnUse">
<stop stop-color="#D4E9FF"/>
<stop offset="1" stop-color="#268FFF"/>
</linearGradient>
<linearGradient id="paint3_linear_4670_190018" x1="0" y1="95.9862" x2="821.435" y2="95.9862" gradientUnits="userSpaceOnUse">
<stop stop-color="#D4E9FF"/>
<stop offset="1" stop-color="#268FFF"/>
</linearGradient>
<clipPath id="clip0_4670_190018">
<rect width="375" height="570" fill="white"/>
</clipPath>
</defs>
</svg>
