<svg width="1920" height="800" viewBox="0 0 1920 800" fill="none" xmlns="http://www.w3.org/2000/svg">
<style>
@keyframes kf_Vector_transform_0 {
  0% {
    animation-timing-function: cubic-bezier(0.5, 0, 0.5, 1);
    transform: translateX(165.308px) translate(1066.645px, 243.06px) rotate(0rad) translate(-1066.645px, -243.06px);
  }
  50% {
    transform: translateX(165.308px) translate(1066.645px, 243.06px) rotate(0.052rad) translate(-1066.645px, -243.06px);
  }
  100% {
    transform: translateX(165.308px) translate(1066.645px, 243.06px) rotate(0rad) translate(-1066.645px, -243.06px);
  }
}
#Vector {
  transform-origin: 0 0;
  animation: kf_Vector_transform_0 10s linear infinite;
}
@keyframes kf_Vector_2_transform_0 {
  0% {
    transform: translateY(114.554px) translate(1172.084px, 158.975px) rotate(0rad) translate(-1172.084px, -158.975px);
  }
  50% {
    animation-timing-function: cubic-bezier(0.5, 0, 0.5, 1);
    transform: translateY(114.554px) translate(1172.084px, 158.975px) rotate(-0.07rad) translate(-1172.084px, -158.975px);
  }
  100% {
    transform: translateY(114.554px) translate(1172.084px, 158.975px) rotate(0rad) translate(-1172.084px, -158.975px);
  }
}
#Vector_2 {
  transform-origin: 0 0;
  animation: kf_Vector_2_transform_0 10s linear infinite;
}
@keyframes kf_Vector_3_transform_0 {
  0% {
    animation-timing-function: cubic-bezier(0.5, 0, 0.5, 1);
    transform: translateX(260.984px) translateY(72.283px) translate(821.435px, 191.929px) rotate(0rad) translate(-821.435px, -191.929px);
  }
  50% {
    animation-timing-function: cubic-bezier(0.5, 0, 0.5, 1);
    transform: translateX(260.984px) translateY(72.283px) translate(821.435px, 191.929px) rotate(0.07rad) translate(-821.435px, -191.929px);
  }
  100% {
    transform: translateX(260.984px) translateY(72.283px) translate(821.435px, 191.929px) rotate(0rad) translate(-821.435px, -191.929px);
  }
}
#Vector_3 {
  transform-origin: 0 0;
  animation: kf_Vector_3_transform_0 10s linear infinite;
}
@keyframes kf_Vector_5_transform_0 {
  0% {
    animation-timing-function: ease-out;
    transform: translateX(833.132px) translateY(146.123px) translateX(0px) translateY(0px);
  }
  25% {
    transform: translateX(833.132px) translateY(146.123px) translateX(0px) translateY(-32.502px);
  }
  50% {
    transform: translateX(833.132px) translateY(146.123px) translateX(0px) translateY(16.498px);
  }
  76.99% {
    transform: translateX(833.132px) translateY(146.123px) translateX(0px) translateY(0px);
  }
  100% {
    transform: translateX(833.132px) translateY(146.123px) translateX(0px) translateY(0px);
  }
}
#Vector_5 {
  transform-origin: 0 0;
  animation: kf_Vector_5_transform_0 10s linear infinite;
}
@keyframes kf_Vector_6_transform_0 {
  0% {
    transform: translateX(711.8px) translateY(169.258px) translateX(0px) translateY(0px);
  }
  37.25% {
    transform: translateX(711.8px) translateY(169.258px) translateX(0px) translateY(21.363px);
  }
  70% {
    transform: translateX(711.8px) translateY(169.258px) translateX(9.765px) translateY(12.363px);
  }
  100% {
    transform: translateX(711.8px) translateY(169.258px) translateX(0px) translateY(0px);
  }
}
#Vector_6 {
  transform-origin: 0 0;
  animation: kf_Vector_6_transform_0 10s linear infinite;
}
@keyframes kf_Vector_8_transform_0 {
  0% {
    transform: translateX(2087.999px) translateY(218.501px) translateX(0px) translateY(0px);
  }
  25% {
    animation-timing-function: ease-out;
    transform: translateX(2087.999px) translateY(218.501px) translateX(10px) translateY(-20.001px);
  }
  50% {
    animation-timing-function: ease-in;
    transform: translateX(2087.999px) translateY(218.501px) translateX(0px) translateY(-40.002px);
  }
  75% {
    transform: translateX(2087.999px) translateY(218.501px) translateX(-20px) translateY(-5.002px);
  }
  100% {
    transform: translateX(2087.999px) translateY(218.501px) translateX(-14.433px) translateY(29.998px);
  }
}
#Vector_8 {
  transform-origin: 0 0;
  animation: kf_Vector_8_transform_0 10s linear infinite;
}
</style>
<g id="banner_theapp-d" clip-path="url(#clip0_4478_61028)">
<rect width="1920" height="800" fill="url(#paint0_linear_4478_61028)"/>
<g id="back-line" transform="translate(2206.17 1005.58) rotate(-180)">
<path id="Vector" transform="translate(165.308)" d="M1824.37 51.4804C1830.41 47.4091 1836.71 43.6933 1843.07 40.1067C1849.44 36.5523 1855.93 33.1918 1862.53 30.0252C1875.68 23.6921 1889.25 18.1345 1903.11 13.5462C1916.97 8.95793 1931.19 5.30668 1945.63 2.9479C1960.08 0.58913 1974.75 -0.477184 1989.38 0.201367C2004.02 0.879918 2018.59 3.27096 2032.58 7.73001C2046.54 12.1891 2059.89 18.6515 2072.04 26.8587C2075.07 28.9267 2078.05 31.0593 2080.96 33.3211C2083.83 35.583 2086.67 37.9094 2089.32 40.462C2094.66 45.535 2099.44 51.1573 2103.67 57.1674C2112.14 69.1874 2118.53 82.5645 2123.19 96.491C2127.84 110.417 2130.78 124.861 2132.23 139.434C2133.69 154.039 2133.62 168.773 2132.14 183.346C2129.13 212.491 2120.25 241.119 2105.58 266.581C2098.27 279.312 2089.49 291.203 2079.5 301.93C2069.52 312.69 2058.27 322.287 2046.16 330.526C2034.04 338.798 2021.02 345.746 2007.48 351.4C2000.69 354.211 1993.81 356.732 1986.8 358.929C1979.79 361.126 1972.68 362.935 1965.47 364.357C1951.09 367.233 1936.42 368.655 1921.75 368.849C1907.08 369.042 1892.45 368.041 1877.91 366.264C1863.37 364.454 1848.96 361.869 1834.64 358.799C1820.36 355.698 1806.14 352.143 1792.05 348.298C1763.85 340.576 1735.96 331.819 1708.14 322.966C1680.32 314.08 1652.53 305.097 1624.68 296.373C1610.75 292.011 1596.79 287.713 1582.8 283.545C1568.81 279.377 1554.85 274.95 1540.96 270.491C1513.14 261.573 1485.38 252.59 1457.37 244.415C1429.35 236.208 1401.14 228.744 1372.64 222.475C1344.18 216.175 1315.42 211.069 1286.5 207.386C1228.66 199.986 1169.98 198.629 1111.95 204.478C1097.44 205.932 1083 207.838 1068.59 210.164C1054.21 212.491 1039.9 215.334 1025.68 218.533C1022.12 219.373 1018.57 220.117 1015.02 221.021L1004.42 223.671C997.373 225.545 990.329 227.387 983.35 229.487C976.338 231.458 969.391 233.72 962.444 235.885C955.529 238.211 948.615 240.473 941.764 242.961C938.339 244.189 934.882 245.385 931.489 246.709L921.279 250.587C914.525 253.333 907.708 255.951 901.019 258.859C887.577 264.546 874.297 270.556 861.275 277.115C835.232 290.233 809.964 304.903 784.858 319.799C759.751 334.727 734.839 349.946 709.7 364.777C684.561 379.641 659.164 394.117 633.282 407.655C607.4 421.194 581.001 433.796 553.924 444.814C526.846 455.832 499.091 465.267 470.721 472.279C442.351 479.323 413.335 483.976 384.157 485.527C354.947 487.11 325.608 485.527 296.753 480.745C267.898 475.963 239.658 467.852 212.483 457.092C198.912 451.664 185.6 445.622 172.578 438.966C159.589 432.309 146.89 425.071 134.482 417.349C109.667 401.904 86.176 384.423 63.8161 365.65C41.4563 346.876 20.2273 326.746 0 305.679C20.2919 326.649 41.5855 346.715 63.9777 365.456C86.4022 384.164 109.925 401.548 134.741 416.929C147.149 424.619 159.847 431.825 172.837 438.449C185.826 445.073 199.171 451.082 212.71 456.446C239.852 467.141 268.06 475.187 296.882 479.872C325.672 484.622 354.979 486.109 384.092 484.461C413.205 482.845 442.125 478.16 470.43 471.051C498.735 463.975 526.394 454.54 553.407 443.489C580.42 432.471 606.754 419.837 632.604 406.266C658.453 392.695 683.786 378.219 708.924 363.323C734.063 348.46 758.943 333.208 784.017 318.248C809.124 303.32 834.392 288.586 860.468 275.402C873.522 268.778 886.834 262.736 900.276 257.017C906.964 254.076 913.782 251.427 920.568 248.68L930.811 244.771C934.203 243.446 937.661 242.218 941.118 240.99C996.146 221.183 1053.56 207.935 1111.79 202.151C1170.02 196.238 1228.86 197.563 1286.86 204.93C1315.87 208.581 1344.69 213.719 1373.23 219.987C1401.79 226.256 1430.06 233.72 1458.11 241.927C1486.16 250.102 1513.98 259.085 1541.8 267.971C1555.69 272.43 1569.62 276.824 1583.61 280.96C1597.6 285.128 1611.56 289.426 1625.52 293.788C1653.4 302.512 1681.16 311.559 1708.98 320.478C1736.8 329.363 1764.62 338.152 1792.76 345.875C1806.82 349.752 1820.97 353.306 1835.22 356.408C1849.47 359.51 1863.82 362.095 1878.26 363.905C1892.71 365.714 1907.25 366.716 1921.79 366.522C1936.33 366.361 1950.83 364.971 1965.08 362.128C1972.19 360.706 1979.27 358.929 1986.18 356.764C1993.13 354.599 1999.95 352.111 2006.67 349.332C2020.08 343.774 2032.97 336.892 2044.99 328.717C2057.01 320.542 2068.13 311.075 2078.05 300.476C2087.93 289.846 2096.63 278.084 2103.9 265.515C2118.47 240.344 2127.32 211.974 2130.33 183.087C2131.85 168.611 2131.91 154.006 2130.49 139.531C2129.07 125.055 2126.16 110.708 2121.57 96.9434C2116.98 83.1785 2110.68 69.8982 2102.35 58.0074C2098.18 52.062 2093.46 46.5044 2088.23 41.4961C2085.61 38.9757 2082.83 36.6816 2079.99 34.4197C2077.14 32.1579 2074.2 30.0253 2071.2 27.9897C2059.21 19.7824 2045.99 13.3523 2032.16 8.89329C2018.33 4.43424 2003.86 1.91386 1989.35 1.17069C1974.81 0.427511 1960.21 1.39693 1945.79 3.65877C1931.38 5.92061 1917.2 9.47487 1903.34 13.9985C1889.47 18.4899 1875.9 23.983 1862.72 30.2192C1856.13 33.3212 1849.6 36.6492 1843.2 40.1712C1836.81 43.6933 1830.51 47.3768 1824.4 51.3835L1824.37 51.4804Z" fill="url(#paint1_linear_4478_61028)"/>
<path id="Vector_2" transform="translate(0 114.554)" d="M0 0C5.04067 4.26518 10.3398 8.17494 15.7359 11.9231C21.132 15.7036 26.6897 19.2579 32.2797 22.7153C43.5242 29.5978 55.1242 35.8663 66.9827 41.5855C90.6997 53.0562 115.483 62.2975 140.88 69.3738C166.277 76.3855 192.256 81.3293 218.461 83.9789C244.666 86.6608 271.097 87.1454 297.367 85.6267C323.669 84.1404 349.809 80.4891 375.627 75.2223C388.519 72.605 401.315 69.4061 414.013 65.9487C420.346 64.2039 426.68 62.3622 433.045 60.5527C439.378 58.7755 445.744 56.9984 452.109 55.2858C503.033 41.6179 554.764 30.5348 607.239 24.5571C633.476 21.6167 659.843 19.9042 686.242 19.9042C712.64 19.8719 739.039 21.5521 765.244 25.0095C778.331 26.7544 791.352 28.9839 804.309 31.6334C817.234 34.3153 830.094 37.4496 842.793 41.0039C855.524 44.5582 868.093 48.5973 880.533 52.9917C892.974 57.4184 905.284 62.2329 917.434 67.4028C929.583 72.605 941.538 78.1627 953.365 84.0435C965.191 89.9565 976.823 96.0958 988.585 102.073C1012.08 114.029 1035.73 125.629 1059.57 136.874C1107.23 159.33 1155.61 180.365 1204.65 199.591C1253.7 218.817 1303.5 236.201 1353.9 251.484C1379.11 259.11 1404.5 266.154 1430.03 272.616C1455.56 279.078 1481.25 284.959 1507.09 290.065C1532.91 295.202 1558.89 299.694 1584.97 303.377C1597.99 305.251 1611.07 306.867 1624.16 308.321C1637.25 309.775 1650.37 311.003 1663.48 312.037C1715.99 316.14 1768.79 316.819 1821.33 313.329C1834.48 312.424 1847.6 311.293 1860.68 309.904C1873.77 308.515 1886.82 306.77 1899.85 304.799C1912.87 302.796 1925.83 300.534 1938.75 297.949C1951.64 295.364 1964.5 292.456 1977.27 289.257C2028.32 276.429 2078.18 258.463 2125.19 234.682C2148.68 222.791 2171.43 209.414 2193.17 194.55C2204.03 187.086 2214.63 179.267 2224.91 171.027C2235.18 162.788 2245.13 154.16 2254.73 145.145C2273.89 127.083 2291.56 107.373 2306.91 85.9822C2314.57 75.2546 2321.68 64.1393 2327.98 52.5716C2334.28 41.0039 2339.81 28.9838 2344.17 16.5437C2339.87 29.0161 2334.41 41.0686 2328.17 52.6686C2321.94 64.3009 2314.89 75.4808 2307.27 86.2406C2291.98 107.728 2274.37 127.535 2255.25 145.727C2245.68 154.807 2235.73 163.499 2225.49 171.803C2215.21 180.075 2204.65 187.991 2193.79 195.487C2172.07 210.48 2149.33 223.987 2125.8 235.942C2078.76 259.918 2028.84 278.044 1977.69 291.034C1964.89 294.297 1952.03 297.206 1939.11 299.855C1926.18 302.472 1913.19 304.767 1900.14 306.802C1887.08 308.806 1874.03 310.583 1860.91 312.037C1847.79 313.491 1834.64 314.654 1821.49 315.591C1768.82 319.21 1715.89 318.531 1663.29 314.46C1650.14 313.426 1636.99 312.198 1623.87 310.744C1610.75 309.258 1597.67 307.675 1584.61 305.801C1558.47 302.149 1532.46 297.658 1506.58 292.553C1480.7 287.447 1454.94 281.599 1429.38 275.136C1403.79 268.674 1378.36 261.63 1353.13 254.037C1302.62 238.785 1252.8 221.24 1203.72 201.982C1154.6 182.692 1106.23 161.625 1058.54 139.103C1034.69 127.826 1011.01 116.226 987.518 104.238C975.757 98.2607 964.092 92.0892 952.331 86.2084C940.537 80.3276 928.614 74.8022 916.529 69.6C892.327 59.2602 867.512 50.342 842.179 43.2011C829.513 39.6468 816.75 36.4803 803.857 33.7984C790.965 31.1165 778.008 28.9193 764.953 27.1421C738.878 23.6201 712.544 21.9075 686.242 21.9075C659.907 21.8429 633.605 23.4908 607.433 26.3989C555.087 32.2474 503.388 43.2011 452.464 56.7721C446.099 58.4847 439.734 60.1973 433.4 61.9744C427.067 63.7516 420.734 65.5933 414.369 67.3059C401.638 70.7633 388.81 73.9299 375.885 76.5148C350.036 81.717 323.798 85.3036 297.464 86.7253C271.13 88.1793 244.666 87.5978 218.429 84.8513C192.192 82.137 166.18 77.1287 140.783 70.0201C115.418 62.8468 90.6028 53.541 66.9181 41.9733C55.0596 36.1895 43.4919 29.8886 32.2473 22.9415C26.6574 19.4841 21.132 15.8652 15.7359 12.0847C10.3398 8.30424 5.04067 4.36211 0.032312 0.096932L0 0Z" fill="url(#paint2_linear_4478_61028)"/>
<path id="Vector_3" transform="translate(260.984 72.2826)" d="M1642.87 179.565C1640.16 183.345 1637.21 186.964 1634.24 190.518C1631.24 194.073 1628.14 197.562 1625 200.955C1618.67 207.773 1612.08 214.365 1605.29 220.73C1591.69 233.461 1577.28 245.255 1562.28 256.306C1532.27 278.375 1499.99 297.309 1466.32 313.207C1464.22 314.209 1462.12 315.178 1459.98 316.147L1453.62 319.023C1449.35 320.865 1445.09 322.804 1440.79 324.548L1434.36 327.23L1427.87 329.815L1424.63 331.108L1421.37 332.368L1414.84 334.856C1397.4 341.351 1379.66 347.134 1361.76 352.24C1325.92 362.483 1289.38 370.044 1252.48 375.246C1234.03 377.831 1215.51 379.834 1196.93 381.288C1194.61 381.482 1192.28 381.676 1189.95 381.837L1182.97 382.29L1175.99 382.742L1169.01 383.098C1159.71 383.518 1150.4 383.776 1141.06 383.841C1122.42 383.97 1103.78 383.356 1085.2 382.031C1066.62 380.707 1048.07 378.606 1029.65 375.86C1011.24 373.081 992.914 369.624 974.723 365.52C956.531 361.416 938.533 356.602 920.665 351.27C902.829 345.907 885.154 339.929 867.673 333.466C850.192 326.972 832.938 319.96 815.877 312.496C781.756 297.503 748.474 280.669 716.001 262.445C699.748 253.333 683.721 243.865 667.824 234.139C651.959 224.414 636.223 214.462 620.519 204.477C589.144 184.476 557.866 164.281 526.168 144.829C510.335 135.103 494.373 125.539 478.249 116.233C462.158 106.927 445.905 97.9123 429.426 89.2526C396.532 71.9658 362.799 56.1652 328.096 42.8204C293.393 29.5078 257.72 18.6187 221.272 11.3162C184.857 3.98139 147.633 0.200858 110.442 0.782473C91.8629 1.04097 73.2835 2.36583 54.8334 4.78922C36.3833 7.18031 18.0624 10.6054 0 15.0644C18.0301 10.4761 36.3187 6.92173 54.7688 4.4014C73.2189 1.88106 91.7983 0.459381 110.41 0.10395C147.666 -0.671537 184.954 2.91508 221.499 10.0883C258.076 17.2616 293.877 28.0538 328.677 41.3017C363.51 54.5496 397.34 70.2855 430.363 87.5078C446.874 96.1351 463.192 105.118 479.348 114.359C495.504 123.633 511.466 133.197 527.331 142.923C559.094 162.375 590.372 182.537 621.779 202.506C637.483 212.49 653.219 222.41 669.084 232.104C684.949 241.797 700.976 251.233 717.196 260.312C749.638 278.472 782.887 295.209 816.911 310.137C833.94 317.601 851.13 324.613 868.546 331.108C885.962 337.57 903.572 343.548 921.343 348.912C939.147 354.275 957.08 359.058 975.207 363.161C993.334 367.265 1011.59 370.755 1029.94 373.533C1048.33 376.312 1066.78 378.412 1085.33 379.737C1103.84 381.062 1122.42 381.741 1141 381.611C1150.27 381.547 1159.58 381.321 1168.85 380.9L1175.8 380.545L1182.75 380.125L1189.69 379.705C1192.02 379.576 1194.31 379.35 1196.64 379.188C1215.19 377.799 1233.67 375.86 1252.09 373.339C1288.92 368.299 1325.44 360.867 1361.21 350.753C1379.07 345.68 1396.78 339.994 1414.23 333.563C1431.65 327.101 1448.87 319.992 1465.67 312.108C1499.37 296.405 1531.68 277.664 1561.77 255.821C1576.79 244.867 1591.27 233.138 1604.9 220.504C1611.75 214.203 1618.38 207.676 1624.74 200.89C1627.94 197.498 1631.04 194.04 1634.08 190.518C1637.09 186.996 1640.06 183.377 1642.8 179.629L1642.87 179.565Z" fill="url(#paint3_linear_4478_61028)"/>
<path id="Vector_4" transform="translate(1039.1 187.999)" d="M4.70868 0C3.22233 8.23955 2.28521 16.576 1.60666 24.9125C0.928108 33.249 0.540411 41.6178 0.443475 49.9866C0.249604 66.7242 1.18669 83.4618 3.41622 100.07C4.51483 108.374 5.96885 116.614 7.74601 124.756L8.42453 127.826L9.16775 130.863C9.65243 132.899 10.1371 134.935 10.6864 136.938C11.785 140.977 13.0451 144.951 14.4345 148.893C20.0568 164.597 28.2318 179.428 38.7978 192.321C49.3638 205.213 62.2886 216.135 76.6997 224.504C91.1109 232.905 106.879 238.785 123.1 242.727C139.32 246.637 155.993 248.544 172.666 249.093C181.003 249.351 189.372 249.287 197.708 248.931C206.044 248.576 214.381 247.962 222.685 247.025C230.989 246.056 239.229 244.86 247.468 243.374C251.604 242.695 255.676 241.855 259.779 241.08C263.883 240.239 267.987 239.432 272.058 238.527C288.408 235.005 304.661 231.063 320.881 226.895C353.29 218.526 385.473 209.252 417.559 199.72C481.763 180.624 545.611 160.429 609.653 140.783C641.674 130.928 673.76 121.299 705.911 111.896C722.002 107.211 738.093 102.59 754.217 98.0345C770.341 93.5108 786.497 89.0841 802.717 84.8189C835.094 76.2239 867.664 68.2106 900.429 61.1343C916.811 57.6123 933.258 54.3487 949.769 51.4729C966.281 48.5972 982.889 46.1092 999.562 44.2674C1016.23 42.4256 1033 41.1978 1049.77 41.1008C1066.54 41.0039 1083.35 41.7794 1100.02 43.3304C1108.36 44.1705 1116.69 45.1398 1125 46.4969C1129.13 47.1108 1133.27 47.9186 1137.4 48.6295C1141.51 49.4696 1145.64 50.2774 1149.72 51.2467C1166.07 54.9626 1182.16 60.0356 1197.63 66.5627C1213.08 73.122 1227.88 81.3292 1241.35 91.3459C1248.07 96.3542 1254.5 101.815 1260.45 107.728C1266.36 113.673 1271.92 120.007 1276.83 126.824C1279.32 130.217 1281.61 133.739 1283.81 137.294C1285.98 140.912 1288.01 144.564 1289.85 148.312C1291.69 152.092 1293.37 155.938 1294.89 159.847C1296.38 163.757 1297.7 167.764 1298.84 171.803C1301.1 179.881 1302.52 188.185 1302.97 196.554C1303.39 204.922 1302.91 213.388 1300.52 221.434C1302.81 213.356 1303.23 204.89 1302.74 196.554C1302.23 188.217 1300.71 179.945 1298.42 171.9C1297.25 167.893 1295.93 163.919 1294.41 160.041C1292.89 156.164 1291.14 152.351 1289.3 148.603C1287.43 144.855 1285.36 141.236 1283.2 137.649C1280.97 134.127 1278.67 130.637 1276.18 127.277C1271.24 120.556 1265.68 114.255 1259.77 108.407C1253.82 102.558 1247.39 97.1621 1240.67 92.2184C1227.2 82.3309 1212.43 74.2852 1197.05 67.8228C1181.64 61.3604 1165.61 56.4166 1149.33 52.7654C1145.26 51.796 1141.15 51.0206 1137.05 50.2128C1132.95 49.502 1128.84 48.7264 1124.71 48.1125C1116.47 46.82 1108.16 45.8507 1099.83 45.0752C1083.19 43.5889 1066.45 42.878 1049.74 43.0396C1033.04 43.2334 1016.36 44.4936 999.756 46.3677C983.147 48.2741 966.604 50.8267 950.124 53.7025C933.645 56.5782 917.231 59.8417 900.881 63.3961C868.181 70.5047 835.676 78.5504 803.331 87.1454C738.61 104.368 674.471 123.69 610.429 143.271C546.386 162.852 482.473 182.95 418.237 201.982C386.119 211.482 353.904 220.691 321.431 229.059C305.21 233.228 288.892 237.17 272.51 240.627C268.407 241.5 264.303 242.307 260.199 243.115C256.063 243.858 251.96 244.699 247.824 245.377C239.552 246.831 231.248 248.027 222.911 248.964C214.575 249.901 206.174 250.482 197.805 250.805C189.404 251.129 181.003 251.193 172.634 250.87C155.864 250.256 139.094 248.253 122.744 244.278C106.427 240.272 90.5292 234.262 76.0211 225.731C61.513 217.233 48.459 206.183 37.8607 193.096C27.2624 180.01 19.1198 165.05 13.5298 149.184C12.1404 145.21 10.9125 141.203 9.81393 137.164C9.26462 135.129 8.81225 133.093 8.29526 131.057L7.58439 127.988L6.93821 124.918C5.19337 116.711 3.80389 108.439 2.7376 100.135C0.605008 83.4941 -0.23506 66.7242 0.0557476 49.9866C0.217307 41.6178 0.66962 33.249 1.41279 24.9125C2.18828 16.576 3.1577 8.23958 4.70868 0.0323435V0Z" fill="url(#paint4_linear_4478_61028)"/>
<path id="Vector_5" transform="translate(833.132 146.123)" d="M9.33821 18.6763C14.4955 18.6763 18.6763 14.4954 18.6763 9.33811C18.6763 4.18078 14.4955 0 9.33821 0C4.18088 0 0 4.18078 0 9.33811C0 14.4954 4.18088 18.6763 9.33821 18.6763Z" fill="#218CFF"/>
<path id="Vector_6" transform="translate(711.8 169.258)" d="M12.8602 6.43005C12.8602 2.87573 9.98442 0 6.4301 0C2.87578 0 0 2.87573 0 6.43005C0 9.98437 2.87578 12.8601 6.4301 12.8601C9.98442 12.8601 12.8602 9.98437 12.8602 6.43005Z" fill="#FCC6E8"/>
<path id="Vector_7" transform="translate(2245.78 255.531)" d="M12.8601 6.43005C12.8601 2.87573 9.98437 0 6.43005 0C2.87573 0 0 2.87573 0 6.43005C0 9.98437 2.87573 12.8602 6.43005 12.8602C9.98437 12.8602 12.8601 9.98437 12.8601 6.43005Z" fill="#218CFF"/>
<path id="Vector_8" transform="translate(2088 218.501)" d="M12.7309 25.4618C19.762 25.4618 25.4618 19.762 25.4618 12.7309C25.4618 5.69983 19.762 0 12.7309 0C5.69983 0 0 5.69983 0 12.7309C0 19.762 5.69983 25.4618 12.7309 25.4618Z" fill="#218CFF"/>
<path id="Vector_9" transform="translate(1014.63 347.911)" d="M29.2099 14.6051C29.2099 6.52708 22.683 0 14.605 0C6.52698 0 0 6.52708 0 14.6051C0 22.6831 6.52698 29.21 14.605 29.21C22.683 29.21 29.2099 22.6831 29.2099 14.6051Z" fill="#84FBF7"/>
</g>
</g>
<defs>
<linearGradient id="paint0_linear_4478_61028" x1="0.000114441" y1="800" x2="1920" y2="0.000190735" gradientUnits="userSpaceOnUse">
<stop stop-color="#00327B"/>
<stop offset="0.495998" stop-color="#072756"/>
<stop offset="0.802062" stop-color="#072756"/>
<stop offset="1" stop-color="#001B43"/>
</linearGradient>
<linearGradient id="paint1_linear_4478_61028" x1="2121.28" y1="319.282" x2="12.3431" y2="150.84" gradientUnits="userSpaceOnUse">
<stop stop-color="#D4F7FF"/>
<stop offset="1" stop-color="#26FFED"/>
</linearGradient>
<linearGradient id="paint2_linear_4478_61028" x1="0" y1="158.975" x2="2344.17" y2="158.975" gradientUnits="userSpaceOnUse">
<stop stop-color="#D4E9FF"/>
<stop offset="1" stop-color="#268FFF"/>
</linearGradient>
<linearGradient id="paint3_linear_4478_61028" x1="0" y1="191.972" x2="1642.87" y2="191.972" gradientUnits="userSpaceOnUse">
<stop stop-color="#D4E9FF"/>
<stop offset="1" stop-color="#268FFF"/>
</linearGradient>
<linearGradient id="paint4_linear_4478_61028" x1="-0.00887832" y1="125.564" x2="1305.56" y2="125.564" gradientUnits="userSpaceOnUse">
<stop stop-color="#D4E9FF"/>
<stop offset="1" stop-color="#268FFF"/>
</linearGradient>
<clipPath id="clip0_4478_61028">
<rect width="1920" height="800" fill="white"/>
</clipPath>
</defs>
</svg>
