<svg width="40" height="40" viewBox="0 0 40 40" fill="none" xmlns="http://www.w3.org/2000/svg">
<style>
@keyframes kf_dollar_transform_0 {
  0% {
    transform: translateX(13px) translateY(12.5px) translateX(0px) translateY(0px);
  }
  18.75% {
    transform: translateX(13px) translateY(12.5px) translateX(0px) translateY(0px);
  }
  37.5% {
    transform: translateX(13px) translateY(12.5px) translateX(0px) translateY(3px);
  }
  56.25% {
    transform: translateX(13px) translateY(12.5px) translateX(0px) translateY(-2px);
  }
  75% {
    transform: translateX(13px) translateY(12.5px) translateX(0px) translateY(0px);
  }
  100% {
    transform: translateX(13px) translateY(12.5px) translateX(0px) translateY(0px);
  }
}
#dollar {
  transform-origin: 0 0;
  animation: kf_dollar_transform_0 2s linear infinite;
}
</style>
<g id="ani_help_fees" clip-path="url(#clip0_3858_165377)">
<g id="dollar" transform="translate(13 12.5)">
<path id="Vector" transform="translate(7)" d="M0 17V0" stroke="#FF5400" stroke-width="2" stroke-linecap="round" stroke-linejoin="round"/>
<path id="Vector_2" transform="translate(0 1)" d="M14 0H3.5C2.57174 0 1.6815 0.36875 1.02513 1.02513C0.36875 1.6815 0 2.57174 0 3.5C0 4.42826 0.36875 5.3185 1.02513 5.97487C1.6815 6.63125 2.57174 7 3.5 7H10.5C11.4283 7 12.3185 7.36875 12.9749 8.02513C13.6313 8.6815 14 9.57174 14 10.5C14 11.4283 13.6313 12.3185 12.9749 12.9749C12.3185 13.6313 11.4283 14 10.5 14H0" stroke="#FF5400" stroke-width="2" stroke-linecap="round" stroke-linejoin="round"/>
</g>
<path id="Vector_3" transform="translate(6 2.5)" d="M0 1.75717C0 1.29325 0.184375 0.848336 0.512563 0.520297C0.840752 0.192258 1.28587 0.00796739 1.75 0.00796739C2.18333 0.00558561 2.60833 0.126959 2.975 0.357808L4.60775 1.40733C4.97356 1.64098 5.39863 1.76514 5.83275 1.76514C6.26687 1.76514 6.69194 1.64098 7.05775 1.40733L8.69225 0.357808C9.05806 0.124155 9.48313 0 9.91725 0C10.3514 0 10.7764 0.124155 11.1422 0.357808L12.775 1.40733C13.1408 1.64098 13.5659 1.76514 14 1.76514C14.4341 1.76514 14.8592 1.64098 15.225 1.40733L16.8578 0.357808C17.2236 0.124155 17.6486 0 18.0828 0C18.5169 0 18.9419 0.124155 19.3077 0.357808L20.9423 1.40733C21.3081 1.64098 21.7331 1.76514 22.1672 1.76514C22.6014 1.76514 23.0264 1.64098 23.3923 1.40733L25.025 0.357808C25.3917 0.126959 25.8167 0.00558561 26.25 0.00796739C26.7141 0.00796739 27.1592 0.192258 27.4874 0.520297C27.8156 0.848336 28 1.29325 28 1.75717V33.2428C28 33.7067 27.8156 34.1517 27.4874 34.4797C27.1592 34.8077 26.7141 34.992 26.25 34.992C25.8167 34.9944 25.3917 34.873 25.025 34.6422L23.3923 33.5927C23.0264 33.359 22.6014 33.2349 22.1672 33.2349C21.7331 33.2349 21.3081 33.359 20.9423 33.5927L19.3077 34.6422C18.9419 34.8758 18.5169 35 18.0828 35C17.6486 35 17.2236 34.8758 16.8578 34.6422L15.225 33.5927C14.8592 33.359 14.4341 33.2349 14 33.2349C13.5659 33.2349 13.1408 33.359 12.775 33.5927L11.1422 34.6422C10.7764 34.8758 10.3514 35 9.91725 35C9.48313 35 9.05806 34.8758 8.69225 34.6422L7.05775 33.5927C6.69194 33.359 6.26687 33.2349 5.83275 33.2349C5.39863 33.2349 4.97356 33.359 4.60775 33.5927L2.975 34.6422C2.60833 34.873 2.18333 34.9944 1.75 34.992C1.28587 34.992 0.840752 34.8077 0.512563 34.4797C0.184375 34.1517 0 33.7067 0 33.2428V1.75717Z" stroke="#072756" stroke-width="2" stroke-linecap="round" stroke-linejoin="round"/>
</g>
<defs>
<clipPath id="clip0_3858_165377">
<rect width="40" height="40" fill="white"/>
</clipPath>
</defs>
</svg>
