<svg width="96" height="96" viewBox="0 0 96 96" fill="none" xmlns="http://www.w3.org/2000/svg">
<style>
@keyframes kf_Ellipse_35_transform_0 {
  0% {
    animation-timing-function: linear(0, 0.0188, 0.0679, 0.1374, 0.2195, 0.308, 0.3978, 0.4856, 0.5686, 0.6452, 0.7142, 0.7753, 0.8283, 0.8735, 0.9113, 0.9423, 0.9671, 0.9866, 1.0014, 1.0123, 1.0198, 1.0247, 1.0274, 1.0283, 1.0281, 1.0268, 1.025, 1.0227, 1.0202, 1.0177, 1.0152, 1.0128, 1.0106, 1.0085, 1.0068, 1.0052, 1.0039, 1.0028, 1.0018, 1.0011, 1.0005, 1, 0.9997, 0.9995, 0.9993, 0.9992, 0.9992, 0.9992, 0.9992, 0.9993, 0.9993);
    transform: translateX(2px) translateY(2px) translate(0px, 33px) rotate(-1.571rad) translate(0px, -33px);
  }
  20% {
    transform: translateX(2px) translateY(2px) translate(0px, 33px) rotate(0rad) translate(0px, -33px);
  }
  100% {
    transform: translateX(2px) translateY(2px) translate(0px, 33px) rotate(0rad) translate(0px, -33px);
  }
}
#Ellipse_35 {
  transform-origin: 0 0;
  animation: kf_Ellipse_35_transform_0 4s linear infinite;
}
@keyframes kf_Rectangle_118_transform_0 {
  0% {
    transform: translate(0px, 7px) scaleX(0) scaleY(1) translate(0px, -7px);
  }
  12.5% {
    animation-timing-function: cubic-bezier(0.5, 0, 0.5, 1);
    transform: translate(0px, 7px) scaleX(0) scaleY(1) translate(0px, -7px);
  }
  17.5% {
    transform: translate(0px, 7px) scaleX(1) scaleY(1) translate(0px, -7px);
  }
  100% {
    transform: translate(0px, 7px) scaleX(1) scaleY(1) translate(0px, -7px);
  }
}
#Rectangle_118 {
  transform-origin: 0 0;
  animation: kf_Rectangle_118_transform_0 4s linear infinite;
}
@keyframes kf_Rectangle_117_transform_0 {
  0% {
    transform: translate(0px, 7px) scaleX(0) scaleY(1) translate(0px, -7px);
  }
  10% {
    animation-timing-function: cubic-bezier(0.5, 0, 0.5, 1);
    transform: translate(0px, 7px) scaleX(0) scaleY(1) translate(0px, -7px);
  }
  15% {
    transform: translate(0px, 7px) scaleX(1) scaleY(1) translate(0px, -7px);
  }
  100% {
    transform: translate(0px, 7px) scaleX(1) scaleY(1) translate(0px, -7px);
  }
}
#Rectangle_117 {
  transform-origin: 0 0;
  animation: kf_Rectangle_117_transform_0 4s linear infinite;
}
@keyframes kf_Rectangle_119_transform_0 {
  0% {
    transform: translate(0px, 7px) scaleX(0) scaleY(1) translate(0px, -7px);
  }
  15% {
    animation-timing-function: cubic-bezier(0.5, 0, 0.5, 1);
    transform: translate(0px, 7px) scaleX(0) scaleY(1) translate(0px, -7px);
  }
  20% {
    transform: translate(0px, 7px) scaleX(1) scaleY(1) translate(0px, -7px);
  }
  100% {
    transform: translate(0px, 7px) scaleX(1) scaleY(1) translate(0px, -7px);
  }
}
#Rectangle_119 {
  transform-origin: 0 0;
  animation: kf_Rectangle_119_transform_0 4s linear infinite;
}
</style>
<g id="ani_insights_diversification-explained" clip-path="url(#clip0_4774_179824)">
<path id="Ellipse_34" transform="translate(3 18)" d="M66 33C66 51.2254 51.2254 66 33 66C14.7746 66 0 51.2254 0 33C0 14.7746 14.7746 0 33 0V33H66Z" stroke="#072756" stroke-width="2" stroke-linecap="round" stroke-linejoin="round"/>
<g id="Mask_group" clip-path="url(#clip1_4774_179824)" transform="translate(38 12)">
<mask id="mask0_4774_179824" style="mask-type:alpha" maskUnits="userSpaceOnUse" x="0" y="0" width="96" height="96">
<path id="Ellipse_35" transform="translate(2 2)" d="M33 33H0V0C18.2254 0 33 14.7746 33 33Z" fill="#FF5400"/>
</mask>
<g mask="url(#mask0_4774_179824)">
<g id="Ellipse_38" filter="url(#filter0_d_4774_179824)" transform="translate(2 2)">
<path d="M33 33H0V0C18.2254 0 33 14.7746 33 33Z" id="Ellipse_38_bg_0" fill="#FF5400">
</path>
</g>
</g>
</g>
<g id="Mask_group_2" clip-path="url(#clip2_4774_179824)" transform="translate(74 41)">
<mask id="mask1_4774_179824" style="mask-type:alpha" maskUnits="userSpaceOnUse" x="0" y="0" width="96" height="96">
<rect id="Rectangle_118" width="19" height="14" fill="#D9D9D9"/>
</mask>
<g mask="url(#mask1_4774_179824)">
<g id="Group_7" transform="translate(1 3)">
<path id="Ellipse_18" transform="translate(17 9) rotate(-180)" d="M4.5 1C6.433 1 8 2.567 8 4.5C8 6.433 6.433 8 4.5 8C2.567 8 1 6.433 1 4.5C1 2.567 2.567 1 4.5 1Z" stroke="#072756" stroke-width="2"/>
<path id="Vector_14" transform="matrix(-1 0 0 -1 9 4.85498)" d="M9 0H0" stroke="#072756" stroke-width="2" stroke-linecap="round"/>
</g>
</g>
</g>
<g id="Mask_group_3" clip-path="url(#clip3_4774_179824)" transform="translate(73 27)">
<mask id="mask2_4774_179824" style="mask-type:alpha" maskUnits="userSpaceOnUse" x="0" y="0" width="96" height="96">
<rect id="Rectangle_117" width="19" height="14" fill="#D9D9D9"/>
</mask>
<g mask="url(#mask2_4774_179824)">
<g id="Group_6" transform="translate(2 2)">
<path id="Ellipse_36" transform="translate(17 9) rotate(-180)" d="M4.5 1C6.433 1 8 2.567 8 4.5C8 6.433 6.433 8 4.5 8C2.567 8 1 6.433 1 4.5C1 2.567 2.567 1 4.5 1Z" stroke="#072756" stroke-width="2"/>
<path id="Vector_15" transform="matrix(-1 0 0 -1 9 8.85498)" d="M9 0L6.09762 3.31701C5.71784 3.75104 5.16919 4 4.59246 4H0" stroke="#072756" stroke-width="2" stroke-linecap="round"/>
</g>
</g>
</g>
<g id="Mask_group_4" clip-path="url(#clip4_4774_179824)" transform="translate(74 56)">
<mask id="mask3_4774_179824" style="mask-type:alpha" maskUnits="userSpaceOnUse" x="0" y="0" width="96" height="96">
<rect id="Rectangle_119" width="19" height="14" fill="#D9D9D9"/>
</mask>
<g mask="url(#mask3_4774_179824)">
<g id="Group_8" transform="translate(1 3)">
<path id="Ellipse_37" transform="matrix(-1 8.74228e-08 8.74228e-08 1 17 0)" d="M4.5 1C6.433 1 8 2.567 8 4.5C8 6.433 6.433 8 4.5 8C2.567 8 1 6.433 1 4.5C1 2.567 2.567 1 4.5 1Z" stroke="#072756" stroke-width="2"/>
<path id="Vector_16" transform="matrix(-1 0 0 1 9 0.14502)" d="M9 0L6.09762 3.31701C5.71784 3.75104 5.16919 4 4.59246 4H0" stroke="#072756" stroke-width="2" stroke-linecap="round"/>
</g>
</g>
</g>
</g>
<defs>
<filter id="filter0_d_4774_179824" x="-4" y="-4" width="41" height="41" filterUnits="userSpaceOnUse" color-interpolation-filters="sRGB">
<feFlood flood-opacity="0" result="BackgroundImageFix"/>
<feColorMatrix in="SourceAlpha" type="matrix" values="0 0 0 0 0 0 0 0 0 0 0 0 0 0 0 0 0 0 127 0" result="hardAlpha"/>
<feOffset/>
<feGaussianBlur stdDeviation="2"/>
<feColorMatrix type="matrix" values="0 0 0 0 1 0 0 0 0 0.329412 0 0 0 0 0 0 0 0 0.5 0"/>
<feBlend mode="normal" in2="BackgroundImageFix" result="effect1_dropShadow_4774_179824"/>
<feBlend mode="normal" in="SourceGraphic" in2="effect1_dropShadow_4774_179824" result="shape"/>
</filter>
<clipPath id="clip0_4774_179824">
<rect width="96" height="96" fill="white"/>
</clipPath>
<clipPath id="clip1_4774_179824">
<rect width="37" height="37" fill="white"/>
</clipPath>
<clipPath id="clip2_4774_179824">
<rect width="19" height="14" fill="white"/>
</clipPath>
<clipPath id="clip3_4774_179824">
<rect width="19" height="14" fill="white"/>
</clipPath>
<clipPath id="clip4_4774_179824">
<rect width="19" height="14" fill="white"/>
</clipPath>
</defs>
</svg>
