<svg width="40" height="40" viewBox="0 0 40 40" fill="none" xmlns="http://www.w3.org/2000/svg">
<style>
@keyframes kf_Rectangle_101_transform_0 {
  0% {
    transform: translateX(-3.5px) translateY(-3.905px) translate(0px, 24px) scaleX(1) scaleY(1) translate(0px, -24px);
  }
  10% {
    animation-timing-function: cubic-bezier(0.5, 0, 0.5, 1);
    transform: translateX(-3.5px) translateY(-3.905px) translate(0px, 24px) scaleX(1) scaleY(1) translate(0px, -24px);
  }
  15% {
    animation-timing-function: cubic-bezier(0.5, 0, 0.5, 1);
    transform: translateX(-3.5px) translateY(-3.905px) translate(0px, 24px) scaleX(0) scaleY(0) translate(0px, -24px);
  }
  40% {
    transform: translateX(-3.5px) translateY(-3.905px) translate(0px, 24px) scaleX(1) scaleY(1) translate(0px, -24px);
  }
  100% {
    transform: translateX(-3.5px) translateY(-3.905px) translate(0px, 24px) scaleX(1) scaleY(1) translate(0px, -24px);
  }
}
#Rectangle_101 {
  transform-origin: 0 0;
  animation: kf_Rectangle_101_transform_0 2s linear infinite;
}
</style>
<g id="ani_steps_global-markets" clip-path="url(#clip0_3857_164722)">
<path id="Subtract" transform="translate(2 2.84253)" d="M16.6182 0.00488281C24.7743 0.211532 31.4316 6.4468 32.3027 14.4209L30.3623 15.2119C30.1694 12.4055 29.1649 9.82304 27.5762 7.7002C27.1371 7.94472 26.5431 8.23508 25.7725 8.52344C25.2791 8.70805 24.7142 8.89179 24.0732 9.06445C24.6588 11.3104 24.9885 13.8544 24.998 16.5381C26.2229 16.3953 27.2414 16.2346 28.0723 16.0762C28.1894 16.0538 28.3024 16.029 28.4121 16.0068L27.1865 16.5068C26.2867 16.8735 25.6633 17.6279 25.4258 18.498C25.2681 18.517 25.1075 18.5384 24.9434 18.5566C24.811 20.8656 24.4412 23.0377 23.876 24.9639C24.269 25.0565 24.6281 25.1483 24.9531 25.2441C25.2235 25.3238 25.4702 25.4051 25.6953 25.4834C25.1549 26.0559 24.5941 26.5798 24.0195 27.0615C23.7748 26.9962 23.5099 26.9299 23.2236 26.8652C23.0597 27.2773 22.8864 27.6739 22.7031 28.0527C22.6977 28.064 22.691 28.0747 22.6855 28.0859C21.6696 28.8001 20.6241 29.398 19.5693 29.8916C17.09 31.052 14.5452 31.6592 12.2559 31.9131C5.34502 30.1842 0.192461 24.0195 0.00488281 16.6182L0 16.2002C0 7.25318 7.25318 0 16.2002 0L16.6182 0.00488281ZM16.5957 26.1621C14.7575 26.1339 13.1415 26.2381 11.752 26.4102C11.8633 26.6761 11.9769 26.9341 12.0967 27.1816C12.7856 28.6054 13.5617 29.6281 14.3545 30.2803C14.9587 30.3587 15.5746 30.4004 16.2002 30.4004C17.0827 30.4004 17.9462 30.3191 18.7842 30.165C19.5288 29.5099 20.2542 28.5231 20.9033 27.1816C21.0097 26.9619 21.1102 26.7334 21.21 26.499C19.9428 26.3206 18.4152 26.1901 16.5957 26.1621ZM9.72559 26.7324C9.16005 26.8437 8.65013 26.9634 8.19629 27.083C7.89598 27.1622 7.62044 27.2431 7.36914 27.3203C8.47768 28.2018 9.72125 28.9203 11.0635 29.4414C10.789 29.0023 10.5315 28.5377 10.2969 28.0527C10.094 27.6335 9.90468 27.1921 9.72559 26.7324ZM2.06445 17.5586C2.36355 20.7092 3.69204 23.5599 5.70996 25.7705C6.21156 25.5836 6.87128 25.3633 7.68652 25.1484C8.11046 25.0367 8.57656 24.9269 9.08398 24.8223C8.54281 22.935 8.18639 20.8172 8.05664 18.5693C6.83046 18.4334 5.75164 18.2814 4.82324 18.123C3.67154 17.9266 2.75048 17.7256 2.06445 17.5586ZM22.9277 18.748C21.2496 18.8806 19.3029 18.9738 17.0605 18.9961C14.4211 19.0223 12.0893 18.9244 10.0723 18.7637C10.214 20.8517 10.5618 22.7886 11.0664 24.4834C12.6434 24.2664 14.4991 24.1294 16.627 24.1621C18.7214 24.1943 20.4662 24.3577 21.9023 24.5801C22.4239 22.8581 22.7839 20.8821 22.9277 18.748ZM22.1211 9.5C20.6616 9.76414 18.9221 9.95313 16.8691 9.99316C14.5678 10.038 12.5641 9.84746 10.8652 9.54688C10.3168 11.6426 10 14.0641 10 16.6572C10 16.6887 10.0009 16.7206 10.001 16.752C12.0109 16.9189 14.3598 17.0227 17.04 16.9961C19.3429 16.9732 21.3184 16.8739 22.998 16.7354C22.9981 16.7095 23 16.6831 23 16.6572C23 14.0446 22.6772 11.6065 22.1211 9.5ZM4.86328 7.64844C3.20084 9.84886 2.16365 12.5484 2.01758 15.4824C2.06917 15.4961 2.12309 15.5127 2.17969 15.5273C2.8374 15.6972 3.83306 15.9261 5.15918 16.1523C5.97994 16.2923 6.92802 16.4279 8.00098 16.5518C8.00935 13.8867 8.3342 11.3592 8.91113 9.12402C8.32729 8.97394 7.79323 8.8158 7.31055 8.6543C6.24326 8.29718 5.42581 7.93177 4.86328 7.64844ZM16.5 2.15723C15.0291 2.15723 13.4086 3.42173 12.0967 6.13281C11.8724 6.59632 11.6628 7.09367 11.4688 7.62012C12.9909 7.87349 14.7794 8.03313 16.8301 7.99316C18.6616 7.95745 20.2127 7.79659 21.5127 7.5752C21.3234 7.06563 21.1211 6.58293 20.9033 6.13281C19.5914 3.42173 17.9709 2.15723 16.5 2.15723ZM11.9336 2.65234C9.76209 3.33557 7.81573 4.52653 6.2334 6.08594C6.67917 6.28942 7.24984 6.52511 7.94531 6.75781C8.40621 6.91202 8.92222 7.06479 9.49219 7.20898C9.73514 6.51981 10.0034 5.86816 10.2969 5.26172C10.764 4.29641 11.3121 3.40809 11.9336 2.65234ZM21.291 2.94043C21.8196 3.63077 22.2938 4.41573 22.7031 5.26172C22.9882 5.85088 23.2488 6.48298 23.4863 7.15039C24.0957 6.98861 24.6222 6.81841 25.0713 6.65039C25.5377 6.47586 25.9214 6.30299 26.2305 6.14941C24.8385 4.76031 23.16 3.65849 21.291 2.94043Z" fill="#072756"/>
<g id="Mask_group" transform="translate(8.5 19.905)">
<mask id="mask0_3857_164722" style="mask-type:alpha" maskUnits="userSpaceOnUse" x="0" y="0" width="40" height="40">
<path id="Vector_22" d="M0 17.7798C6.9697 18.817 22.1818 16.7131 27.2727 0M30 4.44496L27.2727 0L21.8182 2.22248" stroke="#FF5400" stroke-width="2" stroke-linecap="round"/>
</mask>
<g mask="url(#mask0_3857_164722)">
<rect id="Rectangle_101" transform="translate(-3.5 -3.90503)" width="35" height="24" fill="#FF5400"/>
</g>
</g>
</g>
<defs>
<clipPath id="clip0_3857_164722">
<rect width="40" height="40" fill="white"/>
</clipPath>
</defs>
</svg>
