<svg width="250" height="60" viewBox="0 0 250 60" fill="none" xmlns="http://www.w3.org/2000/svg">
<style>
svg { overflow: visible; }
@keyframes kf_Frame_397_transform_0 {
  0% {
    transform: translateX(93px) translateX(10px) translateY(0px);
  }
  6% {
    transform: translateX(93px) translateX(10px) translateY(0px);
  }
  8% {
    transform: translateX(93px) translateX(0px) translateY(0px);
  }
  70% {
    transform: translateX(93px) translateX(0px) translateY(0px);
  }
  76% {
    transform: translateX(93px) translateX(10px) translateY(0px);
  }
  100% {
    transform: translateX(93px) translateX(10px) translateY(0px);
  }
}
@keyframes kf_Frame_397_opacity_0 {
  0% {
    animation-timing-function: linear;
    opacity: 0;
  }
  6% {
    animation-timing-function: cubic-bezier(0.5, 0, 0.5, 1);
    opacity: 0;
  }
  12% {
    animation-timing-function: linear;
    opacity: 1;
  }
  70% {
    animation-timing-function: cubic-bezier(0.5, 0, 0.5, 1);
    opacity: 1;
  }
  74% {
    animation-timing-function: linear;
    opacity: 0;
  }
  100% {
    opacity: 0;
  }
}
#Frame_397 {
  transform-origin: 0 0;
  animation:
    kf_Frame_397_transform_0 5s linear infinite,
    kf_Frame_397_opacity_0 5s linear infinite;
}
@keyframes kf_Rectangle_112_fill_1 {
  0% {
    fill: rgba(226, 227, 229, 0);
  }
  2% {
    animation-timing-function: cubic-bezier(0.5, 0, 0.5, 1);
    fill: rgba(226, 227, 229, 0);
  }
  10% {
    fill: #E2E3E5;
  }
  100% {
    fill: #E2E3E5;
  }
}
#Rectangle_112_bg_1 {
  animation: kf_Rectangle_112_fill_1 5s linear infinite;
}
@keyframes kf_Ellipse_80_transform_0 {
  0% {
    transform: translateX(224px) translateY(46px) translateX(0px) translateY(0px);
  }
  6% {
    transform: translateX(224px) translateY(46px) translateX(9px) translateY(0px);
  }
  68% {
    transform: translateX(224px) translateY(46px) translateX(9px) translateY(0px);
  }
  74% {
    transform: translateX(224px) translateY(46px) translateX(0px) translateY(0px);
  }
  100% {
    transform: translateX(224px) translateY(46px) translateX(0px) translateY(0px);
  }
}
@keyframes kf_Ellipse_80_fill_1 {
  0% {
    animation-timing-function: cubic-bezier(0.5, 0, 0.5, 1);
    fill: rgba(255, 255, 255, 0);
  }
  8% {
    animation-timing-function: cubic-bezier(0.5, 0, 0.5, 1);
    fill: #FFF;
  }
  68% {
    animation-timing-function: cubic-bezier(0.5, 0, 0.5, 1);
    fill: #FFF;
  }
  76% {
    fill: rgba(255, 255, 255, 0);
  }
  100% {
    fill: rgba(255, 255, 255, 0);
  }
}
#Ellipse_80 {
  transform-origin: 0 0;
  animation: kf_Ellipse_80_transform_0 5s linear infinite;
}
#Ellipse_80_bg_1 {
  animation: kf_Ellipse_80_fill_1 5s linear infinite;
}
</style>
<g id="app-mockup-pos">
<g id="Frame_397" opacity="0" transform="translate(93)">
<rect width="51" height="30" rx="15" id="Frame_397_bg_0" fill="#F2F2F2">
</rect>
<path id="Cyrpto" transform="translate(8 7.5)" d="M4.10889 11.1826C3.40706 11.1826 2.80013 11.0179 2.28809 10.6885C1.77604 10.359 1.38037 9.89176 1.10107 9.28662C0.825358 8.68148 0.6875 7.96354 0.6875 7.13281V7.12207C0.6875 6.28776 0.825358 5.56803 1.10107 4.96289C1.38037 4.35775 1.77425 3.89046 2.28271 3.56104C2.79476 3.23161 3.40169 3.06689 4.10352 3.06689C4.64779 3.06689 5.14193 3.17432 5.58594 3.38916C6.03353 3.60042 6.40234 3.89583 6.69238 4.27539C6.98242 4.65137 7.16504 5.08643 7.24023 5.58057L7.23486 5.59131H6.2627L6.25732 5.58057C6.17139 5.24756 6.02637 4.9611 5.82227 4.72119C5.61816 4.4777 5.3693 4.28971 5.07568 4.15723C4.78564 4.02474 4.46159 3.9585 4.10352 3.9585C3.60938 3.9585 3.17969 4.0874 2.81445 4.34521C2.4528 4.60303 2.1735 4.96826 1.97656 5.44092C1.77962 5.91357 1.68115 6.47396 1.68115 7.12207V7.13281C1.68115 7.77734 1.77962 8.33594 1.97656 8.80859C2.1735 9.28125 2.4528 9.64648 2.81445 9.9043C3.17969 10.1621 3.61117 10.291 4.10889 10.291C4.47054 10.291 4.79818 10.2337 5.0918 10.1191C5.38542 10.001 5.63249 9.83447 5.83301 9.61963C6.03353 9.4012 6.17318 9.14339 6.25195 8.84619L6.2627 8.83545H7.24023V8.84619C7.1543 9.31885 6.9681 9.73063 6.68164 10.0815C6.39518 10.4289 6.03174 10.6992 5.59131 10.8926C5.15446 11.0859 4.66032 11.1826 4.10889 11.1826ZM9.16309 13.0303C9.10221 13.0303 9.03418 13.0267 8.95898 13.0195C8.88379 13.016 8.81396 13.0088 8.74951 12.998V12.23C8.8068 12.2407 8.86947 12.2479 8.9375 12.2515C9.00553 12.255 9.07178 12.2568 9.13623 12.2568C9.4012 12.2568 9.61784 12.1888 9.78613 12.0527C9.95801 11.9167 10.0959 11.6821 10.1997 11.3491L10.3071 11.0054L8.16406 5.20996H9.16309L10.9463 10.5596L10.5757 9.97412H11.0161L10.6455 10.5596L12.4233 5.20996H13.4062L11.145 11.3545C10.9875 11.7878 10.821 12.1261 10.6455 12.3696C10.4701 12.6131 10.2642 12.7832 10.0278 12.8799C9.79508 12.9801 9.50684 13.0303 9.16309 13.0303ZM14.502 11V5.20996H15.4365V6.06934H15.5225C15.6335 5.76497 15.8215 5.52865 16.0864 5.36035C16.3514 5.19206 16.679 5.10791 17.0693 5.10791C17.1589 5.10791 17.2466 5.11328 17.3325 5.12402C17.422 5.13118 17.4901 5.13835 17.5366 5.14551V6.05322C17.4399 6.03532 17.3451 6.02279 17.252 6.01562C17.1624 6.00488 17.0658 5.99951 16.9619 5.99951C16.6647 5.99951 16.4015 6.05859 16.1724 6.17676C15.9432 6.29492 15.7624 6.45964 15.6299 6.6709C15.501 6.88216 15.4365 7.12923 15.4365 7.41211V11H14.502ZM18.5947 12.9336V5.20996H19.5293V6.13379H19.6152C19.7334 5.91895 19.882 5.73633 20.061 5.58594C20.2401 5.43197 20.4442 5.3138 20.6733 5.23145C20.9025 5.14909 21.1514 5.10791 21.4199 5.10791C21.9105 5.10791 22.3366 5.23324 22.6982 5.48389C23.0635 5.73096 23.3464 6.07829 23.5469 6.52588C23.7474 6.97347 23.8477 7.49805 23.8477 8.09961V8.11035C23.8477 8.71549 23.7474 9.24186 23.5469 9.68945C23.3464 10.137 23.0635 10.4844 22.6982 10.7314C22.3366 10.9785 21.9105 11.1021 21.4199 11.1021C21.1549 11.1021 20.9043 11.0609 20.668 10.9785C20.4352 10.8926 20.2275 10.7744 20.0449 10.624C19.8659 10.4736 19.7227 10.2946 19.6152 10.0869H19.5293V12.9336H18.5947ZM21.2051 10.2749C21.5596 10.2749 21.8621 10.189 22.1128 10.0171C22.3634 9.84163 22.555 9.59277 22.6875 9.27051C22.8236 8.94466 22.8916 8.55794 22.8916 8.11035V8.09961C22.8916 7.64844 22.8236 7.26172 22.6875 6.93945C22.555 6.61719 22.3634 6.37012 22.1128 6.19824C21.8621 6.02279 21.5596 5.93506 21.2051 5.93506C20.8542 5.93506 20.5516 6.02279 20.2974 6.19824C20.0431 6.3737 19.848 6.62256 19.7119 6.94482C19.5758 7.26709 19.5078 7.65202 19.5078 8.09961V8.11035C19.5078 8.55436 19.5758 8.93929 19.7119 9.26514C19.848 9.5874 20.0431 9.83626 20.2974 10.0117C20.5516 10.1872 20.8542 10.2749 21.2051 10.2749ZM27.2046 11.043C26.6102 11.043 26.1787 10.923 25.9102 10.6831C25.6452 10.4432 25.5127 10.0475 25.5127 9.49609V5.9834H24.5996V5.20996H25.5127V3.71143H26.4795V5.20996H27.7471V5.9834H26.4795V9.25977C26.4795 9.59993 26.5439 9.84521 26.6729 9.99561C26.8018 10.1424 27.0166 10.2158 27.3174 10.2158C27.3997 10.2158 27.4696 10.214 27.5269 10.2104C27.5877 10.2069 27.6611 10.2015 27.7471 10.1943V10.9893C27.6576 11.0036 27.568 11.0161 27.4785 11.0269C27.389 11.0376 27.2977 11.043 27.2046 11.043ZM31.2651 11.1021C30.7173 11.1021 30.2428 10.9821 29.8418 10.7422C29.4443 10.4987 29.1364 10.1532 28.918 9.70557C28.7031 9.25798 28.5957 8.72624 28.5957 8.11035V8.09961C28.5957 7.48014 28.7031 6.94661 28.918 6.49902C29.1364 6.05143 29.4443 5.70768 29.8418 5.46777C30.2428 5.22786 30.7173 5.10791 31.2651 5.10791C31.8166 5.10791 32.291 5.22786 32.6885 5.46777C33.0859 5.70768 33.3921 6.05143 33.6069 6.49902C33.8254 6.94661 33.9346 7.48014 33.9346 8.09961V8.11035C33.9346 8.72624 33.8254 9.25798 33.6069 9.70557C33.3921 10.1532 33.0859 10.4987 32.6885 10.7422C32.291 10.9821 31.8166 11.1021 31.2651 11.1021ZM31.2651 10.2749C31.6304 10.2749 31.9401 10.189 32.1943 10.0171C32.4486 9.84521 32.6419 9.59814 32.7744 9.27588C32.9105 8.95361 32.9785 8.5651 32.9785 8.11035V8.09961C32.9785 7.64128 32.9105 7.25098 32.7744 6.92871C32.6419 6.60645 32.4486 6.36117 32.1943 6.19287C31.9401 6.021 31.6304 5.93506 31.2651 5.93506C30.8999 5.93506 30.5902 6.021 30.3359 6.19287C30.0817 6.36117 29.8866 6.60645 29.7505 6.92871C29.618 7.25098 29.5518 7.64128 29.5518 8.09961V8.11035C29.5518 8.5651 29.618 8.95361 29.7505 9.27588C29.8866 9.59814 30.0817 9.84521 30.3359 10.0171C30.5902 10.189 30.8999 10.2749 31.2651 10.2749Z" fill="#121212"/>
</g>
<g id="Frame_398" transform="translate(38)">
<rect width="51" height="30" rx="15" id="Frame_398_bg_0" fill="#F2F2F2">
</rect>
<path id="Stocks" transform="translate(8 7.5)" d="M3.52881 11.1826C2.96305 11.1826 2.46891 11.0913 2.04639 10.9087C1.62744 10.7225 1.29443 10.4683 1.04736 10.146C0.803874 9.82015 0.662435 9.44775 0.623047 9.02881L0.617676 8.96973H1.58447L1.58984 9.02881C1.61491 9.28662 1.71338 9.51042 1.88525 9.7002C2.06071 9.88639 2.29346 10.0314 2.5835 10.1353C2.87712 10.2391 3.21012 10.291 3.58252 10.291C3.93343 10.291 4.24495 10.2355 4.51709 10.1245C4.79281 10.0099 5.00944 9.85238 5.16699 9.65186C5.32454 9.45133 5.40332 9.22038 5.40332 8.95898V8.95361C5.40332 8.63135 5.28516 8.361 5.04883 8.14258C4.8125 7.92057 4.42757 7.75049 3.89404 7.63232L3.03467 7.44434C2.25765 7.27246 1.69189 7.00749 1.3374 6.64941C0.986491 6.28776 0.811035 5.82585 0.811035 5.26367V5.2583C0.814616 4.82861 0.93099 4.44906 1.16016 4.11963C1.3929 3.7902 1.71338 3.53239 2.12158 3.34619C2.53337 3.15999 3.00602 3.06689 3.53955 3.06689C4.05518 3.06689 4.51172 3.15999 4.90918 3.34619C5.30664 3.52881 5.62174 3.77588 5.85449 4.0874C6.09082 4.39893 6.22152 4.74805 6.24658 5.13477L6.25195 5.20996H5.28516L5.27441 5.14014C5.23861 4.91097 5.14551 4.70866 4.99512 4.5332C4.84473 4.35417 4.64421 4.21273 4.39355 4.10889C4.1429 4.00505 3.84928 3.95492 3.5127 3.9585C3.19043 3.9585 2.90039 4.00863 2.64258 4.10889C2.38477 4.20915 2.17887 4.35417 2.0249 4.54395C1.87451 4.73014 1.79932 4.95931 1.79932 5.23145V5.23682C1.79932 5.54476 1.9139 5.80436 2.14307 6.01562C2.37223 6.22689 2.75 6.38981 3.27637 6.50439L4.13574 6.69775C4.67643 6.81592 5.11149 6.96989 5.44092 7.15967C5.77035 7.34945 6.01025 7.58219 6.16064 7.85791C6.31462 8.13005 6.3916 8.45231 6.3916 8.82471V8.83008C6.3916 9.31348 6.27344 9.73063 6.03711 10.0815C5.80078 10.4325 5.46777 10.7046 5.03809 10.8979C4.6084 11.0877 4.10531 11.1826 3.52881 11.1826ZM9.94189 11.043C9.34749 11.043 8.91602 10.923 8.64746 10.6831C8.38249 10.4432 8.25 10.0475 8.25 9.49609V5.9834H7.33691V5.20996H8.25V3.71143H9.2168V5.20996H10.4844V5.9834H9.2168V9.25977C9.2168 9.59993 9.28125 9.84521 9.41016 9.99561C9.53906 10.1424 9.75391 10.2158 10.0547 10.2158C10.137 10.2158 10.2069 10.214 10.2642 10.2104C10.325 10.2069 10.3984 10.2015 10.4844 10.1943V10.9893C10.3949 11.0036 10.3053 11.0161 10.2158 11.0269C10.1263 11.0376 10.035 11.043 9.94189 11.043ZM14.0024 11.1021C13.4546 11.1021 12.9801 10.9821 12.5791 10.7422C12.1816 10.4987 11.8737 10.1532 11.6553 9.70557C11.4404 9.25798 11.333 8.72624 11.333 8.11035V8.09961C11.333 7.48014 11.4404 6.94661 11.6553 6.49902C11.8737 6.05143 12.1816 5.70768 12.5791 5.46777C12.9801 5.22786 13.4546 5.10791 14.0024 5.10791C14.5539 5.10791 15.0283 5.22786 15.4258 5.46777C15.8232 5.70768 16.1294 6.05143 16.3442 6.49902C16.5627 6.94661 16.6719 7.48014 16.6719 8.09961V8.11035C16.6719 8.72624 16.5627 9.25798 16.3442 9.70557C16.1294 10.1532 15.8232 10.4987 15.4258 10.7422C15.0283 10.9821 14.5539 11.1021 14.0024 11.1021ZM14.0024 10.2749C14.3677 10.2749 14.6774 10.189 14.9316 10.0171C15.1859 9.84521 15.3792 9.59814 15.5117 9.27588C15.6478 8.95361 15.7158 8.5651 15.7158 8.11035V8.09961C15.7158 7.64128 15.6478 7.25098 15.5117 6.92871C15.3792 6.60645 15.1859 6.36117 14.9316 6.19287C14.6774 6.021 14.3677 5.93506 14.0024 5.93506C13.6372 5.93506 13.3275 6.021 13.0732 6.19287C12.819 6.36117 12.6239 6.60645 12.4878 6.92871C12.3553 7.25098 12.2891 7.64128 12.2891 8.09961V8.11035C12.2891 8.5651 12.3553 8.95361 12.4878 9.27588C12.6239 9.59814 12.819 9.84521 13.0732 10.0171C13.3275 10.189 13.6372 10.2749 14.0024 10.2749ZM20.3403 11.1021C19.7996 11.1021 19.3306 10.9785 18.9331 10.7314C18.5356 10.4844 18.2277 10.1353 18.0093 9.68408C17.7909 9.23291 17.6816 8.70117 17.6816 8.08887V8.07812C17.6816 7.47656 17.7891 6.95378 18.0039 6.50977C18.2223 6.06576 18.5303 5.72201 18.9277 5.47852C19.3252 5.23145 19.7943 5.10791 20.335 5.10791C20.804 5.10791 21.2087 5.19027 21.5488 5.35498C21.889 5.51969 22.1611 5.7417 22.3652 6.021C22.5693 6.29671 22.7 6.60645 22.7573 6.9502L22.7627 6.98242H21.8335L21.8281 6.96631C21.7565 6.67985 21.5936 6.43636 21.3394 6.23584C21.0851 6.03532 20.7503 5.93506 20.335 5.93506C19.9876 5.93506 19.6868 6.02279 19.4326 6.19824C19.1784 6.3737 18.9814 6.62256 18.8418 6.94482C18.7057 7.26351 18.6377 7.64128 18.6377 8.07812V8.08887C18.6377 8.53288 18.7075 8.9196 18.8472 9.24902C18.9868 9.57487 19.1838 9.82731 19.438 10.0063C19.6922 10.1854 19.9912 10.2749 20.335 10.2749C20.7253 10.2749 21.0439 10.1908 21.291 10.0225C21.5381 9.85417 21.7153 9.60889 21.8228 9.28662L21.8335 9.25439L22.7573 9.24902L22.7466 9.30811C22.6678 9.65544 22.5282 9.96517 22.3276 10.2373C22.1271 10.5059 21.8621 10.7171 21.5327 10.8711C21.2033 11.0251 20.8058 11.1021 20.3403 11.1021ZM24.1807 11V2.91113H25.1152V11H24.1807ZM27.8276 11L25.5664 8.16406L26.2539 7.56787L29.0039 11H27.8276ZM24.9971 8.91602L24.9541 7.73975H25.2012L27.7041 5.20996H28.8374L26.0874 7.86328L25.8618 8.0835L24.9971 8.91602ZM31.8721 11.1021C31.4424 11.1021 31.0628 11.0376 30.7334 10.9087C30.404 10.7762 30.139 10.5918 29.9385 10.3555C29.7415 10.1191 29.6252 9.84163 29.5894 9.52295H30.5454C30.6242 9.76286 30.7782 9.95622 31.0073 10.103C31.2365 10.2498 31.5355 10.3232 31.9043 10.3232C32.1657 10.3232 32.3949 10.2856 32.5918 10.2104C32.7923 10.1317 32.9499 10.026 33.0645 9.89355C33.179 9.75749 33.2363 9.60173 33.2363 9.42627V9.41553C33.2363 9.21859 33.1576 9.05208 33 8.91602C32.8424 8.77637 32.5846 8.66357 32.2266 8.57764L31.3296 8.36279C30.9679 8.27686 30.6707 8.16585 30.438 8.02979C30.2052 7.89014 30.0334 7.72005 29.9224 7.51953C29.8114 7.31543 29.7559 7.07552 29.7559 6.7998V6.79443C29.7559 6.47217 29.849 6.18392 30.0352 5.92969C30.2249 5.67546 30.4827 5.47493 30.8086 5.32812C31.1344 5.18132 31.5015 5.10791 31.9097 5.10791C32.3143 5.10791 32.6724 5.17236 32.9839 5.30127C33.299 5.4266 33.5514 5.60563 33.7412 5.83838C33.9346 6.07113 34.0527 6.34505 34.0957 6.66016H33.1772C33.1164 6.43099 32.9767 6.24479 32.7583 6.10156C32.5399 5.95833 32.2552 5.88672 31.9043 5.88672C31.6751 5.88672 31.471 5.92432 31.292 5.99951C31.113 6.07113 30.9715 6.17139 30.8677 6.30029C30.7638 6.4292 30.7119 6.57959 30.7119 6.75146V6.76221C30.7119 6.89111 30.7459 7.0057 30.814 7.10596C30.882 7.20622 30.9876 7.29395 31.1309 7.36914C31.2741 7.44434 31.4585 7.51058 31.6841 7.56787L32.5757 7.78271C33.12 7.9152 33.5246 8.10498 33.7896 8.35205C34.0581 8.59912 34.1924 8.93034 34.1924 9.3457V9.35645C34.1924 9.7002 34.0903 10.0046 33.8862 10.2695C33.6821 10.5309 33.4046 10.735 33.0537 10.8818C32.7064 11.0286 32.3125 11.1021 31.8721 11.1021Z" fill="#121212"/>
</g>
<g id="Frame_399" transform="translate(0 1)">
<rect width="34" height="28" rx="15" id="Frame_399_bg_0" fill="#1D1C1A">
</rect>
<path id="All" transform="translate(8 6.5)" d="M2.88232 11L5.73975 3.24951H6.48096V4.50098H6.1748L3.89746 11H2.88232ZM4.17676 8.78174L4.47754 7.95996H7.97949L8.28027 8.78174H4.17676ZM8.53809 11L6.26074 4.50098V3.24951H6.6958L9.55322 11H8.53809ZM10.8477 11V2.91113H11.7822V11H10.8477ZM13.6299 11V2.91113H14.5645V11H13.6299Z" fill="white"/>
</g>
<g id="Rectangle_112" transform="translate(223 45)">
<rect width="23" height="14" rx="7" id="Rectangle_112_bg_0" fill="#CFCECC">
</rect>
<rect width="23" height="14" rx="7" id="Rectangle_112_bg_1" fill="#E2E3E5">
</rect>
</g>
<g id="Ellipse_80" filter="url(#filter0_d_4478_56335)" transform="translate(224 46)">
<circle cx="6" cy="6" r="6" id="Ellipse_80_bg_0" fill="black">
</circle>
</g>
<path id="HKD_Equivalent" transform="translate(152 45)" d="M1.05615 10V3.65869H1.84717V6.40088H5.32764V3.65869H6.11865V10H5.32764V7.11279H1.84717V10H1.05615ZM8.43896 7.88184L8.39502 6.73926H8.59717L11.3745 3.65869H12.3677L9.74414 6.49316L9.375 6.84912L8.43896 7.88184ZM7.73584 10V3.65869H8.52686V10H7.73584ZM11.5767 10L9.20801 6.84033L9.75293 6.29102L12.6006 10H11.5767ZM13.6685 10V3.65869H15.8438C16.4707 3.65869 17.0068 3.78467 17.4521 4.03662C17.9004 4.28564 18.2432 4.646 18.4805 5.11768C18.7178 5.58936 18.8364 6.15771 18.8364 6.82275V6.83154C18.8364 7.49658 18.7178 8.06641 18.4805 8.54102C18.2432 9.0127 17.9019 9.37451 17.4565 9.62646C17.0112 9.87549 16.4736 10 15.8438 10H13.6685ZM14.4595 9.28809H15.791C16.2627 9.28809 16.6655 9.19141 16.9995 8.99805C17.3335 8.80469 17.5884 8.5249 17.7642 8.15869C17.9399 7.79248 18.0278 7.35303 18.0278 6.84033V6.83154C18.0278 6.31592 17.9385 5.875 17.7598 5.50879C17.584 5.13965 17.3291 4.8584 16.9951 4.66504C16.6611 4.46875 16.2598 4.37061 15.791 4.37061H14.4595V9.28809ZM22.7388 10V3.65869H26.6675V4.37061H23.5298V6.40527H26.5049V7.1084H23.5298V9.28809H26.6675V10H22.7388ZM31.3081 11.582V9.28809H31.2378C31.1528 9.45508 31.0371 9.59863 30.8906 9.71875C30.7441 9.83594 30.5742 9.92676 30.3809 9.99121C30.1904 10.0527 29.9824 10.0835 29.7568 10.0835C29.3555 10.0835 29.0054 9.98242 28.7065 9.78027C28.4077 9.57812 28.1763 9.29395 28.0122 8.92773C27.8481 8.55859 27.7661 8.12793 27.7661 7.63574V7.62695C27.7661 7.13184 27.8481 6.70117 28.0122 6.33496C28.1763 5.96875 28.4077 5.68457 28.7065 5.48242C29.0054 5.28027 29.3555 5.1792 29.7568 5.1792C29.9707 5.1792 30.1714 5.21436 30.3589 5.28467C30.5493 5.35498 30.7207 5.45605 30.873 5.58789C31.0283 5.7168 31.1558 5.87207 31.2554 6.05371H31.3081V5.2627H32.0728V11.582H31.3081ZM29.937 9.40674C30.2212 9.40674 30.4673 9.33496 30.6753 9.19141C30.8833 9.04492 31.0444 8.83984 31.1587 8.57617C31.2729 8.30957 31.3301 7.99609 31.3301 7.63574V7.62695C31.3301 7.26367 31.2729 6.9502 31.1587 6.68652C31.0444 6.41992 30.8833 6.21484 30.6753 6.07129C30.4673 5.92773 30.2197 5.85596 29.9326 5.85596C29.6455 5.85596 29.3979 5.92773 29.1899 6.07129C28.9819 6.21191 28.8223 6.41406 28.7109 6.67773C28.6025 6.94141 28.5483 7.25781 28.5483 7.62695V7.63574C28.5483 8.00195 28.604 8.31836 28.7153 8.58496C28.8267 8.84863 28.9849 9.05225 29.1899 9.1958C29.3979 9.33643 29.647 9.40674 29.937 9.40674ZM35.0742 10.0835C34.7168 10.0835 34.4165 10.0161 34.1733 9.88135C33.9302 9.74365 33.7471 9.54443 33.624 9.28369C33.5039 9.02002 33.4438 8.70215 33.4438 8.33008V5.2627H34.2085V8.14551C34.2085 8.57031 34.2905 8.88672 34.4546 9.09473C34.6216 9.30273 34.894 9.40674 35.272 9.40674C35.48 9.40674 35.6631 9.37598 35.8213 9.31445C35.9824 9.25293 36.1172 9.16504 36.2256 9.05078C36.334 8.93359 36.4146 8.79297 36.4673 8.62891C36.5229 8.46191 36.5508 8.27441 36.5508 8.06641V5.2627H37.3154V10H36.5508V9.29248H36.4805C36.4043 9.45947 36.3003 9.60303 36.1685 9.72314C36.0366 9.84033 35.8784 9.92969 35.6938 9.99121C35.5122 10.0527 35.3057 10.0835 35.0742 10.0835ZM38.7612 10V5.2627H39.5259V10H38.7612ZM39.1479 4.34863C39.0044 4.34863 38.8799 4.29736 38.7744 4.19482C38.6719 4.08936 38.6206 3.96484 38.6206 3.82129C38.6206 3.6748 38.6719 3.55029 38.7744 3.44775C38.8799 3.34521 39.0044 3.29395 39.1479 3.29395C39.2944 3.29395 39.4189 3.34521 39.5215 3.44775C39.624 3.55029 39.6753 3.6748 39.6753 3.82129C39.6753 3.96484 39.624 4.08936 39.5215 4.19482C39.4189 4.29736 39.2944 4.34863 39.1479 4.34863ZM42.3076 10L40.5542 5.2627H41.3628L42.6592 9.16504H42.7295L44.0259 5.2627H44.8345L43.0811 10H42.3076ZM46.9878 10.0835C46.689 10.0835 46.4194 10.0264 46.1792 9.91211C45.9419 9.79785 45.7529 9.63525 45.6123 9.42432C45.4746 9.21338 45.4058 8.96436 45.4058 8.67725V8.66846C45.4058 8.38721 45.4731 8.14697 45.6079 7.94775C45.7427 7.74561 45.939 7.5874 46.1968 7.47314C46.4546 7.35889 46.7666 7.2915 47.1328 7.271L48.873 7.16553V7.77637L47.2251 7.88184C46.8647 7.90234 46.6011 7.97705 46.4341 8.10596C46.27 8.23486 46.188 8.4165 46.188 8.65088V8.65967C46.188 8.8999 46.2788 9.0874 46.4604 9.22217C46.6421 9.354 46.8706 9.41992 47.146 9.41992C47.4067 9.41992 47.6382 9.36865 47.8403 9.26611C48.0425 9.16064 48.2007 9.01855 48.3149 8.83984C48.4321 8.66113 48.4907 8.45898 48.4907 8.2334V6.75684C48.4907 6.46387 48.4014 6.24121 48.2227 6.08887C48.0469 5.93359 47.7817 5.85596 47.4272 5.85596C47.1431 5.85596 46.9102 5.90723 46.7285 6.00977C46.5469 6.10938 46.4253 6.25146 46.3638 6.43604L46.3594 6.44922H45.5947L45.5991 6.42285C45.6401 6.17383 45.7427 5.95703 45.9067 5.77246C46.0737 5.58496 46.2891 5.43994 46.5527 5.3374C46.8164 5.23193 47.1167 5.1792 47.4536 5.1792C47.8403 5.1792 48.167 5.24219 48.4336 5.36816C48.7031 5.49414 48.9067 5.67578 49.0444 5.91309C49.1851 6.14746 49.2554 6.42871 49.2554 6.75684V10H48.4907V9.30127H48.4204C48.3208 9.46826 48.1992 9.61035 48.0557 9.72754C47.915 9.84473 47.7554 9.93408 47.5767 9.99561C47.3979 10.0542 47.2017 10.0835 46.9878 10.0835ZM50.6968 10V3.38184H51.4614V10H50.6968ZM54.8628 10.0835C54.4116 10.0835 54.0234 9.98389 53.6982 9.78467C53.376 9.58545 53.127 9.3042 52.9512 8.94092C52.7783 8.57471 52.6919 8.14404 52.6919 7.64893V7.64453C52.6919 7.15527 52.7783 6.72607 52.9512 6.35693C53.127 5.98779 53.3745 5.69922 53.6938 5.49121C54.0132 5.2832 54.3867 5.1792 54.8145 5.1792C55.2451 5.1792 55.6143 5.27881 55.9219 5.47803C56.2324 5.67725 56.4697 5.95557 56.6338 6.31299C56.8008 6.66748 56.8843 7.08057 56.8843 7.55225V7.85107H53.0874V7.24023H56.4932L56.1152 7.79834V7.49512C56.1152 7.12305 56.0596 6.81689 55.9482 6.57666C55.8369 6.33643 55.6831 6.15771 55.4868 6.04053C55.2905 5.92041 55.0649 5.86035 54.8101 5.86035C54.5552 5.86035 54.3267 5.92334 54.1245 6.04932C53.9253 6.17236 53.7671 6.35547 53.6499 6.59863C53.5327 6.8418 53.4741 7.14062 53.4741 7.49512V7.79834C53.4741 8.13525 53.5312 8.42383 53.6455 8.66406C53.7598 8.90137 53.9224 9.08447 54.1333 9.21338C54.3442 9.33936 54.5933 9.40234 54.8804 9.40234C55.0942 9.40234 55.2803 9.37305 55.4385 9.31445C55.5967 9.25586 55.7271 9.18115 55.8296 9.09033C55.9321 8.99951 56.0039 8.90723 56.0449 8.81348L56.0625 8.77393H56.8271L56.8184 8.80908C56.7773 8.97021 56.7041 9.12695 56.5986 9.2793C56.4961 9.42871 56.3628 9.56494 56.1987 9.68799C56.0347 9.80811 55.8398 9.90479 55.6143 9.97803C55.3916 10.0483 55.1411 10.0835 54.8628 10.0835ZM58.0708 10V5.2627H58.8354V5.97461H58.9058C59.0259 5.72266 59.1987 5.52783 59.4243 5.39014C59.6499 5.24951 59.937 5.1792 60.2856 5.1792C60.8188 5.1792 61.2275 5.33154 61.5117 5.63623C61.7988 5.93799 61.9424 6.37012 61.9424 6.93262V10H61.1777V7.11719C61.1777 6.68945 61.0869 6.37305 60.9053 6.16797C60.7266 5.95996 60.4482 5.85596 60.0703 5.85596C59.8184 5.85596 59.6001 5.91016 59.4155 6.01855C59.231 6.12695 59.0874 6.28076 58.9849 6.47998C58.8853 6.6792 58.8354 6.91797 58.8354 7.19629V10H58.0708ZM65.0098 10.0352C64.5234 10.0352 64.1704 9.93701 63.9507 9.74072C63.7339 9.54443 63.6255 9.2207 63.6255 8.76953V5.89551H62.8784V5.2627H63.6255V4.03662H64.4165V5.2627H65.4536V5.89551H64.4165V8.57617C64.4165 8.85449 64.4692 9.05518 64.5747 9.17822C64.6802 9.29834 64.856 9.3584 65.1021 9.3584C65.1694 9.3584 65.2266 9.35693 65.2734 9.354C65.3232 9.35107 65.3833 9.34668 65.4536 9.34082V9.99121C65.3804 10.0029 65.3071 10.0132 65.2339 10.022C65.1606 10.0308 65.0859 10.0352 65.0098 10.0352Z" fill="#52534D"/>
</g>
<defs>
<filter id="filter0_d_4478_56335" x="-2" y="-2" width="16" height="16" filterUnits="userSpaceOnUse" color-interpolation-filters="sRGB">
<feFlood flood-opacity="0" result="BackgroundImageFix"/>
<feColorMatrix in="SourceAlpha" type="matrix" values="0 0 0 0 0 0 0 0 0 0 0 0 0 0 0 0 0 0 127 0" result="hardAlpha"/>
<feOffset/>
<feGaussianBlur stdDeviation="1"/>
<feComposite in2="hardAlpha" operator="out"/>
<feColorMatrix type="matrix" values="0 0 0 0 0 0 0 0 0 0 0 0 0 0 0 0 0 0 0.15 0"/>
<feBlend mode="normal" in2="BackgroundImageFix" result="effect1_dropShadow_4478_56335"/>
<feBlend mode="normal" in="SourceGraphic" in2="effect1_dropShadow_4478_56335" result="shape"/>
</filter>
</defs>
</svg>
