<svg width="96" height="96" viewBox="0 0 96 96" fill="none" xmlns="http://www.w3.org/2000/svg">
<style>
@keyframes kf_outline_transform_0 {
  0% {
    transform: translateX(19px) translateY(36px) translate(24px, 25.5px) rotate(0rad) translate(-24px, -25.5px);
  }
  25% {
    animation-timing-function: cubic-bezier(0.5, 0, 0.5, 1);
    transform: translateX(19px) translateY(36px) translate(24px, 25.5px) rotate(0rad) translate(-24px, -25.5px);
  }
  43.75% {
    transform: translateX(19px) translateY(36px) translate(24px, 25.5px) rotate(-2.094rad) translate(-24px, -25.5px);
  }
  56.25% {
    animation-timing-function: cubic-bezier(0.5, 0, 0.5, 1);
    transform: translateX(19px) translateY(36px) translate(24px, 25.5px) rotate(-2.094rad) translate(-24px, -25.5px);
  }
  75% {
    transform: translateX(19px) translateY(36px) translate(24px, 25.5px) rotate(0rad) translate(-24px, -25.5px);
  }
  100% {
    transform: translateX(19px) translateY(36px) translate(24px, 25.5px) rotate(0rad) translate(-24px, -25.5px);
  }
}
#outline {
  transform-origin: 0 0;
  animation: kf_outline_transform_0 4s linear infinite;
}
@keyframes kf_Line_11_transform_0 {
  0% {
    animation-timing-function: cubic-bezier(0.5, 0, 0.5, 1);
    transform: translateX(10px) translateY(40px) scaleX(0) scaleY(1);
  }
  7.5% {
    transform: translateX(10px) translateY(40px) scaleX(1) scaleY(1);
  }
  100% {
    transform: translateX(10px) translateY(40px) scaleX(1) scaleY(1);
  }
}
#Line_11 {
  transform-origin: 0 0;
  animation: kf_Line_11_transform_0 4s linear infinite;
}
@keyframes kf_Line_12_transform_0 {
  0% {
    transform: translateX(10px) translateY(46px) scaleX(0) scaleY(1);
  }
  3.75% {
    animation-timing-function: cubic-bezier(0.5, 0, 0.5, 1);
    transform: translateX(10px) translateY(46px) scaleX(0) scaleY(1);
  }
  12.5% {
    transform: translateX(10px) translateY(46px) scaleX(1) scaleY(1);
  }
  100% {
    transform: translateX(10px) translateY(46px) scaleX(1) scaleY(1);
  }
}
#Line_12 {
  transform-origin: 0 0;
  animation: kf_Line_12_transform_0 4s linear infinite;
}
</style>
<g id="ani_download_range-of-products" clip-path="url(#clip0_3779_109)">
<path id="Rectangle_29" transform="translate(5 33)" d="M0 4C0 1.79086 1.79086 0 4 0H72C74.2091 0 76 1.79086 76 4V51C76 53.2091 74.2091 55 72 55H4C1.79086 55 0 53.2091 0 51V4Z" stroke="#072756" stroke-width="2"/>
<path id="Subtract" transform="translate(9 19)" d="M73 0C75.7614 0 78 2.23858 78 5V52C78 54.0502 76.7657 55.8114 75 56.583V54.2314C75.6124 53.6822 76 52.8874 76 52V5C76 3.34315 74.6569 2 73 2H5C3.34315 2 2 3.34315 2 5V11H0V5C0 2.23858 2.23858 0 5 0H73Z" fill="#072756"/>
<path id="Subtract_2" transform="translate(14 8)" d="M73 0C75.7614 0 78 2.23858 78 5V52C78 54.0502 76.7657 55.8114 75 56.583V54.2314C75.6124 53.6822 76 52.8874 76 52V5C76 3.34315 74.6569 2 73 2H5C3.34315 2 2 3.34315 2 5V8H0V5C0 2.23858 2.23858 0 5 0H73Z" fill="#072756"/>
<g id="Rectangle_46" filter="url(#filter0_d_3779_109)" transform="translate(43 45.9152) rotate(45)">
<path d="M13.5716 0L10.3727 10.3727M18.7814 18.7815L8.40872 21.9803L0 13.5716L3.19885 3.19885L13.5716 0L21.9803 8.40876L18.7814 18.7815ZM10.3727 10.3727L0 13.5716M10.3727 10.3727L18.7814 18.7815" stroke="#FF5400" stroke-width="2"/>
</g>
<g id="outline" clip-path="url(#clip1_3779_109)" transform="translate(19 36)">
<circle id="Ellipse_25" transform="translate(20)" cx="4" cy="4" r="3" stroke="#FF5400" stroke-width="2"/>
<circle id="Ellipse_26" transform="translate(39 33)" cx="4" cy="4" r="3" stroke="#FF5400" stroke-width="2"/>
<circle id="Ellipse_27" transform="translate(1 33)" cx="4" cy="4" r="3" stroke="#FF5400" stroke-width="2"/>
<path id="Subtract_3" transform="translate(3.91211 4.50684)" d="M35.2754 33.707C35.4839 34.3626 35.8578 34.9438 36.3467 35.4043L20.5557 43.752L20.0879 43.999L19.6211 43.752L3.82812 35.4043C4.31718 34.9438 4.69079 34.3627 4.89941 33.707L20.0879 41.7363L35.2754 33.707ZM16.1201 0C16.2077 0.692791 16.473 1.32975 16.8682 1.86523L2 9.72559V28.5986C1.70696 28.5303 1.40176 28.4932 1.08789 28.4932C0.710733 28.4932 0.345944 28.546 0 28.6436V8.52148L0.533203 8.24023L16.1201 0ZM39.6436 8.24023L40.1768 8.52148V28.6436C39.8305 28.5458 39.4654 28.4932 39.0879 28.4932C38.7744 28.4932 38.4695 28.5295 38.1768 28.5977V9.72559L23.3076 1.86523C23.7028 1.32978 23.9671 0.692744 24.0547 0L39.6436 8.24023Z" fill="#FF5400"/>
</g>
<line id="Line_11" transform="translate(10 40)" x1="1" y1="-1" x2="11" y2="-1" stroke="#072756" stroke-width="2" stroke-linecap="round"/>
<line id="Line_12" transform="translate(10 46)" x1="1" y1="-1" x2="5" y2="-1" stroke="#072756" stroke-width="2" stroke-linecap="round"/>
</g>
<defs>
<filter id="filter0_d_3779_109" x="-10.7507" y="-10.7507" width="43.4817" height="43.4817" filterUnits="userSpaceOnUse" color-interpolation-filters="sRGB">
<feFlood flood-opacity="0" result="BackgroundImageFix"/>
<feColorMatrix in="SourceAlpha" type="matrix" values="0 0 0 0 0 0 0 0 0 0 0 0 0 0 0 0 0 0 127 0" result="hardAlpha"/>
<feOffset/>
<feGaussianBlur stdDeviation="2"/>
<feColorMatrix type="matrix" values="0 0 0 0 1 0 0 0 0 0.329412 0 0 0 0 0 0 0 0 0.5 0"/>
<feBlend mode="normal" in2="BackgroundImageFix" result="effect1_dropShadow_3779_109"/>
<feBlend mode="normal" in="SourceGraphic" in2="effect1_dropShadow_3779_109" result="shape"/>
</filter>
<clipPath id="clip0_3779_109">
<rect width="96" height="96" fill="white"/>
</clipPath>
<clipPath id="clip1_3779_109">
<rect width="48" height="51" fill="white"/>
</clipPath>
</defs>
</svg>
