<svg width="900" height="900" viewBox="0 0 900 900" fill="none" xmlns="http://www.w3.org/2000/svg">
<g clip-path="url(#clip0_4749_182589)">
<path d="M753.78 563.27C741.81 565.11 729.44 566.02 716.61 566.02V566.01C662.99 565.98 601.6 549.81 530.22 517.04C453.21 481.67 375.17 431.89 306.33 387.96C261.04 359.06 218.26 331.77 180.85 311.74C155.21 298.02 130.16 288.32 112.09 285.13C71.2902 277.93 52.8802 299.02 52.7002 299.23" stroke="#FF5400" stroke-width="1.4" stroke-miterlimit="10"/>
<path d="M639.57 443.73H639.55C576.59 411.19 512.37 369.69 450.26 329.57C361.04 271.92 276.77 217.47 212.66 201C186.59 194.3 162.19 192.18 142.11 194.9C116.15 198.41 97.8296 212.34 87.0096 223.42C75.2996 235.41 69.6296 246.78 69.5996 246.83" stroke="#FF5400" stroke-width="1.4" stroke-miterlimit="10"/>
<path d="M754.97 409.72C713.04 387.76 649.67 339.76 576.3 284.17C555.5 268.41 534.01 252.13 512.09 235.74C465.85 201.18 427.95 176.1 392.83 156.78C348.29 132.28 308.63 117.36 271.56 111.11C233.52 104.71 203.63 111.81 185.26 118.88C165.35 126.56 154.22 135.92 154.16 135.97" stroke="#FF5400" stroke-width="1.4" stroke-miterlimit="10"/>
<path d="M728.449 346.47C728.449 346.47 728.419 346.45 728.409 346.45C715.219 337.09 701.429 311.5 683.969 279.11C659.999 234.65 630.189 179.32 585.079 131.72C560.529 105.84 533.699 84.9 505.309 69.49C472.369 51.63 436.059 40.46 397.379 36.29C344.199 30.57 304.569 39.77 280.699 48.5C254.809 57.96 241.319 68.92 241.189 69.03" stroke="#FF5400" stroke-width="1.4" stroke-miterlimit="10"/>
<path d="M876.97 453.67C872.75 487.84 862.92 517.82 846.93 545.37C813.24 603.4 762.97 637.05 697.48 645.44C670.04 652.72 640.21 655.03 608.81 652.75C608.81 652.75 608.77 652.74 608.77 652.73C607.14 652.6 605.52 652.47 603.88 652.32C541.82 646.57 482.66 624.48 441.82 605.73C374.43 574.78 275.6 508.98 196.18 456.11C144.55 421.75 99.9702 392.07 75.0902 379.18C52.9102 367.69 39.5202 366.92 32.1002 371.03C25.3902 374.72 24.7702 381.62 24.7402 381.81" stroke="#FF5400" stroke-width="1.4" stroke-miterlimit="10"/>
<path d="M781.97 670.52C777.19 678.75 758.66 699.33 722.65 718.32C689.18 735.98 642.49 745.23 589.57 745.22C589.56 745.22 589.51 745.22 589.5 745.22C569.73 745.22 549.08 743.92 527.94 741.29C444.96 730.96 361.25 701.19 292.24 657.49C214.2 608.07 144.39 547.75 99.5499 505.84C50.9599 460.44 20.4399 426.29 20.1299 425.96" stroke="#FF5400" stroke-width="1.4" stroke-miterlimit="10"/>
<path d="M783.39 748.01C782.98 748.39 741.9 786.55 680.81 810.38C655.27 820.34 607.34 834.61 542.36 834.6C542.36 834.6 542.35 834.58 542.34 834.58C525.35 834.58 507.2 833.6 487.98 831.32C444.67 826.16 401.01 814.87 358.21 797.72C309.57 778.23 261.46 750.96 215.19 716.65C160.04 675.74 110.38 627.45 76.7696 581.98C50.8696 546.95 41.6596 524.06 41.5596 523.84" stroke="#FF5400" stroke-width="1.4" stroke-miterlimit="10"/>
<path d="M834.97 371.89C834.2 370.71 757.76 253.65 670.07 150.22C598.07 65.27 522.69 19.68 446.08 14.7C398.8 11.63 353.11 22.78 323.1 32.69C290.58 43.41 268.96 55.02 268.75 55.14" stroke="#FF5400" stroke-width="1.4" stroke-miterlimit="10"/>
<path d="M448.39 14.49C449.4 14.48 550.52 13.21 603.69 38.31C632.32 51.81 666.16 69.79 705.6 112.52C753.3 164.21 798.34 239.87 843.27 343.85" stroke="#FF5400" stroke-width="1.4" stroke-miterlimit="10"/>
<path d="M625.73 846.11C576.35 862.24 529.54 870.09 482.82 870.09H482.8C481.34 870.09 479.87 870.09 478.41 870.08C421.08 869.48 363.28 856.52 306.65 831.58C246.18 804.94 192.14 761.54 157.49 729.82C119.93 695.46 96.3699 667.01 96.1299 666.73" stroke="#FF5400" stroke-width="1.4" stroke-miterlimit="10"/>
<path d="M712.8 93.88C713.44 94.34 777.76 140.36 814.16 213.59" stroke="#FF5400" stroke-width="1.4" stroke-miterlimit="10"/>
<path d="M157.372 139.713C155.304 141.464 152.203 141.224 150.448 139.161C148.693 137.098 148.933 134.004 151.001 132.253C153.068 130.502 156.17 130.742 157.925 132.805C159.679 134.868 159.439 137.962 157.372 139.713Z" fill="#FF5400"/>
<path d="M73.9982 248.966C72.7961 251.388 69.8631 252.396 67.411 251.196C64.9828 249.997 63.9731 247.071 65.1751 244.625C66.3772 242.202 69.3102 241.195 71.7624 242.394C74.1905 243.593 75.2002 246.519 73.9982 248.966Z" fill="#FF5400"/>
<path d="M637.302 448.092C639.706 449.339 642.687 448.404 643.937 446.005C645.187 443.607 644.25 440.632 641.845 439.385C639.441 438.138 636.46 439.073 635.21 441.472C633.96 443.871 634.898 446.845 637.302 448.092Z" fill="#FF5400"/>
<path d="M752.698 414.081C755.102 415.328 758.083 414.417 759.333 412.018C760.583 409.62 759.67 406.645 757.266 405.398C754.862 404.151 751.881 405.062 750.63 407.461C749.38 409.859 750.294 412.834 752.698 414.081Z" fill="#FF5400"/>
<path d="M244.304 72.7939C242.213 74.5208 239.111 74.233 237.38 72.1223C235.649 70.0356 235.962 66.9415 238.054 65.2145C240.145 63.4876 243.246 63.7994 244.977 65.8861C246.708 67.9728 246.42 71.0669 244.304 72.7939Z" fill="#FF5400"/>
<path d="M725.58 350.424C727.792 351.983 730.869 351.479 732.431 349.272C733.994 347.066 733.489 343.996 731.278 342.437C729.066 340.878 725.989 341.381 724.426 343.588C722.863 345.794 723.368 348.865 725.58 350.424Z" fill="#FF5400"/>
<path d="M881.797 454.232C882.133 451.546 880.21 449.099 877.518 448.763C874.825 448.428 872.373 450.347 872.036 453.033C871.7 455.719 873.623 458.166 876.316 458.502C879.008 458.837 881.46 456.918 881.797 454.232Z" fill="#FF5400"/>
<path d="M780.008 744.407C781.979 742.56 785.105 742.656 786.956 744.622C788.807 746.589 788.711 749.707 786.739 751.554C784.768 753.401 781.643 753.305 779.792 751.338C777.94 749.372 778.037 746.253 780.008 744.407Z" fill="#FF5400"/>
<path d="M271.085 59.4341C268.705 60.7293 265.724 59.8418 264.426 57.4673C263.127 55.0928 264.017 52.1186 266.397 50.8234C268.777 49.5282 271.758 50.4156 273.056 52.7902C274.354 55.1647 273.465 58.1389 271.085 59.4341Z" fill="#FF5400"/>
<path d="M448.459 19.3788C445.743 19.4267 443.507 17.268 443.459 14.5577C443.411 11.8474 445.598 9.61673 448.315 9.56876C451.032 9.52079 453.267 11.6795 453.316 14.3898C453.364 17.1001 451.2 19.3308 448.483 19.3788H448.459Z" fill="#FF5400"/>
<path d="M838.788 345.771C839.869 348.265 842.754 349.392 845.255 348.337C847.755 347.258 848.885 344.379 847.827 341.885C846.745 339.391 843.86 338.263 841.36 339.319C838.86 340.398 837.73 343.276 838.788 345.771Z" fill="#FF5400"/>
<path d="M92.3169 669.836C90.586 667.749 90.8985 664.655 92.9901 662.928C95.0816 661.201 98.1829 661.513 99.9139 663.6C101.645 665.687 101.332 668.781 99.2407 670.508C97.1491 672.235 94.0479 671.923 92.3169 669.836Z" fill="#FF5400"/>
<path d="M809.746 215.77C810.948 218.193 813.905 219.176 816.334 217.977C818.762 216.778 819.747 213.828 818.545 211.405C817.343 208.983 814.386 207.999 811.958 209.198C809.53 210.398 808.544 213.348 809.746 215.77Z" fill="#FF5400"/>
<path d="M29.6191 382.156C29.4027 384.843 27.0227 386.858 24.3301 386.642C21.6134 386.426 19.618 384.051 19.8344 381.365C20.0508 378.679 22.4308 376.664 25.1234 376.88C27.816 377.096 29.8354 379.47 29.6191 382.156Z" fill="#FF5400"/>
<path d="M777.652 668.064C779.022 665.713 782.027 664.922 784.359 666.265C786.715 667.632 787.508 670.63 786.162 672.957C784.792 675.307 781.787 676.099 779.455 674.756C777.099 673.388 776.305 670.39 777.652 668.064Z" fill="#FF5400"/>
<path d="M74.0109 249.001C72.8088 251.423 69.8758 252.431 67.4236 251.231C64.9955 250.032 63.9858 247.106 65.1878 244.659C66.3899 242.237 69.3229 241.229 71.7751 242.429C74.2032 243.628 75.2129 246.554 74.0109 249.001Z" fill="#FF5400"/>
<path d="M637.298 448.083C639.702 449.331 642.683 448.395 643.933 445.997C645.183 443.598 644.246 440.624 641.842 439.377C639.437 438.129 636.456 439.065 635.206 441.463C633.956 443.862 634.894 446.836 637.298 448.083Z" fill="#FF5400"/>
<path d="M752.686 414.061C755.09 415.309 758.071 414.397 759.322 411.999C760.572 409.6 759.658 406.626 757.254 405.379C754.85 404.131 751.869 405.043 750.619 407.441C749.369 409.84 750.282 412.814 752.686 414.061Z" fill="#FF5400"/>
<path d="M244.311 72.8158C242.219 74.5427 239.118 74.2549 237.387 72.1442C235.656 70.0575 235.969 66.9634 238.06 65.2364C240.152 63.5095 243.253 63.8213 244.984 65.908C246.715 67.9947 246.427 71.0889 244.311 72.8158Z" fill="#FF5400"/>
<path d="M725.6 350.464C727.812 352.023 730.889 351.519 732.452 349.312C734.015 347.106 733.51 344.035 731.298 342.476C729.086 340.917 726.009 341.421 724.446 343.628C722.884 345.834 723.389 348.905 725.6 350.464Z" fill="#FF5400"/>
<path d="M881.851 454.27C882.187 451.583 880.264 449.137 877.571 448.801C874.879 448.465 872.427 450.384 872.09 453.07C871.753 455.757 873.677 458.203 876.369 458.539C879.062 458.875 881.514 456.956 881.851 454.27Z" fill="#FF5400"/>
<path d="M780.024 744.436C781.995 742.589 785.12 742.685 786.971 744.652C788.822 746.619 788.726 749.737 786.755 751.584C784.784 753.431 781.658 753.335 779.807 751.368C777.956 749.401 778.052 746.283 780.024 744.436Z" fill="#FF5400"/>
<path d="M271.094 59.4454C268.714 60.7406 265.733 59.8531 264.434 57.4786C263.136 55.104 264.026 52.1299 266.406 50.8346C268.786 49.5394 271.767 50.4269 273.065 52.8014C274.363 55.176 273.474 58.1502 271.094 59.4454Z" fill="#FF5400"/>
<path d="M448.462 19.395C445.746 19.443 443.51 17.2843 443.462 14.574C443.414 11.8636 445.601 9.63298 448.318 9.58501C451.035 9.53704 453.27 11.6957 453.319 14.4061C453.367 17.1164 451.203 19.347 448.486 19.395H448.462Z" fill="#FF5400"/>
<path d="M838.75 345.793C839.831 348.287 842.716 349.415 845.216 348.359C847.717 347.28 848.847 344.402 847.789 341.907C846.707 339.413 843.822 338.285 841.322 339.341C838.822 340.42 837.692 343.298 838.75 345.793Z" fill="#FF5400"/>
<path d="M92.3316 669.848C90.6006 667.761 90.9132 664.667 93.0047 662.94C95.0963 661.213 98.1976 661.525 99.9285 663.612C101.659 665.699 101.347 668.793 99.2554 670.52C97.1638 672.247 94.0625 671.935 92.3316 669.848Z" fill="#FF5400"/>
<path d="M809.76 215.773C810.962 218.195 813.919 219.179 816.347 217.979C818.775 216.78 819.761 213.83 818.559 211.407C817.357 208.985 814.4 208.001 811.972 209.201C809.544 210.4 808.558 213.35 809.76 215.773Z" fill="#FF5400"/>
<path d="M29.6327 382.206C29.4164 384.892 27.0363 386.907 24.3437 386.691C21.6271 386.475 19.6317 384.101 19.8481 381.414C20.0645 378.728 22.4445 376.713 25.1371 376.929C27.8297 377.145 29.8491 379.519 29.6327 382.206Z" fill="#FF5400"/>
<path d="M777.715 668.074C779.085 665.723 782.091 664.931 784.423 666.275C786.779 667.642 787.572 670.64 786.226 672.966C784.855 675.317 781.85 676.109 779.518 674.765C777.162 673.398 776.369 670.4 777.715 668.074Z" fill="#FF5400"/>
<path d="M424.155 885.538C382.732 880.358 345.084 872.227 312.316 861.409C286.064 852.75 262.84 842.365 243.295 830.516C225.889 819.963 214.662 810.201 208.315 803.844C201.416 796.937 198.675 792.595 198.555 792.427L199.661 791.732C199.781 791.9 210.936 809.409 244.088 829.461C274.692 847.977 330.804 872.514 424.323 884.243L424.155 885.538Z" fill="url(#paint0_linear_4749_182589)"/>
<path d="M194.924 794.679C193.481 792.377 194.203 789.355 196.511 787.916C198.818 786.476 201.848 787.196 203.29 789.499C204.733 791.801 204.011 794.823 201.703 796.262C199.395 797.702 196.366 796.982 194.924 794.679Z" fill="url(#paint1_linear_4749_182589)"/>
<path d="M423.602 889.757C426.294 890.093 428.746 888.198 429.083 885.512C429.419 882.826 427.52 880.379 424.828 880.043C422.135 879.707 419.683 881.602 419.346 884.289C419.01 886.975 420.909 889.421 423.602 889.757Z" fill="url(#paint2_linear_4749_182589)"/>
</g>
<defs>
<linearGradient id="paint0_linear_4749_182589" x1="198.531" y1="838.647" x2="424.299" y2="838.647" gradientUnits="userSpaceOnUse">
<stop stop-color="#FF82B6"/>
<stop offset="1" stop-color="#00D9FF"/>
</linearGradient>
<linearGradient id="paint1_linear_4749_182589" x1="198.53" y1="792.089" x2="424.298" y2="792.089" gradientUnits="userSpaceOnUse">
<stop stop-color="#FF82B6"/>
<stop offset="1" stop-color="#00D9FF"/>
</linearGradient>
<linearGradient id="paint2_linear_4749_182589" x1="198.53" y1="884.888" x2="424.299" y2="884.888" gradientUnits="userSpaceOnUse">
<stop stop-color="#FF82B6"/>
<stop offset="1" stop-color="#00D9FF"/>
</linearGradient>
<clipPath id="clip0_4749_182589">
<rect width="900" height="900" fill="white"/>
</clipPath>
</defs>
</svg>
