<svg width="900" height="900" viewBox="0 0 900 900" fill="none" xmlns="http://www.w3.org/2000/svg">
<g filter="url(#filter0_d_5118_222336)">
<path d="M862.731 398.51C862.591 398.29 847.271 377.38 816.441 358.97C798.341 348.16 778.501 340.32 757.491 335.64C731.211 329.79 703.011 328.9 673.641 333.01C608.681 342.1 538.691 365.94 459.651 405.91C391.351 440.45 327.501 481.3 271.161 517.33C194.531 566.34 133.991 605.07 96.0908 606.81" stroke="#FF5400" stroke-width="2.5" stroke-miterlimit="10"/>
</g>
<g filter="url(#filter1_d_5118_222336)">
<path d="M121.49 696.18C129.64 699.85 143.39 701.72 159.25 701.68C159.25 701.68 159.27 701.69 159.28 701.69C171.3 701.66 184.54 700.54 197.5 698.28C268.44 685.9 330.87 644.45 466.82 545.67C512.22 512.68 561.94 480.02 610.57 453.89C644.63 435.58 677.77 420.65 708.45 410.63C758.62 394.24 781.34 397.81 781.92 397.92" stroke="#FF5400" stroke-width="2.6" stroke-miterlimit="10"/>
</g>
<g filter="url(#filter2_d_5118_222336)">
<path d="M688.46 526.42C688.09 526.66 649.92 551.77 572.6 609.86C552.03 625.32 532.38 640.76 513.36 655.7C446.75 708.02 389.22 753.22 323.69 775.87C299.24 784.32 273.41 788.77 250.42 788.77C240.59 788.77 231.28 787.96 222.82 786.3" stroke="#FF5400" stroke-width="2.5" stroke-miterlimit="10"/>
</g>
<g filter="url(#filter3_d_5118_222336)">
<path d="M241.19 829.12C274.14 844.69 307.02 852.47 340.25 852.47H340.27C376.11 852.47 412.36 843.4 449.59 825.27C514.78 793.53 576.98 736.73 634.5 680.09C722.78 593.16 788.82 529.04 789.47 528.39" stroke="#FF5400" stroke-width="2.5" stroke-miterlimit="10"/>
</g>
<g filter="url(#filter4_d_5118_222336)">
<path d="M396.311 880.85C396.711 880.97 409.761 884.6 431.341 885.33C433.671 885.4 436.141 885.45 438.731 885.45C459.151 885.45 486.881 882.64 517.951 871.88C580.051 850.37 638.421 813.01 686.771 763.84C710.091 740.12 730.321 714.36 746.901 687.27C763.701 659.81 776.391 631.58 784.601 603.35C802.281 542.57 800.601 489.95 796.091 456.5C791.211 420.26 782.011 398.12 781.921 397.9" stroke="#FF5400" stroke-width="2.5" stroke-miterlimit="10"/>
</g>
<g filter="url(#filter5_d_5118_222336)">
<path d="M41.5303 523.84L41.5503 523.85C59.1603 522.45 89.4103 501.78 168.14 445.3C170.42 443.67 172.8 441.97 175.26 440.19C216.76 410.38 279.43 365.31 355.18 324.8C446.18 276.13 531.26 247.81 608.05 240.61C674.79 234.35 725.12 250.61 755.6 265.35C788.64 281.34 806.16 299.06 806.33 299.24" stroke="#FF5400" stroke-width="2.5" stroke-miterlimit="10"/>
</g>
<g filter="url(#filter6_d_5118_222336)">
<path d="M815.16 260.3C814.97 260.01 795.22 231.11 755.72 203.11C732.53 186.68 707.17 173.75 680.34 164.71C646.81 153.4 610.87 148.15 573.53 149.1C485.73 151.33 385.46 183.81 283.57 243.01C191.79 296.34 104.47 368.2 37.6602 445.34" stroke="#FF5400" stroke-width="2.5" stroke-miterlimit="10"/>
</g>
<g filter="url(#filter7_d_5118_222336)">
<path d="M20.9004 414.3C20.9004 414.3 20.9104 414.3 20.9204 414.29C39.2804 368.41 67.9104 323.48 106 280.73C142.41 239.88 185.6 203.04 234.35 171.23C282.8 139.63 333.69 115 385.56 98.0101C439.26 80.4401 490.93 72.1301 539.17 73.3301C584.16 74.4501 626.86 83.1401 666.08 99.1601C697.45 111.98 726.69 129.51 752.95 151.24C797.69 188.26 818.62 225.2 818.82 225.57" stroke="#FF5400" stroke-width="2.5" stroke-miterlimit="10"/>
</g>
<g filter="url(#filter8_d_5118_222336)">
<path d="M29.6104 355.77C29.6104 355.77 29.6304 355.73 29.6304 355.72C49.3804 298.82 80.1704 246.31 121.16 199.65C153.39 162.95 191.06 130.66 233.11 103.68C295.12 63.89 358.53 40.25 438.7 27.05C468.29 22.18 500.73 22.37 535.1 27.65C562.6 31.88 591.4 39.34 620.7 49.82C670.58 67.69 705.07 88.45 705.42 88.65" stroke="#FF5400" stroke-width="2.5" stroke-miterlimit="10"/>
</g>
<g filter="url(#filter9_d_5118_222336)">
<path d="M717 755C716.88 755.22 705.7 776.78 680.19 802.27C656.64 825.82 615.71 857.63 554.49 875.46" stroke="#FF5400" stroke-width="1.3" stroke-miterlimit="10"/>
</g>
<g filter="url(#filter10_d_5118_222336)">
<path d="M56.4482 302.405C54.6932 304.468 51.5919 304.732 49.5244 302.981C47.4569 301.23 47.1924 298.136 48.9474 296.073C50.7024 294.01 53.8037 293.747 55.8712 295.497C57.9387 297.248 58.2032 300.343 56.4482 302.405Z" fill="#FF5400"/>
</g>
<g filter="url(#filter11_d_5118_222336)">
<path d="M754.549 568.117C757.242 567.709 759.069 565.191 758.66 562.528C758.252 559.842 755.727 558.019 753.059 558.427C750.366 558.835 748.539 561.353 748.948 564.015C749.356 566.702 751.881 568.525 754.549 568.117Z" fill="#FF5400"/>
</g>
<g filter="url(#filter12_d_5118_222336)">
<path d="M830.854 374.553C832.321 376.832 835.374 377.479 837.658 375.992C839.942 374.529 840.591 371.483 839.1 369.204C837.634 366.926 834.581 366.278 832.297 367.765C830.013 369.228 829.364 372.274 830.854 374.553Z" fill="#FF5400"/>
</g>
<g filter="url(#filter13_d_5118_222336)">
<path d="M627.228 850.781C629.801 849.942 631.219 847.16 630.378 844.593C629.536 842.027 626.748 840.612 624.175 841.451C621.603 842.291 620.184 845.073 621.026 847.639C621.867 850.206 624.656 851.621 627.228 850.781Z" fill="#FF5400"/>
</g>
<g filter="url(#filter14_d_5118_222336)">
<path d="M772.843 401.704C770.752 396.716 773.108 390.959 778.108 388.872C783.109 386.786 788.878 389.136 790.97 394.125C793.062 399.114 790.705 404.87 785.705 406.957C780.704 409.044 774.935 406.693 772.843 401.704Z" fill="#FF5400"/>
</g>
<g filter="url(#filter15_d_5118_222336)">
<path d="M40.7493 514.051C35.3401 514.483 31.3012 519.208 31.7339 524.605C32.1667 530.001 36.9027 534.031 42.3119 533.599C47.7211 533.167 51.76 528.442 51.3273 523.046C50.8945 517.649 46.1585 513.619 40.7493 514.051Z" fill="#FF5400"/>
</g>
<g filter="url(#filter16_d_5118_222336)">
<path d="M30.2196 438.953C26.6615 443.055 27.1183 449.243 31.2293 452.793C35.3403 456.343 41.5428 455.887 45.1009 451.785C48.6589 447.684 48.2022 441.496 44.0912 437.946C39.9802 434.396 33.7776 434.852 30.2196 438.953Z" fill="#FF5400"/>
</g>
<g filter="url(#filter17_d_5118_222336)">
<path d="M11.7561 410.651C9.73668 415.688 12.1889 421.396 17.2375 423.387C22.286 425.402 28.0078 422.955 30.0032 417.918C32.0226 412.881 29.5704 407.173 24.5219 405.182C19.4733 403.167 13.7515 405.614 11.7561 410.651Z" fill="#FF5400"/>
</g>
<g filter="url(#filter18_d_5118_222336)">
<path d="M710.506 80.3013C715.146 83.1076 716.612 89.1519 713.8 93.781C710.987 98.4102 704.929 99.8733 700.289 97.067C695.649 94.2607 694.182 88.2165 696.995 83.5873C699.808 78.9581 705.866 77.495 710.506 80.3013Z" fill="#FF5400"/>
</g>
<g filter="url(#filter19_d_5118_222336)">
<path d="M709.953 97.8586C707.741 96.2996 707.212 93.2295 708.775 91.0228C710.338 88.8162 713.415 88.2885 715.627 89.8475C717.839 91.4066 718.367 94.4767 716.805 96.6833C715.242 98.89 712.165 99.4177 709.953 97.8586Z" fill="#FF5400"/>
</g>
<g filter="url(#filter20_d_5118_222336)">
<path d="M870.715 392.782C873.888 397.171 872.879 403.311 868.479 406.477C864.08 409.643 857.925 408.636 854.752 404.247C851.578 399.857 852.588 393.717 856.988 390.551C861.387 387.385 867.542 388.393 870.715 392.782Z" fill="#FF5400"/>
</g>
<g filter="url(#filter21_d_5118_222336)">
<path d="M95.6592 597.017C90.25 597.256 86.0428 601.862 86.2832 607.258C86.5237 612.679 91.1395 616.852 96.5487 616.613C101.958 616.373 106.165 611.768 105.925 606.371C105.684 600.974 101.068 596.777 95.6592 597.017Z" fill="#FF5400"/>
</g>
<g filter="url(#filter22_d_5118_222336)">
<path d="M125.542 687.252C120.589 685.021 114.772 687.228 112.536 692.145C110.3 697.086 112.512 702.89 117.44 705.121C122.393 707.351 128.21 705.145 130.446 700.228C132.682 695.287 130.47 689.482 125.542 687.252Z" fill="#FF5400"/>
</g>
<g filter="url(#filter23_d_5118_222336)">
<path d="M683.075 518.251C687.619 515.277 693.701 516.548 696.682 521.058C699.663 525.591 698.389 531.659 693.869 534.633C689.326 537.607 683.243 536.336 680.262 531.827C677.281 527.294 678.555 521.225 683.075 518.251Z" fill="#FF5400"/>
</g>
<g filter="url(#filter24_d_5118_222336)">
<path d="M224.71 776.693C219.373 775.661 214.229 779.115 213.171 784.416C212.137 789.741 215.599 794.874 220.912 795.929C226.225 796.984 231.394 793.506 232.452 788.206C233.509 782.905 230.023 777.748 224.71 776.693Z" fill="#FF5400"/>
</g>
<g filter="url(#filter25_d_5118_222336)">
<path d="M782.604 521.367C786.498 517.601 792.725 517.673 796.499 521.559C800.274 525.444 800.202 531.657 796.307 535.422C792.412 539.188 786.186 539.116 782.411 535.23C778.637 531.345 778.709 525.133 782.604 521.367Z" fill="#FF5400"/>
</g>
<g filter="url(#filter26_d_5118_222336)">
<path d="M245.386 820.25C240.482 817.924 234.616 820.034 232.308 824.927C229.976 829.82 232.091 835.673 236.996 837.975C241.9 840.302 247.766 838.191 250.074 833.298C252.406 828.405 250.29 822.553 245.386 820.25Z" fill="#FF5400"/>
</g>
<g filter="url(#filter27_d_5118_222336)">
<path d="M398.983 871.433C393.767 869.946 388.333 872.968 386.843 878.173C385.352 883.378 388.381 888.798 393.598 890.285C398.815 891.772 404.248 888.75 405.739 883.546C407.229 878.341 404.2 872.92 398.983 871.433Z" fill="#FF5400"/>
</g>
<g filter="url(#filter28_d_5118_222336)">
<path d="M813.353 292.379C817.127 296.265 817.055 302.477 813.161 306.243C809.266 310.009 803.039 309.937 799.265 306.051C795.491 302.165 795.563 295.953 799.457 292.187C803.352 288.422 809.579 288.494 813.353 292.379Z" fill="#FF5400"/>
</g>
<g filter="url(#filter29_d_5118_222336)">
<path d="M823.306 254.842C826.335 259.327 825.133 265.42 820.637 268.442C816.142 271.464 810.035 270.265 807.006 265.78C803.977 261.294 805.179 255.202 809.675 252.18C814.17 249.158 820.277 250.357 823.306 254.842Z" fill="#FF5400"/>
</g>
<g filter="url(#filter30_d_5118_222336)">
<path d="M827.393 220.759C830.037 225.485 828.331 231.457 823.594 234.095C818.858 236.734 812.872 235.031 810.228 230.306C807.583 225.58 809.29 219.608 814.026 216.97C818.762 214.331 824.748 216.034 827.393 220.759Z" fill="#FF5400"/>
</g>
<g filter="url(#filter31_d_5118_222336)">
<path d="M20.3148 352.559C18.5357 357.667 21.2523 363.256 26.3971 365.031C31.5178 366.806 37.1194 364.095 38.8984 358.963C40.6774 353.854 37.9608 348.265 32.816 346.49C27.6953 344.715 22.0938 347.426 20.3148 352.559Z" fill="#FF5400"/>
</g>
<g filter="url(#filter32_d_5118_222336)">
<path d="M712.622 752.756C713.848 750.333 716.805 749.398 719.233 750.621C721.661 751.844 722.598 754.795 721.372 757.217C720.146 759.64 717.189 760.575 714.761 759.352C712.333 758.129 711.395 755.178 712.622 752.756Z" fill="#FF5400"/>
</g>
<g filter="url(#filter33_d_5118_222336)">
<path d="M553.11 870.763C550.513 871.531 548.999 874.241 549.768 876.856C550.537 879.446 553.254 880.957 555.874 880.19C558.471 879.422 559.985 876.712 559.216 874.097C558.447 871.507 555.73 869.996 553.11 870.763Z" fill="#FF5400"/>
</g>
<g filter="url(#filter34_d_5118_222336)">
<path d="M783.566 388.249C788.903 389.16 792.509 394.245 791.596 399.57C790.682 404.894 785.585 408.492 780.248 407.581C774.911 406.669 771.305 401.584 772.219 396.26C773.132 390.935 778.229 387.337 783.566 388.249Z" fill="#FF5400"/>
</g>
<g filter="url(#filter35_d_5118_222336)">
<path d="M23.8005 422.667C21.9975 420.653 18.8962 420.461 16.8527 422.26C14.8333 424.059 14.6409 427.153 16.444 429.191C18.2471 431.206 21.3483 431.398 23.3918 429.599C25.4113 427.8 25.6036 424.706 23.8005 422.667Z" fill="#FF5400"/>
</g>
<g filter="url(#filter36_d_5118_222336)">
<path d="M46.1106 522.039C45.1009 519.52 42.2641 518.297 39.7398 519.28C37.2155 520.288 35.9894 523.118 36.9751 525.636C37.9848 528.155 40.8216 529.378 43.3459 528.395C45.8702 527.387 47.0963 524.557 46.1106 522.039Z" fill="#FF5400"/>
</g>
<defs>
<filter id="filter0_d_5118_222336" x="92.0332" y="325.223" width="775.752" height="286.835" filterUnits="userSpaceOnUse" color-interpolation-filters="sRGB">
<feFlood flood-opacity="0" result="BackgroundImageFix"/>
<feColorMatrix in="SourceAlpha" type="matrix" values="0 0 0 0 0 0 0 0 0 0 0 0 0 0 0 0 0 0 127 0" result="hardAlpha"/>
<feOffset/>
<feGaussianBlur stdDeviation="2"/>
<feComposite in2="hardAlpha" operator="out"/>
<feColorMatrix type="matrix" values="0 0 0 0 1 0 0 0 0 0.329412 0 0 0 0 0 0 0 0 1 0"/>
<feBlend mode="normal" in2="BackgroundImageFix" result="effect1_dropShadow_5118_222336"/>
<feBlend mode="normal" in="SourceGraphic" in2="effect1_dropShadow_5118_222336" result="shape"/>
</filter>
<filter id="filter1_d_5118_222336" x="116.956" y="392.218" width="669.206" height="314.772" filterUnits="userSpaceOnUse" color-interpolation-filters="sRGB">
<feFlood flood-opacity="0" result="BackgroundImageFix"/>
<feColorMatrix in="SourceAlpha" type="matrix" values="0 0 0 0 0 0 0 0 0 0 0 0 0 0 0 0 0 0 127 0" result="hardAlpha"/>
<feOffset/>
<feGaussianBlur stdDeviation="2"/>
<feComposite in2="hardAlpha" operator="out"/>
<feColorMatrix type="matrix" values="0 0 0 0 1 0 0 0 0 0.329412 0 0 0 0 0 0 0 0 1 0"/>
<feBlend mode="normal" in2="BackgroundImageFix" result="effect1_dropShadow_5118_222336"/>
<feBlend mode="normal" in="SourceGraphic" in2="effect1_dropShadow_5118_222336" result="shape"/>
</filter>
<filter id="filter2_d_5118_222336" x="218.58" y="521.371" width="474.561" height="272.649" filterUnits="userSpaceOnUse" color-interpolation-filters="sRGB">
<feFlood flood-opacity="0" result="BackgroundImageFix"/>
<feColorMatrix in="SourceAlpha" type="matrix" values="0 0 0 0 0 0 0 0 0 0 0 0 0 0 0 0 0 0 127 0" result="hardAlpha"/>
<feOffset/>
<feGaussianBlur stdDeviation="2"/>
<feComposite in2="hardAlpha" operator="out"/>
<feColorMatrix type="matrix" values="0 0 0 0 1 0 0 0 0 0.329412 0 0 0 0 0 0 0 0 1 0"/>
<feBlend mode="normal" in2="BackgroundImageFix" result="effect1_dropShadow_5118_222336"/>
<feBlend mode="normal" in="SourceGraphic" in2="effect1_dropShadow_5118_222336" result="shape"/>
</filter>
<filter id="filter3_d_5118_222336" x="236.656" y="523.506" width="557.698" height="334.214" filterUnits="userSpaceOnUse" color-interpolation-filters="sRGB">
<feFlood flood-opacity="0" result="BackgroundImageFix"/>
<feColorMatrix in="SourceAlpha" type="matrix" values="0 0 0 0 0 0 0 0 0 0 0 0 0 0 0 0 0 0 127 0" result="hardAlpha"/>
<feOffset/>
<feGaussianBlur stdDeviation="2"/>
<feComposite in2="hardAlpha" operator="out"/>
<feColorMatrix type="matrix" values="0 0 0 0 1 0 0 0 0 0.329412 0 0 0 0 0 0 0 0 1 0"/>
<feBlend mode="normal" in2="BackgroundImageFix" result="effect1_dropShadow_5118_222336"/>
<feBlend mode="normal" in="SourceGraphic" in2="effect1_dropShadow_5118_222336" result="shape"/>
</filter>
<filter id="filter4_d_5118_222336" x="391.951" y="393.426" width="412.397" height="497.274" filterUnits="userSpaceOnUse" color-interpolation-filters="sRGB">
<feFlood flood-opacity="0" result="BackgroundImageFix"/>
<feColorMatrix in="SourceAlpha" type="matrix" values="0 0 0 0 0 0 0 0 0 0 0 0 0 0 0 0 0 0 127 0" result="hardAlpha"/>
<feOffset/>
<feGaussianBlur stdDeviation="2"/>
<feComposite in2="hardAlpha" operator="out"/>
<feColorMatrix type="matrix" values="0 0 0 0 1 0 0 0 0 0.329412 0 0 0 0 0 0 0 0 1 0"/>
<feBlend mode="normal" in2="BackgroundImageFix" result="effect1_dropShadow_5118_222336"/>
<feBlend mode="normal" in="SourceGraphic" in2="effect1_dropShadow_5118_222336" result="shape"/>
</filter>
<filter id="filter5_d_5118_222336" x="36.9736" y="233.982" width="774.266" height="295.142" filterUnits="userSpaceOnUse" color-interpolation-filters="sRGB">
<feFlood flood-opacity="0" result="BackgroundImageFix"/>
<feColorMatrix in="SourceAlpha" type="matrix" values="0 0 0 0 0 0 0 0 0 0 0 0 0 0 0 0 0 0 127 0" result="hardAlpha"/>
<feOffset/>
<feGaussianBlur stdDeviation="2"/>
<feComposite in2="hardAlpha" operator="out"/>
<feColorMatrix type="matrix" values="0 0 0 0 1 0 0 0 0 0.329412 0 0 0 0 0 0 0 0 1 0"/>
<feBlend mode="normal" in2="BackgroundImageFix" result="effect1_dropShadow_5118_222336"/>
<feBlend mode="normal" in="SourceGraphic" in2="effect1_dropShadow_5118_222336" result="shape"/>
</filter>
<filter id="filter6_d_5118_222336" x="32.7148" y="143.741" width="787.491" height="306.418" filterUnits="userSpaceOnUse" color-interpolation-filters="sRGB">
<feFlood flood-opacity="0" result="BackgroundImageFix"/>
<feColorMatrix in="SourceAlpha" type="matrix" values="0 0 0 0 0 0 0 0 0 0 0 0 0 0 0 0 0 0 127 0" result="hardAlpha"/>
<feOffset/>
<feGaussianBlur stdDeviation="2"/>
<feComposite in2="hardAlpha" operator="out"/>
<feColorMatrix type="matrix" values="0 0 0 0 1 0 0 0 0 0.329412 0 0 0 0 0 0 0 0 1 0"/>
<feBlend mode="normal" in2="BackgroundImageFix" result="effect1_dropShadow_5118_222336"/>
<feBlend mode="normal" in="SourceGraphic" in2="effect1_dropShadow_5118_222336" result="shape"/>
</filter>
<filter id="filter7_d_5118_222336" x="15.7598" y="67.9664" width="808.16" height="351.584" filterUnits="userSpaceOnUse" color-interpolation-filters="sRGB">
<feFlood flood-opacity="0" result="BackgroundImageFix"/>
<feColorMatrix in="SourceAlpha" type="matrix" values="0 0 0 0 0 0 0 0 0 0 0 0 0 0 0 0 0 0 127 0" result="hardAlpha"/>
<feOffset/>
<feGaussianBlur stdDeviation="2"/>
<feComposite in2="hardAlpha" operator="out"/>
<feColorMatrix type="matrix" values="0 0 0 0 1 0 0 0 0 0.329412 0 0 0 0 0 0 0 0 1 0"/>
<feBlend mode="normal" in2="BackgroundImageFix" result="effect1_dropShadow_5118_222336"/>
<feBlend mode="normal" in="SourceGraphic" in2="effect1_dropShadow_5118_222336" result="shape"/>
</filter>
<filter id="filter8_d_5118_222336" x="24.3799" y="18.288" width="685.661" height="342.041" filterUnits="userSpaceOnUse" color-interpolation-filters="sRGB">
<feFlood flood-opacity="0" result="BackgroundImageFix"/>
<feColorMatrix in="SourceAlpha" type="matrix" values="0 0 0 0 0 0 0 0 0 0 0 0 0 0 0 0 0 0 127 0" result="hardAlpha"/>
<feOffset/>
<feGaussianBlur stdDeviation="2"/>
<feComposite in2="hardAlpha" operator="out"/>
<feColorMatrix type="matrix" values="0 0 0 0 1 0 0 0 0 0.329412 0 0 0 0 0 0 0 0 1 0"/>
<feBlend mode="normal" in2="BackgroundImageFix" result="effect1_dropShadow_5118_222336"/>
<feBlend mode="normal" in="SourceGraphic" in2="effect1_dropShadow_5118_222336" result="shape"/>
</filter>
<filter id="filter9_d_5118_222336" x="550.309" y="750.689" width="171.263" height="129.395" filterUnits="userSpaceOnUse" color-interpolation-filters="sRGB">
<feFlood flood-opacity="0" result="BackgroundImageFix"/>
<feColorMatrix in="SourceAlpha" type="matrix" values="0 0 0 0 0 0 0 0 0 0 0 0 0 0 0 0 0 0 127 0" result="hardAlpha"/>
<feOffset/>
<feGaussianBlur stdDeviation="2"/>
<feComposite in2="hardAlpha" operator="out"/>
<feColorMatrix type="matrix" values="0 0 0 0 1 0 0 0 0 0.329412 0 0 0 0 0 0 0 0 1 0"/>
<feBlend mode="normal" in2="BackgroundImageFix" result="effect1_dropShadow_5118_222336"/>
<feBlend mode="normal" in="SourceGraphic" in2="effect1_dropShadow_5118_222336" result="shape"/>
</filter>
<filter id="filter10_d_5118_222336" x="43.7852" y="290.338" width="17.8252" height="17.8026" filterUnits="userSpaceOnUse" color-interpolation-filters="sRGB">
<feFlood flood-opacity="0" result="BackgroundImageFix"/>
<feColorMatrix in="SourceAlpha" type="matrix" values="0 0 0 0 0 0 0 0 0 0 0 0 0 0 0 0 0 0 127 0" result="hardAlpha"/>
<feOffset/>
<feGaussianBlur stdDeviation="2"/>
<feComposite in2="hardAlpha" operator="out"/>
<feColorMatrix type="matrix" values="0 0 0 0 1 0 0 0 0 0.329412 0 0 0 0 0 0 0 0 1 0"/>
<feBlend mode="normal" in2="BackgroundImageFix" result="effect1_dropShadow_5118_222336"/>
<feBlend mode="normal" in="SourceGraphic" in2="effect1_dropShadow_5118_222336" result="shape"/>
</filter>
<filter id="filter11_d_5118_222336" x="744.891" y="554.37" width="17.8271" height="17.8041" filterUnits="userSpaceOnUse" color-interpolation-filters="sRGB">
<feFlood flood-opacity="0" result="BackgroundImageFix"/>
<feColorMatrix in="SourceAlpha" type="matrix" values="0 0 0 0 0 0 0 0 0 0 0 0 0 0 0 0 0 0 127 0" result="hardAlpha"/>
<feOffset/>
<feGaussianBlur stdDeviation="2"/>
<feComposite in2="hardAlpha" operator="out"/>
<feColorMatrix type="matrix" values="0 0 0 0 1 0 0 0 0 0.329412 0 0 0 0 0 0 0 0 1 0"/>
<feBlend mode="normal" in2="BackgroundImageFix" result="effect1_dropShadow_5118_222336"/>
<feBlend mode="normal" in="SourceGraphic" in2="effect1_dropShadow_5118_222336" result="shape"/>
</filter>
<filter id="filter12_d_5118_222336" x="826.053" y="362.966" width="17.8486" height="17.8263" filterUnits="userSpaceOnUse" color-interpolation-filters="sRGB">
<feFlood flood-opacity="0" result="BackgroundImageFix"/>
<feColorMatrix in="SourceAlpha" type="matrix" values="0 0 0 0 0 0 0 0 0 0 0 0 0 0 0 0 0 0 127 0" result="hardAlpha"/>
<feOffset/>
<feGaussianBlur stdDeviation="2"/>
<feComposite in2="hardAlpha" operator="out"/>
<feColorMatrix type="matrix" values="0 0 0 0 1 0 0 0 0 0.329412 0 0 0 0 0 0 0 0 1 0"/>
<feBlend mode="normal" in2="BackgroundImageFix" result="effect1_dropShadow_5118_222336"/>
<feBlend mode="normal" in="SourceGraphic" in2="effect1_dropShadow_5118_222336" result="shape"/>
</filter>
<filter id="filter13_d_5118_222336" x="616.783" y="837.209" width="17.8369" height="17.8145" filterUnits="userSpaceOnUse" color-interpolation-filters="sRGB">
<feFlood flood-opacity="0" result="BackgroundImageFix"/>
<feColorMatrix in="SourceAlpha" type="matrix" values="0 0 0 0 0 0 0 0 0 0 0 0 0 0 0 0 0 0 127 0" result="hardAlpha"/>
<feOffset/>
<feGaussianBlur stdDeviation="2"/>
<feComposite in2="hardAlpha" operator="out"/>
<feColorMatrix type="matrix" values="0 0 0 0 1 0 0 0 0 0.329412 0 0 0 0 0 0 0 0 1 0"/>
<feBlend mode="normal" in2="BackgroundImageFix" result="effect1_dropShadow_5118_222336"/>
<feBlend mode="normal" in="SourceGraphic" in2="effect1_dropShadow_5118_222336" result="shape"/>
</filter>
<filter id="filter14_d_5118_222336" x="768.08" y="384.111" width="27.6533" height="27.6074" filterUnits="userSpaceOnUse" color-interpolation-filters="sRGB">
<feFlood flood-opacity="0" result="BackgroundImageFix"/>
<feColorMatrix in="SourceAlpha" type="matrix" values="0 0 0 0 0 0 0 0 0 0 0 0 0 0 0 0 0 0 127 0" result="hardAlpha"/>
<feOffset/>
<feGaussianBlur stdDeviation="2"/>
<feComposite in2="hardAlpha" operator="out"/>
<feColorMatrix type="matrix" values="0 0 0 0 1 0 0 0 0 0.329412 0 0 0 0 0 0 0 0 1 0"/>
<feBlend mode="normal" in2="BackgroundImageFix" result="effect1_dropShadow_5118_222336"/>
<feBlend mode="normal" in="SourceGraphic" in2="effect1_dropShadow_5118_222336" result="shape"/>
</filter>
<filter id="filter15_d_5118_222336" x="27.7021" y="510.02" width="27.6572" height="27.6115" filterUnits="userSpaceOnUse" color-interpolation-filters="sRGB">
<feFlood flood-opacity="0" result="BackgroundImageFix"/>
<feColorMatrix in="SourceAlpha" type="matrix" values="0 0 0 0 0 0 0 0 0 0 0 0 0 0 0 0 0 0 127 0" result="hardAlpha"/>
<feOffset/>
<feGaussianBlur stdDeviation="2"/>
<feComposite in2="hardAlpha" operator="out"/>
<feColorMatrix type="matrix" values="0 0 0 0 1 0 0 0 0 0.329412 0 0 0 0 0 0 0 0 1 0"/>
<feBlend mode="normal" in2="BackgroundImageFix" result="effect1_dropShadow_5118_222336"/>
<feBlend mode="normal" in="SourceGraphic" in2="effect1_dropShadow_5118_222336" result="shape"/>
</filter>
<filter id="filter16_d_5118_222336" x="23.8223" y="431.554" width="27.6758" height="27.6304" filterUnits="userSpaceOnUse" color-interpolation-filters="sRGB">
<feFlood flood-opacity="0" result="BackgroundImageFix"/>
<feColorMatrix in="SourceAlpha" type="matrix" values="0 0 0 0 0 0 0 0 0 0 0 0 0 0 0 0 0 0 127 0" result="hardAlpha"/>
<feOffset/>
<feGaussianBlur stdDeviation="2"/>
<feComposite in2="hardAlpha" operator="out"/>
<feColorMatrix type="matrix" values="0 0 0 0 1 0 0 0 0 0.329412 0 0 0 0 0 0 0 0 1 0"/>
<feBlend mode="normal" in2="BackgroundImageFix" result="effect1_dropShadow_5118_222336"/>
<feBlend mode="normal" in="SourceGraphic" in2="effect1_dropShadow_5118_222336" result="shape"/>
</filter>
<filter id="filter17_d_5118_222336" x="7.04883" y="400.476" width="27.6621" height="27.6161" filterUnits="userSpaceOnUse" color-interpolation-filters="sRGB">
<feFlood flood-opacity="0" result="BackgroundImageFix"/>
<feColorMatrix in="SourceAlpha" type="matrix" values="0 0 0 0 0 0 0 0 0 0 0 0 0 0 0 0 0 0 127 0" result="hardAlpha"/>
<feOffset/>
<feGaussianBlur stdDeviation="2"/>
<feComposite in2="hardAlpha" operator="out"/>
<feColorMatrix type="matrix" values="0 0 0 0 1 0 0 0 0 0.329412 0 0 0 0 0 0 0 0 1 0"/>
<feBlend mode="normal" in2="BackgroundImageFix" result="effect1_dropShadow_5118_222336"/>
<feBlend mode="normal" in="SourceGraphic" in2="effect1_dropShadow_5118_222336" result="shape"/>
</filter>
<filter id="filter18_d_5118_222336" x="691.566" y="74.876" width="27.6621" height="27.6163" filterUnits="userSpaceOnUse" color-interpolation-filters="sRGB">
<feFlood flood-opacity="0" result="BackgroundImageFix"/>
<feColorMatrix in="SourceAlpha" type="matrix" values="0 0 0 0 0 0 0 0 0 0 0 0 0 0 0 0 0 0 127 0" result="hardAlpha"/>
<feOffset/>
<feGaussianBlur stdDeviation="2"/>
<feComposite in2="hardAlpha" operator="out"/>
<feColorMatrix type="matrix" values="0 0 0 0 1 0 0 0 0 0.329412 0 0 0 0 0 0 0 0 1 0"/>
<feBlend mode="normal" in2="BackgroundImageFix" result="effect1_dropShadow_5118_222336"/>
<feBlend mode="normal" in="SourceGraphic" in2="effect1_dropShadow_5118_222336" result="shape"/>
</filter>
<filter id="filter19_d_5118_222336" x="703.877" y="84.9514" width="17.8262" height="17.8033" filterUnits="userSpaceOnUse" color-interpolation-filters="sRGB">
<feFlood flood-opacity="0" result="BackgroundImageFix"/>
<feColorMatrix in="SourceAlpha" type="matrix" values="0 0 0 0 0 0 0 0 0 0 0 0 0 0 0 0 0 0 127 0" result="hardAlpha"/>
<feOffset/>
<feGaussianBlur stdDeviation="2"/>
<feComposite in2="hardAlpha" operator="out"/>
<feColorMatrix type="matrix" values="0 0 0 0 1 0 0 0 0 0.329412 0 0 0 0 0 0 0 0 1 0"/>
<feBlend mode="normal" in2="BackgroundImageFix" result="effect1_dropShadow_5118_222336"/>
<feBlend mode="normal" in="SourceGraphic" in2="effect1_dropShadow_5118_222336" result="shape"/>
</filter>
<filter id="filter20_d_5118_222336" x="848.9" y="384.704" width="27.666" height="27.6204" filterUnits="userSpaceOnUse" color-interpolation-filters="sRGB">
<feFlood flood-opacity="0" result="BackgroundImageFix"/>
<feColorMatrix in="SourceAlpha" type="matrix" values="0 0 0 0 0 0 0 0 0 0 0 0 0 0 0 0 0 0 127 0" result="hardAlpha"/>
<feOffset/>
<feGaussianBlur stdDeviation="2"/>
<feComposite in2="hardAlpha" operator="out"/>
<feColorMatrix type="matrix" values="0 0 0 0 1 0 0 0 0 0.329412 0 0 0 0 0 0 0 0 1 0"/>
<feBlend mode="normal" in2="BackgroundImageFix" result="effect1_dropShadow_5118_222336"/>
<feBlend mode="normal" in="SourceGraphic" in2="effect1_dropShadow_5118_222336" result="shape"/>
</filter>
<filter id="filter21_d_5118_222336" x="82.2734" y="593.007" width="27.6611" height="27.6156" filterUnits="userSpaceOnUse" color-interpolation-filters="sRGB">
<feFlood flood-opacity="0" result="BackgroundImageFix"/>
<feColorMatrix in="SourceAlpha" type="matrix" values="0 0 0 0 0 0 0 0 0 0 0 0 0 0 0 0 0 0 127 0" result="hardAlpha"/>
<feOffset/>
<feGaussianBlur stdDeviation="2"/>
<feComposite in2="hardAlpha" operator="out"/>
<feColorMatrix type="matrix" values="0 0 0 0 1 0 0 0 0 0.329412 0 0 0 0 0 0 0 0 1 0"/>
<feBlend mode="normal" in2="BackgroundImageFix" result="effect1_dropShadow_5118_222336"/>
<feBlend mode="normal" in="SourceGraphic" in2="effect1_dropShadow_5118_222336" result="shape"/>
</filter>
<filter id="filter22_d_5118_222336" x="107.663" y="682.381" width="27.6562" height="27.6104" filterUnits="userSpaceOnUse" color-interpolation-filters="sRGB">
<feFlood flood-opacity="0" result="BackgroundImageFix"/>
<feColorMatrix in="SourceAlpha" type="matrix" values="0 0 0 0 0 0 0 0 0 0 0 0 0 0 0 0 0 0 127 0" result="hardAlpha"/>
<feOffset/>
<feGaussianBlur stdDeviation="2"/>
<feComposite in2="hardAlpha" operator="out"/>
<feColorMatrix type="matrix" values="0 0 0 0 1 0 0 0 0 0.329412 0 0 0 0 0 0 0 0 1 0"/>
<feBlend mode="normal" in2="BackgroundImageFix" result="effect1_dropShadow_5118_222336"/>
<feBlend mode="normal" in="SourceGraphic" in2="effect1_dropShadow_5118_222336" result="shape"/>
</filter>
<filter id="filter23_d_5118_222336" x="674.649" y="512.642" width="27.6455" height="27.5999" filterUnits="userSpaceOnUse" color-interpolation-filters="sRGB">
<feFlood flood-opacity="0" result="BackgroundImageFix"/>
<feColorMatrix in="SourceAlpha" type="matrix" values="0 0 0 0 0 0 0 0 0 0 0 0 0 0 0 0 0 0 127 0" result="hardAlpha"/>
<feOffset/>
<feGaussianBlur stdDeviation="2"/>
<feComposite in2="hardAlpha" operator="out"/>
<feColorMatrix type="matrix" values="0 0 0 0 1 0 0 0 0 0.329412 0 0 0 0 0 0 0 0 1 0"/>
<feBlend mode="normal" in2="BackgroundImageFix" result="effect1_dropShadow_5118_222336"/>
<feBlend mode="normal" in="SourceGraphic" in2="effect1_dropShadow_5118_222336" result="shape"/>
</filter>
<filter id="filter24_d_5118_222336" x="208.988" y="772.511" width="27.6523" height="27.6072" filterUnits="userSpaceOnUse" color-interpolation-filters="sRGB">
<feFlood flood-opacity="0" result="BackgroundImageFix"/>
<feColorMatrix in="SourceAlpha" type="matrix" values="0 0 0 0 0 0 0 0 0 0 0 0 0 0 0 0 0 0 127 0" result="hardAlpha"/>
<feOffset/>
<feGaussianBlur stdDeviation="2"/>
<feComposite in2="hardAlpha" operator="out"/>
<feColorMatrix type="matrix" values="0 0 0 0 1 0 0 0 0 0.329412 0 0 0 0 0 0 0 0 1 0"/>
<feBlend mode="normal" in2="BackgroundImageFix" result="effect1_dropShadow_5118_222336"/>
<feBlend mode="normal" in="SourceGraphic" in2="effect1_dropShadow_5118_222336" result="shape"/>
</filter>
<filter id="filter25_d_5118_222336" x="775.631" y="514.593" width="27.6494" height="27.6036" filterUnits="userSpaceOnUse" color-interpolation-filters="sRGB">
<feFlood flood-opacity="0" result="BackgroundImageFix"/>
<feColorMatrix in="SourceAlpha" type="matrix" values="0 0 0 0 0 0 0 0 0 0 0 0 0 0 0 0 0 0 127 0" result="hardAlpha"/>
<feOffset/>
<feGaussianBlur stdDeviation="2"/>
<feComposite in2="hardAlpha" operator="out"/>
<feColorMatrix type="matrix" values="0 0 0 0 1 0 0 0 0 0.329412 0 0 0 0 0 0 0 0 1 0"/>
<feBlend mode="normal" in2="BackgroundImageFix" result="effect1_dropShadow_5118_222336"/>
<feBlend mode="normal" in="SourceGraphic" in2="effect1_dropShadow_5118_222336" result="shape"/>
</filter>
<filter id="filter26_d_5118_222336" x="227.358" y="815.303" width="27.665" height="27.6195" filterUnits="userSpaceOnUse" color-interpolation-filters="sRGB">
<feFlood flood-opacity="0" result="BackgroundImageFix"/>
<feColorMatrix in="SourceAlpha" type="matrix" values="0 0 0 0 0 0 0 0 0 0 0 0 0 0 0 0 0 0 127 0" result="hardAlpha"/>
<feOffset/>
<feGaussianBlur stdDeviation="2"/>
<feComposite in2="hardAlpha" operator="out"/>
<feColorMatrix type="matrix" values="0 0 0 0 1 0 0 0 0 0.329412 0 0 0 0 0 0 0 0 1 0"/>
<feBlend mode="normal" in2="BackgroundImageFix" result="effect1_dropShadow_5118_222336"/>
<feBlend mode="normal" in="SourceGraphic" in2="effect1_dropShadow_5118_222336" result="shape"/>
</filter>
<filter id="filter27_d_5118_222336" x="382.463" y="867.054" width="27.6562" height="27.6105" filterUnits="userSpaceOnUse" color-interpolation-filters="sRGB">
<feFlood flood-opacity="0" result="BackgroundImageFix"/>
<feColorMatrix in="SourceAlpha" type="matrix" values="0 0 0 0 0 0 0 0 0 0 0 0 0 0 0 0 0 0 127 0" result="hardAlpha"/>
<feOffset/>
<feGaussianBlur stdDeviation="2"/>
<feComposite in2="hardAlpha" operator="out"/>
<feColorMatrix type="matrix" values="0 0 0 0 1 0 0 0 0 0.329412 0 0 0 0 0 0 0 0 1 0"/>
<feBlend mode="normal" in2="BackgroundImageFix" result="effect1_dropShadow_5118_222336"/>
<feBlend mode="normal" in="SourceGraphic" in2="effect1_dropShadow_5118_222336" result="shape"/>
</filter>
<filter id="filter28_d_5118_222336" x="792.484" y="285.413" width="27.6494" height="27.6036" filterUnits="userSpaceOnUse" color-interpolation-filters="sRGB">
<feFlood flood-opacity="0" result="BackgroundImageFix"/>
<feColorMatrix in="SourceAlpha" type="matrix" values="0 0 0 0 0 0 0 0 0 0 0 0 0 0 0 0 0 0 127 0" result="hardAlpha"/>
<feOffset/>
<feGaussianBlur stdDeviation="2"/>
<feComposite in2="hardAlpha" operator="out"/>
<feColorMatrix type="matrix" values="0 0 0 0 1 0 0 0 0 0.329412 0 0 0 0 0 0 0 0 1 0"/>
<feBlend mode="normal" in2="BackgroundImageFix" result="effect1_dropShadow_5118_222336"/>
<feBlend mode="normal" in="SourceGraphic" in2="effect1_dropShadow_5118_222336" result="shape"/>
</filter>
<filter id="filter29_d_5118_222336" x="801.334" y="246.511" width="27.6445" height="27.5988" filterUnits="userSpaceOnUse" color-interpolation-filters="sRGB">
<feFlood flood-opacity="0" result="BackgroundImageFix"/>
<feColorMatrix in="SourceAlpha" type="matrix" values="0 0 0 0 0 0 0 0 0 0 0 0 0 0 0 0 0 0 127 0" result="hardAlpha"/>
<feOffset/>
<feGaussianBlur stdDeviation="2"/>
<feComposite in2="hardAlpha" operator="out"/>
<feColorMatrix type="matrix" values="0 0 0 0 1 0 0 0 0 0.329412 0 0 0 0 0 0 0 0 1 0"/>
<feBlend mode="normal" in2="BackgroundImageFix" result="effect1_dropShadow_5118_222336"/>
<feBlend mode="normal" in="SourceGraphic" in2="effect1_dropShadow_5118_222336" result="shape"/>
</filter>
<filter id="filter30_d_5118_222336" x="804.982" y="211.727" width="27.6562" height="27.6104" filterUnits="userSpaceOnUse" color-interpolation-filters="sRGB">
<feFlood flood-opacity="0" result="BackgroundImageFix"/>
<feColorMatrix in="SourceAlpha" type="matrix" values="0 0 0 0 0 0 0 0 0 0 0 0 0 0 0 0 0 0 127 0" result="hardAlpha"/>
<feOffset/>
<feGaussianBlur stdDeviation="2"/>
<feComposite in2="hardAlpha" operator="out"/>
<feColorMatrix type="matrix" values="0 0 0 0 1 0 0 0 0 0.329412 0 0 0 0 0 0 0 0 1 0"/>
<feBlend mode="normal" in2="BackgroundImageFix" result="effect1_dropShadow_5118_222336"/>
<feBlend mode="normal" in="SourceGraphic" in2="effect1_dropShadow_5118_222336" result="shape"/>
</filter>
<filter id="filter31_d_5118_222336" x="15.7695" y="341.946" width="27.6738" height="27.6285" filterUnits="userSpaceOnUse" color-interpolation-filters="sRGB">
<feFlood flood-opacity="0" result="BackgroundImageFix"/>
<feColorMatrix in="SourceAlpha" type="matrix" values="0 0 0 0 0 0 0 0 0 0 0 0 0 0 0 0 0 0 127 0" result="hardAlpha"/>
<feOffset/>
<feGaussianBlur stdDeviation="2"/>
<feComposite in2="hardAlpha" operator="out"/>
<feColorMatrix type="matrix" values="0 0 0 0 1 0 0 0 0 0.329412 0 0 0 0 0 0 0 0 1 0"/>
<feBlend mode="normal" in2="BackgroundImageFix" result="effect1_dropShadow_5118_222336"/>
<feBlend mode="normal" in="SourceGraphic" in2="effect1_dropShadow_5118_222336" result="shape"/>
</filter>
<filter id="filter32_d_5118_222336" x="708.084" y="746.085" width="17.8262" height="17.8032" filterUnits="userSpaceOnUse" color-interpolation-filters="sRGB">
<feFlood flood-opacity="0" result="BackgroundImageFix"/>
<feColorMatrix in="SourceAlpha" type="matrix" values="0 0 0 0 0 0 0 0 0 0 0 0 0 0 0 0 0 0 127 0" result="hardAlpha"/>
<feOffset/>
<feGaussianBlur stdDeviation="2"/>
<feComposite in2="hardAlpha" operator="out"/>
<feColorMatrix type="matrix" values="0 0 0 0 1 0 0 0 0 0.329412 0 0 0 0 0 0 0 0 1 0"/>
<feBlend mode="normal" in2="BackgroundImageFix" result="effect1_dropShadow_5118_222336"/>
<feBlend mode="normal" in="SourceGraphic" in2="effect1_dropShadow_5118_222336" result="shape"/>
</filter>
<filter id="filter33_d_5118_222336" x="545.567" y="866.563" width="17.8496" height="17.8264" filterUnits="userSpaceOnUse" color-interpolation-filters="sRGB">
<feFlood flood-opacity="0" result="BackgroundImageFix"/>
<feColorMatrix in="SourceAlpha" type="matrix" values="0 0 0 0 0 0 0 0 0 0 0 0 0 0 0 0 0 0 127 0" result="hardAlpha"/>
<feOffset/>
<feGaussianBlur stdDeviation="2"/>
<feComposite in2="hardAlpha" operator="out"/>
<feColorMatrix type="matrix" values="0 0 0 0 1 0 0 0 0 0.329412 0 0 0 0 0 0 0 0 1 0"/>
<feBlend mode="normal" in2="BackgroundImageFix" result="effect1_dropShadow_5118_222336"/>
<feBlend mode="normal" in="SourceGraphic" in2="effect1_dropShadow_5118_222336" result="shape"/>
</filter>
<filter id="filter34_d_5118_222336" x="768.077" y="384.107" width="27.6602" height="27.6145" filterUnits="userSpaceOnUse" color-interpolation-filters="sRGB">
<feFlood flood-opacity="0" result="BackgroundImageFix"/>
<feColorMatrix in="SourceAlpha" type="matrix" values="0 0 0 0 0 0 0 0 0 0 0 0 0 0 0 0 0 0 127 0" result="hardAlpha"/>
<feOffset/>
<feGaussianBlur stdDeviation="2"/>
<feComposite in2="hardAlpha" operator="out"/>
<feColorMatrix type="matrix" values="0 0 0 0 1 0 0 0 0 0.329412 0 0 0 0 0 0 0 0 1 0"/>
<feBlend mode="normal" in2="BackgroundImageFix" result="effect1_dropShadow_5118_222336"/>
<feBlend mode="normal" in="SourceGraphic" in2="effect1_dropShadow_5118_222336" result="shape"/>
</filter>
<filter id="filter35_d_5118_222336" x="11.2061" y="417.025" width="17.832" height="17.8097" filterUnits="userSpaceOnUse" color-interpolation-filters="sRGB">
<feFlood flood-opacity="0" result="BackgroundImageFix"/>
<feColorMatrix in="SourceAlpha" type="matrix" values="0 0 0 0 0 0 0 0 0 0 0 0 0 0 0 0 0 0 127 0" result="hardAlpha"/>
<feOffset/>
<feGaussianBlur stdDeviation="2"/>
<feComposite in2="hardAlpha" operator="out"/>
<feColorMatrix type="matrix" values="0 0 0 0 1 0 0 0 0 0.329412 0 0 0 0 0 0 0 0 1 0"/>
<feBlend mode="normal" in2="BackgroundImageFix" result="effect1_dropShadow_5118_222336"/>
<feBlend mode="normal" in="SourceGraphic" in2="effect1_dropShadow_5118_222336" result="shape"/>
</filter>
<filter id="filter36_d_5118_222336" x="32.6348" y="514.941" width="17.8164" height="17.7935" filterUnits="userSpaceOnUse" color-interpolation-filters="sRGB">
<feFlood flood-opacity="0" result="BackgroundImageFix"/>
<feColorMatrix in="SourceAlpha" type="matrix" values="0 0 0 0 0 0 0 0 0 0 0 0 0 0 0 0 0 0 127 0" result="hardAlpha"/>
<feOffset/>
<feGaussianBlur stdDeviation="2"/>
<feComposite in2="hardAlpha" operator="out"/>
<feColorMatrix type="matrix" values="0 0 0 0 1 0 0 0 0 0.329412 0 0 0 0 0 0 0 0 1 0"/>
<feBlend mode="normal" in2="BackgroundImageFix" result="effect1_dropShadow_5118_222336"/>
<feBlend mode="normal" in="SourceGraphic" in2="effect1_dropShadow_5118_222336" result="shape"/>
</filter>
</defs>
</svg>
