<svg width="900" height="900" viewBox="0 0 900 900" fill="none" xmlns="http://www.w3.org/2000/svg">
<g clip-path="url(#clip0_4772_6189)">
<path d="M297.87 844.44C297.68 844.26 278.91 825.26 284.79 784.83C287.45 766.6 296.55 742.36 310.42 716.59C332.53 675.52 362.61 630.63 394.48 583.1C480.51 454.75 578.04 309.28 564.49 171.37" stroke="white" stroke-width="1.3" stroke-miterlimit="10"/>
<path d="M442.71 258.93C410.1 321.75 368.5 385.82 328.28 447.79C270.5 536.8 215.92 620.88 199.41 684.84C192.69 710.85 190.57 735.19 193.29 755.23C196.81 781.12 210.76 799.41 221.85 810.19C233.87 821.88 245.28 827.54 245.34 827.58" stroke="white" stroke-width="1.4" stroke-miterlimit="10"/>
<path d="M331.75 143.8C324.62 156.24 303.74 176.07 276.08 202.32C241.17 235.46 193.37 280.85 150.36 333.94C99.2896 397 65.9796 456.71 48.5496 516.48C37.0596 555.89 42.7096 591.83 49.4896 615.04C56.8296 640.19 67.0396 656.25 67.1396 656.41" stroke="white" stroke-width="1.3" stroke-miterlimit="10"/>
<path d="M452.01 21.44C486.34 25.66 516.46 35.5 544.16 51.49C584.96 75.07 615.01 106.39 633.5 144.65C649.27 177.25 656.87 215.29 656.07 257.69C654.65 333.43 627.49 407.6 604.93 456.48C573.89 523.76 507.93 622.39 454.92 701.63C420.49 753.13 390.76 797.6 377.85 822.37C365.2 846.69 366.41 858.78 369.68 864.63C373.21 871.01 379.9 871.61 379.97 871.63" stroke="white" stroke-width="1.2" stroke-miterlimit="10"/>
<path d="M657.87 129.9C658.16 130 686.82 139.66 716.34 187.92C743.34 232.05 752.57 298.59 742.28 375.27C731.75 453.84 701.41 535.71 656.82 605.77C607.25 683.68 546.76 753.35 504.74 798.11C459.21 846.61 424.97 877.07 424.63 877.38V877.43" stroke="white" stroke-width="1.2" stroke-miterlimit="10"/>
<path d="M740.51 156.95C740.85 157.21 774.37 184.17 799.16 231.98C824.96 281.76 834.78 346.08 826.81 413.08C821.99 453.6 810.77 495.51 793.46 537.6C774.12 584.64 746.92 632.49 712.63 679.77C672.36 735.33 624.84 785.51 580.15 819.66C545.71 845.98 523.23 855.49 523.01 855.58" stroke="white" stroke-width="1.2" stroke-miterlimit="10"/>
<path d="M53.1995 628.9C53.0995 628.7 42.6495 608.38 32.4795 576.56C23.0895 547.19 12.0495 501.73 12.6695 451.97C13.6095 377.94 58.0395 304.84 148.5 228.51C252.19 141.01 369.52 64.75 370.69 63.98" stroke="white" stroke-width="1.5" stroke-miterlimit="10"/>
<path d="M342.1 55.8609C291.85 72.2909 246.9 91.801 208.48 113.811C175.52 132.701 146.49 153.951 122.2 176.971C75.36 221.371 54 265.021 42.52 288.481C12.38 350.071 12 448.871 12 449.861" stroke="white" stroke-miterlimit="10"/>
<path d="M846.07 272.77C862.05 321.5 869.93 371.84 869.5 422.43C868.99 480.77 857.4 539.97 835.01 598.37C821.92 632.51 804.91 664.43 784.44 693.21C768.07 716.25 749.45 737.32 729.12 755.9C694.5 787.52 666.52 801.02 666.24 801.15" stroke="white" stroke-width="1.2" stroke-miterlimit="10"/>
<path d="M884.9 473.77C879.44 517.17 870.98 554.25 860.73 585.16C851.32 613.57 840.56 636.33 829.87 653.9C819.53 670.9 809.9 682.05 803.25 688.67C796.36 695.53 792.01 698.29 791.87 698.38" stroke="white" stroke-width="1.3" stroke-miterlimit="10"/>
<path d="M92.0303 185.87C92.4903 185.23 138.62 121.06 212.02 84.75" stroke="white" stroke-width="1.3" stroke-miterlimit="10"/>
<path d="M569.362 170.87C569.097 168.183 566.693 166.217 564 166.48C561.308 166.744 559.336 169.143 559.601 171.829C559.865 174.516 562.27 176.482 564.962 176.219C567.655 175.955 569.626 173.556 569.362 170.87Z" fill="white"/>
<path d="M247.502 823.174C249.93 824.373 250.939 827.299 249.737 829.746C248.535 832.168 245.602 833.176 243.15 831.977C240.722 830.777 239.712 827.851 240.914 825.405C242.116 822.982 245.049 821.975 247.502 823.174Z" fill="white"/>
<path d="M447.066 261.199C448.316 258.8 447.378 255.826 444.974 254.579C442.57 253.331 439.589 254.267 438.339 256.665C437.089 259.064 438.027 262.038 440.431 263.285C442.835 264.532 445.816 263.597 447.066 261.199Z" fill="white"/>
<path d="M71.2342 653.766C72.7007 656.045 72.0275 659.067 69.7437 660.53C67.4598 661.993 64.4306 661.321 62.9641 659.043C61.4976 656.764 62.1708 653.742 64.4547 652.279C66.7385 650.816 69.7677 651.487 71.2342 653.766Z" fill="white"/>
<path d="M381 867.453C383.717 867.669 385.712 870.044 385.496 872.73C385.28 875.44 382.9 877.431 380.207 877.215C377.49 876.999 375.495 874.625 375.711 871.939C375.928 869.228 378.308 867.237 381 867.453Z" fill="white"/>
<path d="M656.798 135.252C654.226 134.412 652.807 131.654 653.625 129.087C654.466 126.521 657.231 125.106 659.803 125.921C662.376 126.761 663.794 129.519 662.977 132.085C662.135 134.652 659.371 136.067 656.798 135.252Z" fill="white"/>
<path d="M737.432 160.772C735.316 159.093 734.956 155.999 736.639 153.888C738.321 151.778 741.423 151.418 743.538 153.097C745.654 154.776 746.015 157.87 744.332 159.98C742.649 162.091 739.548 162.451 737.432 160.772Z" fill="white"/>
<path d="M57.5789 626.641C58.8291 629.04 57.8915 632.014 55.4633 633.237C53.0352 634.46 50.0782 633.549 48.8521 631.126C47.602 628.728 48.5395 625.754 50.9677 624.53C53.3718 623.283 56.3528 624.219 57.5789 626.641Z" fill="white"/>
<path d="M15.3382 449.675C15.3382 451.258 14.04 452.553 12.4533 452.553C10.8666 452.529 9.56836 451.258 9.56836 449.675C9.56836 448.092 10.8666 446.797 12.4533 446.797C14.04 446.797 15.3382 448.092 15.3382 449.675Z" fill="white"/>
<path d="M343.473 58.4026C344.987 57.8989 345.805 56.2919 345.3 54.7808C344.795 53.2698 343.184 52.4543 341.67 52.958C340.155 53.4616 339.338 55.0687 339.843 56.5797C340.347 58.0908 341.958 58.9063 343.473 58.4026Z" fill="white"/>
<path d="M668.313 805.571C665.861 806.746 662.928 805.691 661.75 803.269C660.572 800.822 661.63 797.896 664.058 796.721C666.51 795.545 669.443 796.601 670.621 799.023C671.799 801.47 670.742 804.396 668.313 805.571Z" fill="white"/>
<path d="M850.688 271.248C849.847 268.682 847.058 267.267 844.486 268.106C841.913 268.946 840.495 271.728 841.336 274.294C842.178 276.861 844.967 278.276 847.539 277.436C850.111 276.597 851.53 273.815 850.688 271.248Z" fill="white"/>
<path d="M794.457 702.554C792.149 703.994 789.12 703.274 787.678 700.971C786.235 698.669 786.957 695.647 789.264 694.208C791.572 692.768 794.602 693.488 796.044 695.791C797.486 698.093 796.765 701.115 794.457 702.554Z" fill="white"/>
<path d="M889.755 474.38C890.091 471.693 888.192 469.247 885.499 468.911C882.807 468.575 880.355 470.47 880.018 473.157C879.682 475.843 881.581 478.289 884.273 478.625C886.966 478.961 889.418 477.066 889.755 474.38Z" fill="white"/>
<path d="M820.108 652.209C817.776 657.102 819.891 662.955 824.796 665.257C829.7 667.584 835.566 665.473 837.874 660.58C840.182 655.687 838.09 649.835 833.186 647.532C828.281 645.206 822.415 647.316 820.108 652.209Z" fill="white"/>
<path d="M569.37 170.89C569.106 168.204 566.702 166.237 564.009 166.501C561.317 166.765 559.345 169.163 559.61 171.85C559.874 174.536 562.278 176.503 564.971 176.239C567.663 175.975 569.635 173.577 569.37 170.89Z" fill="white"/>
<path d="M247.515 823.179C249.943 824.378 250.953 827.304 249.751 829.751C248.549 832.173 245.616 833.181 243.164 831.981C240.736 830.782 239.726 827.856 240.928 825.409C242.13 822.987 245.063 821.979 247.515 823.179Z" fill="white"/>
<path d="M447.073 261.197C448.323 258.798 447.385 255.824 444.981 254.577C442.577 253.329 439.596 254.265 438.346 256.663C437.096 259.062 438.033 262.036 440.437 263.283C442.842 264.531 445.823 263.595 447.073 261.197Z" fill="white"/>
<path d="M71.2742 653.772C72.7407 656.05 72.0676 659.072 69.7837 660.535C67.4998 661.999 64.4706 661.327 63.0041 659.048C61.5377 656.77 62.2108 653.748 64.4947 652.285C66.7786 650.821 69.8077 651.493 71.2742 653.772Z" fill="white"/>
<path d="M380.367 866.749C383.083 866.965 385.079 869.339 384.862 872.026C384.646 874.736 382.266 876.727 379.573 876.511C376.857 876.295 374.861 873.921 375.078 871.234C375.294 868.524 377.674 866.533 380.367 866.749Z" fill="white"/>
<path d="M656.368 134.565C653.795 133.726 652.377 130.967 653.194 128.401C654.036 125.834 656.8 124.419 659.373 125.235C661.945 126.074 663.363 128.833 662.546 131.399C661.705 133.966 658.94 135.381 656.368 134.565Z" fill="white"/>
<path d="M737.456 160.788C735.341 159.109 734.98 156.015 736.663 153.904C738.346 151.793 741.447 151.433 743.563 153.112C745.678 154.791 746.039 157.885 744.356 159.996C742.673 162.107 739.572 162.467 737.456 160.788Z" fill="white"/>
<path d="M57.5633 626.663C58.8134 629.061 57.8758 632.035 55.4477 633.259C53.0196 634.482 50.0625 633.57 48.8365 631.148C47.5863 628.749 48.5239 625.775 50.9521 624.552C53.3561 623.305 56.3372 624.24 57.5633 626.663Z" fill="white"/>
<path d="M14.8851 449.861C14.8851 451.444 13.5868 452.739 12.0001 452.739C10.4134 452.715 9.11523 451.444 9.11523 449.861C9.11523 448.278 10.4134 446.983 12.0001 446.983C13.5868 446.983 14.8851 448.278 14.8851 449.861Z" fill="white"/>
<path d="M343.001 58.5833C344.516 58.0796 345.333 56.4726 344.828 54.9615C344.323 53.4504 342.713 52.6349 341.198 53.1386C339.683 53.6423 338.866 55.2493 339.371 56.7604C339.876 58.2715 341.487 59.087 343.001 58.5833Z" fill="white"/>
<path d="M668.368 805.575C665.916 806.751 662.983 805.695 661.805 803.273C660.627 800.826 661.685 797.9 664.113 796.725C666.565 795.549 669.498 796.605 670.676 799.027C671.854 801.474 670.796 804.4 668.368 805.575Z" fill="white"/>
<path d="M850.746 271.247C849.904 268.68 847.116 267.265 844.543 268.105C841.971 268.944 840.553 271.727 841.394 274.293C842.235 276.859 845.024 278.275 847.597 277.435C850.169 276.596 851.587 273.813 850.746 271.247Z" fill="white"/>
<path d="M794.466 702.553C792.158 703.993 789.129 703.273 787.687 700.97C786.244 698.668 786.965 695.646 789.273 694.207C791.581 692.767 794.61 693.487 796.053 695.79C797.495 698.092 796.774 701.114 794.466 702.553Z" fill="white"/>
<path d="M889.768 474.382C890.105 471.695 888.206 469.249 885.513 468.913C882.821 468.577 880.368 470.472 880.032 473.158C879.695 475.845 881.594 478.291 884.287 478.627C886.98 478.963 889.432 477.068 889.768 474.382Z" fill="white"/>
</g>
<defs>
<clipPath id="clip0_4772_6189">
<rect width="900" height="900" fill="white"/>
</clipPath>
</defs>
</svg>
