<svg width="900" height="900" viewBox="0 0 900 900" fill="none" xmlns="http://www.w3.org/2000/svg">
<path d="M862.731 398.51C862.591 398.29 847.271 377.38 816.441 358.97C798.341 348.16 778.501 340.32 757.491 335.64C731.211 329.79 703.011 328.9 673.641 333.01C608.681 342.1 538.691 365.94 459.651 405.91C391.351 440.45 327.501 481.3 271.161 517.33C194.531 566.34 133.991 605.07 96.0908 606.81" stroke="#FF5400" stroke-width="2.5" stroke-miterlimit="10"/>
<path d="M121.49 696.18C129.64 699.85 143.39 701.72 159.25 701.68C159.25 701.68 159.27 701.69 159.28 701.69C171.3 701.66 184.54 700.54 197.5 698.28C268.44 685.9 330.87 644.45 466.82 545.67C512.22 512.68 561.94 480.02 610.57 453.89C644.63 435.58 677.77 420.65 708.45 410.63C758.62 394.24 781.34 397.81 781.92 397.92" stroke="#FF5400" stroke-width="2.6" stroke-miterlimit="10"/>
<path d="M688.46 526.42C688.09 526.66 649.92 551.77 572.6 609.86C552.03 625.32 532.38 640.76 513.36 655.7C446.75 708.02 389.22 753.22 323.69 775.87C299.24 784.32 273.41 788.77 250.42 788.77C240.59 788.77 231.28 787.96 222.82 786.3" stroke="#FF5400" stroke-width="2.5" stroke-miterlimit="10"/>
<path d="M241.19 829.12C274.14 844.69 307.02 852.47 340.25 852.47H340.27C376.11 852.47 412.36 843.4 449.59 825.27C514.78 793.53 576.98 736.73 634.5 680.09C722.78 593.16 788.82 529.04 789.47 528.39" stroke="#FF5400" stroke-width="2.5" stroke-miterlimit="10"/>
<path d="M396.311 880.85C396.711 880.97 409.761 884.6 431.341 885.33C433.671 885.4 436.141 885.45 438.731 885.45C459.151 885.45 486.881 882.64 517.951 871.88C580.051 850.37 638.421 813.01 686.771 763.84C710.091 740.12 730.321 714.36 746.901 687.27C763.701 659.81 776.391 631.58 784.601 603.35C802.281 542.57 800.601 489.95 796.091 456.5C791.211 420.26 782.011 398.12 781.921 397.9" stroke="#FF5400" stroke-width="2.5" stroke-miterlimit="10"/>
<path d="M41.5303 523.84L41.5503 523.85C59.1603 522.45 89.4103 501.78 168.14 445.3C170.42 443.67 172.8 441.97 175.26 440.19C216.76 410.38 279.43 365.31 355.18 324.8C446.18 276.13 531.26 247.81 608.05 240.61C674.79 234.35 725.12 250.61 755.6 265.35C788.64 281.34 806.16 299.06 806.33 299.24" stroke="#FF5400" stroke-width="2.5" stroke-miterlimit="10"/>
<path d="M815.16 260.3C814.97 260.01 795.22 231.11 755.72 203.11C732.53 186.68 707.17 173.75 680.34 164.71C646.81 153.4 610.87 148.15 573.53 149.1C485.73 151.33 385.46 183.81 283.57 243.01C191.79 296.34 104.47 368.2 37.6602 445.34" stroke="#FF5400" stroke-width="2.5" stroke-miterlimit="10"/>
<path d="M20.9004 414.3C20.9004 414.3 20.9104 414.3 20.9204 414.29C39.2804 368.41 67.9104 323.48 106 280.73C142.41 239.88 185.6 203.04 234.35 171.23C282.8 139.63 333.69 115 385.56 98.01C439.26 80.44 490.93 72.13 539.17 73.33C584.16 74.45 626.86 83.14 666.08 99.16C697.45 111.98 726.69 129.51 752.95 151.24C797.69 188.26 818.62 225.2 818.82 225.57" stroke="#FF5400" stroke-width="2.5" stroke-miterlimit="10"/>
<path d="M29.6104 355.77C29.6104 355.77 29.6304 355.73 29.6304 355.72C49.3804 298.82 80.1704 246.31 121.16 199.65C153.39 162.95 191.06 130.66 233.11 103.68C295.12 63.89 358.53 40.25 438.7 27.05C468.29 22.18 500.73 22.37 535.1 27.65C562.6 31.88 591.4 39.34 620.7 49.82C670.58 67.69 705.07 88.45 705.42 88.65" stroke="#FF5400" stroke-width="2.5" stroke-miterlimit="10"/>
<path d="M717 755C716.88 755.22 705.7 776.78 680.19 802.27C656.64 825.82 615.71 857.63 554.49 875.46" stroke="#FF5400" stroke-width="1.3" stroke-miterlimit="10"/>
<path d="M56.4482 302.405C54.6932 304.468 51.5919 304.732 49.5244 302.981C47.4569 301.23 47.1924 298.136 48.9474 296.073C50.7024 294.01 53.8037 293.747 55.8712 295.498C57.9387 297.248 58.2032 300.343 56.4482 302.405Z" fill="#FF5400"/>
<path d="M754.549 568.117C757.242 567.709 759.069 565.191 758.66 562.528C758.252 559.842 755.727 558.019 753.059 558.427C750.366 558.835 748.539 561.353 748.948 564.016C749.356 566.702 751.881 568.525 754.549 568.117Z" fill="#FF5400"/>
<path d="M830.854 374.553C832.321 376.832 835.374 377.479 837.658 375.992C839.942 374.529 840.591 371.483 839.1 369.204C837.634 366.926 834.581 366.278 832.297 367.765C830.013 369.228 829.364 372.274 830.854 374.553Z" fill="#FF5400"/>
<path d="M627.228 850.781C629.801 849.942 631.219 847.16 630.378 844.593C629.536 842.027 626.748 840.612 624.175 841.451C621.603 842.291 620.184 845.073 621.026 847.639C621.867 850.206 624.656 851.621 627.228 850.781Z" fill="#FF5400"/>
<path d="M772.843 401.705C770.752 396.716 773.108 390.959 778.108 388.872C783.109 386.786 788.878 389.136 790.97 394.125C793.062 399.114 790.705 404.871 785.705 406.957C780.704 409.044 774.935 406.693 772.843 401.705Z" fill="#FF5400"/>
<path d="M40.7493 514.051C35.3401 514.483 31.3012 519.208 31.7339 524.605C32.1667 530.001 36.9027 534.031 42.3119 533.599C47.7211 533.168 51.76 528.442 51.3273 523.046C50.8945 517.649 46.1585 513.62 40.7493 514.051Z" fill="#FF5400"/>
<path d="M30.2196 438.953C26.6615 443.055 27.1183 449.243 31.2293 452.793C35.3403 456.343 41.5428 455.887 45.1009 451.785C48.6589 447.684 48.2022 441.496 44.0912 437.946C39.9802 434.396 33.7776 434.852 30.2196 438.953Z" fill="#FF5400"/>
<path d="M11.7561 410.651C9.73668 415.688 12.1889 421.396 17.2375 423.387C22.286 425.402 28.0078 422.955 30.0032 417.918C32.0226 412.881 29.5704 407.173 24.5219 405.182C19.4733 403.167 13.7515 405.614 11.7561 410.651Z" fill="#FF5400"/>
<path d="M710.506 80.3014C715.146 83.1076 716.612 89.1519 713.8 93.7811C710.987 98.4103 704.929 99.8734 700.289 97.0671C695.649 94.2608 694.182 88.2165 696.995 83.5874C699.808 78.9582 705.866 77.4951 710.506 80.3014Z" fill="#FF5400"/>
<path d="M709.953 97.8586C707.741 96.2995 707.212 93.2294 708.775 91.0228C710.338 88.8161 713.415 88.2885 715.627 89.8475C717.839 91.4065 718.367 94.4767 716.805 96.6833C715.242 98.89 712.165 99.4176 709.953 97.8586Z" fill="#FF5400"/>
<path d="M870.715 392.782C873.888 397.171 872.879 403.311 868.479 406.477C864.08 409.643 857.925 408.636 854.752 404.247C851.578 399.857 852.588 393.717 856.988 390.551C861.387 387.385 867.542 388.393 870.715 392.782Z" fill="#FF5400"/>
<path d="M95.6592 597.017C90.25 597.256 86.0428 601.862 86.2832 607.258C86.5237 612.679 91.1395 616.852 96.5487 616.613C101.958 616.373 106.165 611.768 105.925 606.371C105.684 600.974 101.068 596.777 95.6592 597.017Z" fill="#FF5400"/>
<path d="M125.542 687.252C120.589 685.021 114.772 687.228 112.536 692.145C110.3 697.086 112.512 702.89 117.44 705.121C122.393 707.351 128.21 705.145 130.446 700.228C132.682 695.287 130.47 689.482 125.542 687.252Z" fill="#FF5400"/>
<path d="M683.075 518.251C687.619 515.277 693.701 516.548 696.682 521.058C699.663 525.591 698.389 531.659 693.869 534.633C689.326 537.607 683.243 536.336 680.262 531.827C677.281 527.294 678.555 521.226 683.075 518.251Z" fill="#FF5400"/>
<path d="M224.71 776.693C219.373 775.661 214.229 779.115 213.171 784.416C212.137 789.741 215.599 794.874 220.912 795.929C226.225 796.984 231.394 793.506 232.452 788.206C233.509 782.905 230.023 777.748 224.71 776.693Z" fill="#FF5400"/>
<path d="M782.604 521.367C786.498 517.601 792.725 517.673 796.499 521.559C800.274 525.444 800.202 531.657 796.307 535.422C792.412 539.188 786.186 539.116 782.411 535.23C778.637 531.345 778.709 525.133 782.604 521.367Z" fill="#FF5400"/>
<path d="M245.386 820.25C240.482 817.924 234.616 820.034 232.308 824.927C229.976 829.82 232.091 835.673 236.996 837.975C241.9 840.302 247.766 838.191 250.074 833.298C252.406 828.405 250.29 822.553 245.386 820.25Z" fill="#FF5400"/>
<path d="M398.983 871.433C393.767 869.946 388.333 872.968 386.843 878.173C385.352 883.378 388.381 888.798 393.598 890.285C398.815 891.772 404.248 888.75 405.739 883.546C407.229 878.341 404.2 872.92 398.983 871.433Z" fill="#FF5400"/>
<path d="M813.353 292.379C817.127 296.265 817.055 302.477 813.161 306.243C809.266 310.009 803.039 309.937 799.265 306.051C795.491 302.165 795.563 295.953 799.457 292.188C803.352 288.422 809.579 288.494 813.353 292.379Z" fill="#FF5400"/>
<path d="M823.306 254.842C826.335 259.328 825.133 265.42 820.637 268.442C816.142 271.464 810.035 270.265 807.006 265.78C803.977 261.294 805.179 255.202 809.675 252.18C814.17 249.158 820.277 250.357 823.306 254.842Z" fill="#FF5400"/>
<path d="M827.393 220.759C830.037 225.485 828.331 231.457 823.594 234.095C818.858 236.734 812.872 235.031 810.228 230.306C807.583 225.58 809.29 219.608 814.026 216.97C818.762 214.331 824.748 216.034 827.393 220.759Z" fill="#FF5400"/>
<path d="M20.3148 352.559C18.5357 357.667 21.2523 363.256 26.3971 365.031C31.5178 366.806 37.1194 364.096 38.8984 358.963C40.6774 353.854 37.9608 348.265 32.816 346.49C27.6953 344.715 22.0938 347.426 20.3148 352.559Z" fill="#FF5400"/>
<path d="M712.622 752.756C713.848 750.333 716.805 749.398 719.233 750.621C721.661 751.844 722.598 754.795 721.372 757.217C720.146 759.64 717.189 760.575 714.761 759.352C712.333 758.129 711.395 755.178 712.622 752.756Z" fill="#FF5400"/>
<path d="M553.11 870.763C550.513 871.531 548.999 874.241 549.768 876.856C550.537 879.446 553.254 880.957 555.874 880.19C558.471 879.422 559.985 876.712 559.216 874.097C558.447 871.507 555.73 869.996 553.11 870.763Z" fill="#FF5400"/>
<path d="M783.566 388.249C788.903 389.16 792.509 394.245 791.596 399.57C790.682 404.894 785.585 408.492 780.248 407.581C774.911 406.669 771.305 401.584 772.219 396.26C773.132 390.935 778.229 387.337 783.566 388.249Z" fill="#FF5400"/>
<path d="M23.8005 422.668C21.9975 420.653 18.8962 420.461 16.8527 422.26C14.8333 424.059 14.6409 427.153 16.444 429.192C18.2471 431.206 21.3483 431.398 23.3918 429.599C25.4113 427.8 25.6036 424.706 23.8005 422.668Z" fill="#FF5400"/>
<path d="M46.1106 522.039C45.1009 519.52 42.2641 518.297 39.7398 519.28C37.2155 520.288 35.9894 523.118 36.9751 525.636C37.9848 528.155 40.8216 529.378 43.3459 528.395C45.8702 527.387 47.0963 524.557 46.1106 522.039Z" fill="#FF5400"/>
<path d="M702.583 92.6555C700.371 91.0965 699.842 88.0264 701.405 85.8197C702.968 83.6131 706.045 83.0854 708.257 84.6444C710.468 86.2035 710.997 89.2736 709.435 91.4802C707.872 93.6869 704.795 94.2146 702.583 92.6555Z" fill="#FF5400"/>
<path d="M870.715 392.782C873.888 397.171 872.879 403.311 868.479 406.477C864.08 409.643 857.925 408.636 854.752 404.247C851.578 399.857 852.588 393.717 856.988 390.551C861.387 387.385 867.542 388.393 870.715 392.782Z" fill="#FF5400"/>
<path d="M30.2196 438.924C26.6615 443.025 27.1183 449.214 31.2293 452.763C35.3403 456.313 41.5428 455.858 45.1009 451.756C48.6589 447.655 48.2022 441.466 44.0912 437.917C39.9802 434.367 33.7776 434.822 30.2196 438.924Z" fill="#FF5400"/>
<path d="M95.6465 597.012C90.2373 597.252 86.0301 601.857 86.2706 607.254C86.511 612.674 91.1268 616.848 96.536 616.608C101.945 616.368 106.152 611.763 105.912 606.366C105.672 600.97 101.056 596.772 95.6465 597.012Z" fill="#FF5400"/>
<path d="M125.541 687.245C120.589 685.015 114.771 687.221 112.535 692.138C110.299 697.079 112.511 702.884 117.439 705.114C122.392 707.345 128.209 705.139 130.445 700.222C132.681 695.281 130.469 689.476 125.541 687.245Z" fill="#FF5400"/>
<path d="M683.063 518.229C687.607 515.255 693.689 516.526 696.67 521.035C699.651 525.569 698.377 531.637 693.858 534.611C689.314 537.585 683.231 536.314 680.25 531.805C677.269 527.271 678.543 521.203 683.063 518.229Z" fill="#FF5400"/>
<path d="M224.716 776.678C219.379 775.647 214.234 779.101 213.177 784.402C212.143 789.727 215.605 794.859 220.918 795.915C226.231 796.97 231.4 793.492 232.457 788.191C233.515 782.891 230.029 777.734 224.716 776.678Z" fill="#FF5400"/>
<path d="M782.618 521.362C786.513 517.597 792.74 517.669 796.514 521.554C800.288 525.44 800.216 531.652 796.322 535.418C792.427 539.183 786.201 539.111 782.426 535.226C778.652 531.34 778.724 525.128 782.618 521.362Z" fill="#FF5400"/>
<path d="M245.386 820.257C240.482 817.931 234.616 820.042 232.308 824.935C229.976 829.828 232.091 835.68 236.996 837.983C241.9 840.309 247.766 838.198 250.074 833.305C252.406 828.412 250.29 822.56 245.386 820.257Z" fill="#FF5400"/>
<path d="M399.003 871.424C393.786 869.937 388.353 872.959 386.862 878.164C385.372 883.368 388.401 888.789 393.618 890.276C398.835 891.763 404.268 888.741 405.758 883.536C407.249 878.332 404.22 872.911 399.003 871.424Z" fill="#FF5400"/>
<path d="M813.374 292.404C817.149 296.29 817.077 302.502 813.182 306.268C809.287 310.033 803.061 309.961 799.286 306.076C795.512 302.19 795.584 295.978 799.479 292.212C803.373 288.447 809.6 288.519 813.374 292.404Z" fill="#FF5400"/>
<path d="M823.31 254.831C826.339 259.317 825.137 265.409 820.641 268.431C816.146 271.453 810.039 270.254 807.01 265.769C803.981 261.283 805.183 255.191 809.679 252.169C814.174 249.147 820.281 250.346 823.31 254.831Z" fill="#FF5400"/>
<path d="M827.403 220.797C830.047 225.522 828.34 231.494 823.604 234.133C818.868 236.771 812.882 235.068 810.237 230.343C807.593 225.618 809.3 219.646 814.036 217.007C818.772 214.369 824.758 216.072 827.403 220.797Z" fill="#FF5400"/>
<path d="M20.3187 352.568C18.5396 357.677 21.2563 363.265 26.401 365.04C31.5217 366.815 37.1233 364.105 38.9023 358.972C40.6813 353.863 37.9647 348.275 32.8199 346.5C27.6992 344.725 22.0977 347.435 20.3187 352.568Z" fill="#FF5400"/>
<path d="M712.624 752.769C713.851 750.347 716.808 749.411 719.236 750.635C721.664 751.858 722.601 754.808 721.375 757.231C720.149 759.653 717.192 760.589 714.764 759.365C712.336 758.142 711.398 755.192 712.624 752.769Z" fill="#FF5400"/>
<path d="M553.108 870.747C550.511 871.514 548.997 874.225 549.766 876.839C550.535 879.43 553.252 880.941 555.872 880.173C558.469 879.406 559.983 876.695 559.214 874.081C558.445 871.49 555.728 869.979 553.108 870.747Z" fill="#FF5400"/>
<path d="M783.579 388.254C788.916 389.165 792.522 394.25 791.608 399.575C790.695 404.9 785.598 408.498 780.261 407.586C774.924 406.675 771.318 401.59 772.231 396.265C773.145 390.94 778.242 387.343 783.579 388.254Z" fill="#FF5400"/>
<path d="M24.5788 411.038C22.7758 409.023 19.6745 408.831 17.631 410.63C15.6116 412.429 15.4192 415.523 17.2223 417.562C19.0254 419.577 22.1267 419.769 24.1701 417.97C26.1896 416.171 26.3819 413.077 24.5788 411.038Z" fill="#FF5400"/>
<path d="M46.098 522.041C45.0882 519.523 42.2514 518.299 39.7271 519.283C37.2028 520.29 35.9767 523.121 36.9624 525.639C37.9721 528.157 40.8089 529.381 43.3332 528.397C45.8575 527.39 47.0836 524.56 46.098 522.041Z" fill="#FF5400"/>
</svg>
