<svg width="900" height="900" viewBox="0 0 900 900" fill="none" xmlns="http://www.w3.org/2000/svg">
<g clip-path="url(#clip0_4789_3730)">
<path d="M694.45 775.68C699.21 730.23 688.2 681.59 659.83 622.61C636.01 573.1 600.71 517.29 541.84 436C504.31 384.19 473.28 335.19 449.57 290.39C430.6 254.51 416.27 221.19 406.97 191.38C391.08 140.44 395.33 117.63 395.53 116.67" stroke="white" stroke-width="2.5" stroke-miterlimit="10"/>
<path d="M354.51 867.46C297.48 847.76 244.84 817.03 198.08 776.14C161.3 743.99 128.93 706.4 101.89 664.45C62.0101 602.58 38.31 539.32 25.08 459.34C20.2 429.81 20.3901 397.46 25.6801 363.16C29.9201 335.72 37.4 306.99 47.91 277.76C65.82 227.99 86.6301 193.58 86.8301 193.24" stroke="white" stroke-width="2.6" stroke-miterlimit="10"/>
<path d="M413.2 876.16C413.2 876.16 413.18 876.16 413.17 876.16C307.13 819.74 219.08 740.79 158.5 647.86C99.1104 556.73 69.0003 456.86 71.4203 359.13C72.5403 314.24 81.2503 271.64 97.3103 232.51C110.16 201.21 127.73 172.04 149.51 145.84C186.62 101.2 223.64 80.32 224.01 80.12" stroke="white" stroke-width="2.5" stroke-miterlimit="10"/>
<path d="M606.19 801.13H606.18C599.22 746.4 554.97 678.43 503.75 599.7C469.59 547.2 430.88 487.71 399.05 424.99C362.58 353.09 340.55 287.66 331.75 224.93C327.63 195.62 328.52 167.49 334.38 141.27C339.07 120.31 346.93 100.52 357.76 82.46C376.21 51.7 397.18 36.42 397.39 36.28" stroke="white" stroke-width="2.6" stroke-miterlimit="10"/>
<path d="M525.6 210.18C532.26 223.55 558.27 265.9 609.17 330.5C614.8 337.65 620.34 344.65 625.78 351.54C689.46 432.14 739.78 495.79 771.28 572.71C784.57 605.19 786.69 646.5 781.91 670.53" stroke="white" stroke-width="2.6" stroke-miterlimit="10"/>
<path d="M515.57 58.45C515.83 58.55 543.57 69.28 601.04 109.84C697.5 177.93 741.55 223.59 802.65 290.7C833.17 324.24 852.65 346.99 865.77 380.27C879.36 414.72 882.93 445.47 883.34 466.37C883.76 488 880.94 501.24 880.85 501.64" stroke="white" stroke-width="2.6" stroke-miterlimit="10"/>
<path d="M297.83 92.57C297.66 92.74 279.51 110.25 263.31 143.23C253.8 162.6 246.79 183.44 242.49 205.18C237.12 232.34 235.96 261.02 239.08 290.39C243.66 333.68 253.61 378.13 268.61 422.46C281.45 460.41 298.4 499.39 318.96 538.33C356.57 609.51 398.9 667.29 429.81 709.48C434.98 716.53 439.84 723.18 444.23 729.27C500.85 807.83 521.57 838.01 522.96 855.58" stroke="white" stroke-width="2.5" stroke-miterlimit="10"/>
<path d="M754.68 181.69C754.9 181.81 776.53 192.97 802.09 218.44C825.69 241.93 857.55 282.76 875.43 343.82" stroke="white" stroke-width="1.35" stroke-miterlimit="10"/>
<path d="M301.329 840.947C303.252 842.842 303.276 845.96 301.377 847.879C299.478 849.798 296.353 849.822 294.429 847.927C292.506 846.032 292.482 842.914 294.381 840.995C296.28 839.076 299.406 839.052 301.329 840.947Z" fill="white"/>
<path d="M421.582 873.28C419.563 875.079 419.37 878.173 421.173 880.211C422.977 882.226 426.078 882.418 428.121 880.619C430.141 878.82 430.333 875.726 428.53 873.687C426.727 871.673 423.626 871.481 421.582 873.28Z" fill="white"/>
<path d="M373.38 68.0928C375.663 66.6297 376.313 63.5835 374.822 61.3049C373.355 59.0263 370.302 58.3787 368.018 59.8658C365.735 61.3289 365.085 64.3751 366.576 66.6537C368.042 68.9323 371.096 69.5799 373.38 68.0928Z" fill="white"/>
<path d="M96.0431 188.691C94.4804 190.898 91.4032 191.425 89.1914 189.866C86.9797 188.307 86.4508 185.237 88.0134 183.03C89.5761 180.824 92.6533 180.296 94.8651 181.855C97.0769 183.414 97.6058 186.484 96.0431 188.691Z" fill="white"/>
<path d="M214.205 89.1279C216.633 87.9286 217.618 84.9784 216.416 82.5559C215.214 80.1334 212.257 79.15 209.829 80.3493C207.401 81.5486 206.415 84.4987 207.617 86.9213C208.82 89.3438 211.777 90.3272 214.205 89.1279Z" fill="white"/>
<path d="M394.368 32.091C396.675 30.436 399.897 30.9637 401.556 33.2663C403.215 35.5689 402.686 38.7829 400.378 40.4379C398.07 42.0929 394.848 41.5652 393.19 39.2626C391.531 36.96 392.06 33.746 394.368 32.091Z" fill="white"/>
<path d="M596.407 802.382C597.081 807.754 602.009 811.568 607.394 810.872C612.779 810.201 616.602 805.284 615.905 799.911C615.231 794.538 610.303 790.749 604.918 791.42C599.533 792.092 595.734 797.009 596.407 802.382Z" fill="white"/>
<path d="M685.96 774.798C685.407 780.195 689.326 785.016 694.711 785.568C700.12 786.119 704.953 782.21 705.506 776.837C706.058 771.44 702.14 766.619 696.755 766.068C691.345 765.516 686.513 769.426 685.96 774.798Z" fill="white"/>
<path d="M772.266 668.615C771.209 673.916 774.67 679.097 779.983 680.152C785.297 681.207 790.489 677.754 791.547 672.453C792.605 667.152 789.143 661.971 783.83 660.916C778.517 659.861 773.324 663.314 772.266 668.615Z" fill="white"/>
<path d="M871.243 499.54C870.089 504.841 873.431 510.046 878.744 511.221C884.057 512.372 889.274 509.038 890.452 503.738C891.606 498.437 888.264 493.232 882.951 492.057C877.638 490.905 872.421 494.239 871.243 499.54Z" fill="white"/>
<path d="M513.202 856.348C513.634 861.745 518.37 865.774 523.78 865.343C529.189 864.911 533.228 860.186 532.795 854.789C532.362 849.393 527.626 845.363 522.217 845.795C516.808 846.226 512.769 850.952 513.202 856.348Z" fill="white"/>
<path d="M221.272 75.2163C223.989 73.7053 227.403 74.6887 228.917 77.375C230.432 80.0853 229.446 83.4913 226.753 85.0023C224.037 86.5134 220.623 85.53 219.108 82.8437C217.594 80.1333 218.579 76.7274 221.272 75.2163Z" fill="white"/>
<path d="M408.552 884.819C413.336 887.361 419.298 885.562 421.846 880.789C424.395 876.016 422.592 870.068 417.807 867.525C413.023 864.983 407.061 866.782 404.513 871.555C401.964 876.328 403.768 882.276 408.552 884.819Z" fill="white"/>
<path d="M351.335 876.757C356.455 878.532 362.057 875.822 363.836 870.689C365.615 865.58 362.898 859.992 357.754 858.217C352.633 856.442 347.031 859.152 345.252 864.285C343.473 869.394 346.19 874.982 351.335 876.757Z" fill="white"/>
<path d="M752.457 186.053C750.029 184.829 749.092 181.879 750.318 179.457C751.544 177.034 754.501 176.099 756.929 177.322C759.357 178.545 760.295 181.495 759.069 183.918C757.843 186.34 754.886 187.276 752.457 186.053Z" fill="white"/>
<path d="M870.714 345.195C871.483 347.786 874.2 349.297 876.821 348.529C879.417 347.762 880.932 345.051 880.162 342.437C879.393 339.846 876.676 338.335 874.056 339.103C871.459 339.87 869.945 342.581 870.714 345.195Z" fill="white"/>
<path d="M521.087 851.047C518.587 852.103 517.409 854.957 518.443 857.451C519.501 859.946 522.362 861.121 524.862 860.09C527.362 859.034 528.54 856.18 527.506 853.686C526.449 851.191 523.588 850.016 521.087 851.047Z" fill="white"/>
<path d="M137.971 739.996C139.726 742.058 139.486 745.152 137.418 746.903C135.351 748.654 132.25 748.414 130.495 746.352C128.74 744.289 128.98 741.195 131.048 739.444C133.115 737.693 136.216 737.933 137.971 739.996Z" fill="white"/>
<path d="M437.978 866.947C442.113 870.449 448.316 869.945 451.826 865.82C455.336 861.695 454.831 855.506 450.696 852.005C446.561 848.503 440.358 849.006 436.848 853.132C433.338 857.257 433.843 863.445 437.978 866.947Z" fill="white"/>
<path d="M391.146 115.8C391.771 112.681 394.8 110.667 397.901 111.29C401.027 111.914 403.046 114.936 402.421 118.03C401.796 121.148 398.767 123.163 395.665 122.539C392.564 121.916 390.521 118.894 391.146 115.8Z" fill="white"/>
<path d="M521.039 212.412C519.788 209.894 520.822 206.848 523.347 205.577C525.871 204.329 528.924 205.361 530.198 207.879C531.448 210.398 530.415 213.444 527.89 214.715C525.366 215.986 522.313 214.931 521.039 212.412Z" fill="white"/>
<path d="M513.539 63.7514C510.582 62.6241 509.116 59.3381 510.222 56.4119C511.352 53.4617 514.645 51.9986 517.578 53.1019C520.535 54.2292 522.002 57.5152 520.896 60.4414C519.766 63.3916 516.472 64.8547 513.539 63.7514Z" fill="white"/>
<path d="M293.877 88.4082C296.185 86.2016 299.839 86.2975 302.051 88.6001C304.262 90.9027 304.166 94.5484 301.858 96.7551C299.55 98.9617 295.896 98.8658 293.684 96.5632C291.473 94.2606 291.569 90.6149 293.877 88.4082Z" fill="white"/>
<path d="M90.8449 196.07C89.2822 198.277 86.205 198.805 83.9932 197.246C81.7814 195.687 81.2525 192.616 82.8152 190.41C84.3778 188.203 87.4551 187.675 89.6668 189.234C91.8786 190.794 92.4075 193.864 90.8449 196.07Z" fill="white"/>
<path d="M603.185 796.957C605.493 795.302 608.714 795.829 610.373 798.132C612.032 800.434 611.503 803.648 609.195 805.303C606.887 806.958 603.666 806.431 602.007 804.128C600.348 801.826 600.877 798.612 603.185 796.957Z" fill="white"/>
<path d="M596.439 802.363C597.112 807.736 602.04 811.549 607.425 810.854C612.81 810.182 616.633 805.265 615.936 799.892C615.263 794.52 610.334 790.73 604.949 791.402C599.564 792.073 595.765 796.99 596.439 802.363Z" fill="white"/>
<path d="M684.678 774.661C684.125 780.057 688.044 784.878 693.429 785.43C698.838 785.982 703.67 782.072 704.223 776.699C704.776 771.303 700.858 766.482 695.472 765.93C690.063 765.378 685.231 769.288 684.678 774.661Z" fill="white"/>
<path d="M772.269 668.611C771.211 673.912 774.673 679.093 779.986 680.148C785.299 681.204 790.492 677.75 791.55 672.449C792.608 667.148 789.146 661.967 783.833 660.912C778.52 659.857 773.327 663.31 772.269 668.611Z" fill="white"/>
<path d="M871.246 499.541C870.092 504.842 873.434 510.047 878.747 511.222C884.06 512.373 889.277 509.039 890.455 503.739C891.609 498.438 888.267 493.233 882.954 492.058C877.641 490.907 872.424 494.241 871.246 499.541Z" fill="white"/>
<path d="M221.27 75.227C223.987 73.7159 227.401 74.6993 228.915 77.3857C230.43 80.096 229.444 83.5019 226.751 85.013C224.035 86.5241 220.621 85.5407 219.106 82.8543C217.592 80.144 218.578 76.7381 221.27 75.227Z" fill="white"/>
<path d="M408.572 884.807C413.356 887.349 419.318 885.55 421.867 880.777C424.415 876.004 422.612 870.056 417.828 867.513C413.044 864.971 407.082 866.77 404.533 871.543C401.985 876.316 403.788 882.264 408.572 884.807Z" fill="white"/>
<path d="M351.3 876.73C356.421 878.505 362.023 875.795 363.802 870.662C365.581 865.553 362.864 859.965 357.719 858.19C352.599 856.415 346.997 859.125 345.218 864.258C343.439 869.367 346.156 874.955 351.3 876.73Z" fill="white"/>
<path d="M752.444 186.055C750.016 184.832 749.078 181.882 750.304 179.459C751.53 177.037 754.487 176.101 756.915 177.325C759.343 178.548 760.281 181.498 759.055 183.921C757.829 186.343 754.872 187.279 752.444 186.055Z" fill="white"/>
<path d="M870.705 345.199C871.475 347.79 874.191 349.301 876.812 348.533C879.408 347.766 880.923 345.055 880.153 342.441C879.384 339.85 876.668 338.339 874.047 339.107C871.451 339.874 869.936 342.585 870.705 345.199Z" fill="white"/>
<path d="M521.074 851.059C518.574 852.114 517.396 854.968 518.429 857.463C519.487 859.957 522.348 861.133 524.848 860.101C527.348 859.046 528.526 856.192 527.493 853.697C526.435 851.203 523.574 850.027 521.074 851.059Z" fill="white"/>
<path d="M389.892 115.555C390.517 112.437 393.546 110.422 396.647 111.046C399.773 111.669 401.792 114.691 401.167 117.785C400.542 120.904 397.513 122.918 394.412 122.295C391.31 121.671 389.267 118.649 389.892 115.555Z" fill="white"/>
<path d="M521.02 212.441C519.77 209.923 520.804 206.877 523.328 205.606C525.852 204.358 528.905 205.39 530.18 207.908C531.43 210.427 530.396 213.473 527.872 214.744C525.347 216.015 522.294 214.96 521.02 212.441Z" fill="white"/>
<path d="M513.551 63.7747C510.594 62.6474 509.127 59.3614 510.233 56.4352C511.363 53.485 514.657 52.0219 517.59 53.1253C520.547 54.2526 522.013 57.5386 520.908 60.4648C519.778 63.415 516.484 64.8781 513.551 63.7747Z" fill="white"/>
<path d="M293.84 88.3966C296.148 86.1899 299.802 86.2859 302.014 88.5884C304.225 90.891 304.129 94.5368 301.821 96.7434C299.513 98.9501 295.859 98.8542 293.647 96.5516C291.436 94.249 291.532 90.6032 293.84 88.3966Z" fill="white"/>
</g>
<defs>
<clipPath id="clip0_4789_3730">
<rect width="900" height="900" fill="white"/>
</clipPath>
</defs>
</svg>
